{
.appVersion = "3151";
.formatVersion = 3;
axes = (
{
name = Weight;
tag = wght;
}
);
classes = (
{
automatic = 1;
code = "A Aacute Abreve Acircumflex Adieresis Agrave Amacron Aogonek Aring Atilde AE B C Cacute Ccaron Ccedilla Ccircumflex Cdotaccent D Eth Dcaron Dcroat E Eacute Ecaron Ecircumflex Edieresis Edotaccent Egrave Emacron Eogonek Etilde Schwa F G Gbreve Gcircumflex Gcommaaccent Gdotaccent Gmacron H Hbar Hcircumflex I IJ Iacute Icircumflex Idieresis Idotaccent Igrave Imacron Iogonek Itilde J Jacute Jcircumflex K Kcommaaccent L Lacute Lcaron Lcommaaccent Lslash M N Nacute Ncaron Ncommaaccent Ntilde Eng O Oacute Ocircumflex Odieresis Ograve Ohungarumlaut Omacron Oslash Otilde OE P Thorn Q R Racute Rcaron Rcommaaccent S Sacute Saltillo Scaron Scedilla Scircumflex Scommaaccent Germandbls T Tcaron Tcedilla Tcommaaccent U Uacute Ubreve Ucircumflex Udieresis Ugrave Uhungarumlaut Umacron Uogonek Uring Utilde V W Wacute Wcircumflex Wdieresis Wgrave X Y Yacute Ycircumflex Ydieresis Ygrave Ytilde Z Zacute Zcaron Zdotaccent Iacute_J.loclNLD Lcommaaccent.loclMAH Ncommaaccent.loclMAH";
name = Uppercase;
}
);
customParameters = (
{
name = panose;
value = (
0,
0,
0,
0,
0,
0,
0,
0,
0,
0
);
},
{
name = fsType;
value = (
);
},
{
name = "Write lastChange";
value = 0;
},
{
name = "Use Typo Metrics";
value = 1;
},
{
name = "Use Line Breaks";
value = 1;
},
{
name = "Enforce Compatibility Check";
value = 1;
},
{
name = vendorID;
value = TBLD;
}
);
date = "2023-12-10 12:24:40 +0000";
familyName = Wittgenstein;
featurePrefixes = (
{
automatic = 1;
code = "languagesystem DFLT dflt;
languagesystem DFLT MAH;

languagesystem latn dflt;
languagesystem latn AZE;
languagesystem latn CRT;
languagesystem latn KAZ;
languagesystem latn TAT;
languagesystem latn TRK;
languagesystem latn ROM;
languagesystem latn MOL;
languagesystem latn MAH;
languagesystem latn NLD;
languagesystem latn CAT;
";
name = Languagesystems;
}
);
features = (
{
automatic = 1;
code = "feature locl;
feature numr;

glyphs = (
{
color = 6;
glyphname = A;
layers = (
{
anchors = (
{
name = ogo;
pos = (516,0);
},
{
name = top;
pos = (506,700);
}
);
layerId = m01;
shapes = (
{
closed = 1;
nodes = (
(206,0,l),
(210,19,l),
(106,56,l),
(112,33,l),
(240,258,l),
(213,241,l),
(516,241,l),
(495,258,l),
(534,33,l),
(550,56,l),
(435,20,l),
(431,0,l),
(715,0,l),
(719,19,l),
(615,56,l),
(636,33,l),
(526,720,l),
(427,700,l),
(57,33,l),
(85,56,l),
(-30,20,l),
(-34,0,l)
);
},
{
closed = 1;
nodes = (
(449,643,l),
(437,643,l),
(493,264,l),
(509,281,l),
(236,281,l),
(244,264,l)
);
}
);
width = 761;
},
{
anchors = (
{
name = top;
pos = (398,671);
}
);
associatedMasterId = m01;
layerId = "77F1F182-FFCF-4508-A517-31895B1E2DC0";
name = "1. Jan. 24, 22:37";
shapes = (
{
closed = 1;
nodes = (
(683,50,l),
(442,720,l),
(343,700,l),
(584,50,l)
);
},
{
closed = 1;
nodes = (
(248,0,l),
(248,19,l),
(154,50,l),
(99,50,l),
(8,20,l),
(8,0,l)
);
},
{
closed = 1;
nodes = (
(154,50,l),
(398,700,l),
(343,700,l),
(99,50,l)
);
},
{
closed = 1;
nodes = (
(540,241,l),
(540,281,l),
(194,281,l),
(194,241,l)
);
},
{
closed = 1;
nodes = (
(777,0,l),
(777,19,l),
(683,50,l),
(584,50,l),
(493,20,l),
(493,0,l)
);
}
);
width = 785;
},
{
anchors = (
{
name = ogo;
pos = (409,0);
},
{
name = top;
pos = (456,700);
}
);
background = {
shapes = (
{
closed = 1;
nodes = (
(212,0,l),
(212,20,l),
(119,50,l),
(119,648,l),
(212,680,l),
(212,700,l),
(-158,700,l),
(-158,680,l),
(-65,650,l),
(-65,50,l),
(-158,20,l),
(-158,0,l)
);
}
);
};
hints = (
{
horizontal = 1;
place = (0, 16);
place = (0, 16);
type = Stem;
},
{
horizontal = 1;
place = (238, 46);
place = (238, 46);
type = Stem;
},
{
horizontal = 1;
place = (715, -20);
target = down;
type = TopGhost;
},
{
place = (-35, 855);
place = (-35, 855);
type = Stem;
}
);
layerId = "E0989092-07D5-4BE4-A82B-4E03160A36DB";
shapes = (
{
closed = 1;
nodes = (
(163,0,l),
(166,20,l),
(61,57,l),
(60,48,l),
(170,240,l),
(165,238,l),
(422,238,l),
(419,240,l),
(454,48,l),
(455,51,l),
(354,20,l),
(351,0,l),
(721,0,l),
(724,20,l),
(648,47,l),
(650,44,l),
(553,715,l),
(360,700,l),
(7,48,l),
(10,51,l),
(-91,20,l),
(-94,0,l)
);
},
{
closed = 1;
nodes = (
(382,648,l),
(366,648,l),
(412,276,l),
(414,278,l),
(189,278,l),
(191,276,l)
);
}
);
width = 755;
}
);
unicode = 65;
},
{
color = 6;
glyphname = AE;
layers = (
{
layerId = m01;
shapes = (
{
closed = 1;
nodes = (
(794,0,l),
(867,197,l),
(850,204,l),
(728,34,l),
(757,50,l),
(475,50,l),
(489,32,l),
(553,359,l),
(531,341,l),
(703,341,l),
(682,359,l),
(698,245,l),
(717,245,l),
(761,475,l),
(741,475,l),
(683,363,l),
(711,381,l),
(539,381,l),
(554,363,l),
(613,668,l),
(591,650,l),
(878,650,l),
(859,667,l),
(871,520,l),
(892,520,l),
(927,700,l),
(524,700,l),
(524,698,l),
(2,34,l),
(31,56,l),
(-84,20,l),
(-88,0,l),
(152,0,l),
(156,19,l),
(52,56,l),
(57,34,l),
(195,227,l),
(166,211,l),
(447,211,l),
(432,229,l),
(388,0,l)
);
},
{
closed = 1;
nodes = (
(515,614,l),
(508,616,l),
(433,233,l),
(455,251,l),
(195,251,l),
(202,235,l)
);
}
);
width = 907;
},
{
associatedMasterId = m01;
layerId = "65F6BFA4-FC38-41E6-9ED1-2CEBC3AB3BF6";
name = "2. Jan. 24, 00:57";
shapes = (
{
closed = 1;
nodes = (
(894,0,l),
(929,197,l),
(910,204,l),
(829,50,l),
(543,50,l),
(543,341,l),
(719,341,l),
(719,339,l),
(750,245,l),
(769,245,l),
(769,475,l),
(749,475,l),
(719,384,l),
(719,381,l),
(543,381,l),
(543,650,l),
(834,650,l),
(870,520,l),
(891,520,l),
(891,700,l),
(448,700,l),
(448,0,l)
);
},
{
closed = 1;
nodes = (
(252,0,l),
(252,19,l),
(158,50,l),
(103,50,l),
(12,20,l),
(12,0,l)
);
},
{
closed = 1;
nodes = (
(514,211,l),
(514,251,l),
(218,251,l),
(218,211,l)
);
},
{
closed = 1;
nodes = (
(158,50,l),
(502,700,l),
(449,700,l),
(103,50,l)
);
}
);
width = 941;
},
{
hints = (
{
horizontal = 1;
place = (-71, -12);
place = (-71, -12);
type = Stem;
},
{
horizontal = 1;
place = (140, -22);
place = (140, -22);
type = Stem;
},
{
horizontal = 1;
place = (270, -22);
place = (270, -22);
type = Stem;
},
{
horizontal = 1;
place = (579, -12);
place = (579, -12);
type = Stem;
},
{
place = (430, 97);
place = (430, 97);
type = Stem;
},
{
place = (686, 17);
place = (686, 17);
type = Stem;
},
{
place = (719, -16);
place = (719, -16);
type = Stem;
},
{
place = (718, -15);
place = (718, -15);
type = Stem;
},
{
place = (854, -12);
place = (854, -12);
type = Stem;
},
{
horizontal = 1;
place = (449, 118);
place = (449, 118);
type = Stem;
},
{
horizontal = 1;
place = (-68, -52);
place = (-68, -52);
type = Stem;
}
);
layerId = "E0989092-07D5-4BE4-A82B-4E03160A36DB";
shapes = (
{
closed = 1;
nodes = (
(880,-3,l),
(953,190,l),
(931,224,l),
(807,51,l),
(810,53,l),
(572,53,l),
(574,51,l),
(630,340,l),
(628,338,l),
(744,338,l),
(741,340,l),
(756,242,l),
(788,242,l),
(834,478,l),
(801,478,l),
(749,382,l),
(753,384,l),
(637,384,l),
(638,382,l),
(690,649,l),
(688,647,l),
(926,647,l),
(923,649,l),
(934,517,l),
(980,517,l),
(1017,703,l),
(517,703,l),
(514,690,l),
(15,45,l),
(18,48,l),
(-83,17,l),
(-86,0,l),
(152,0,l),
(155,16,l),
(70,47,l),
(71,44,l),
(204,210,l),
(200,208,l),
(422,208,l),
(421,210,l),
(379,-3,l)
);
},
{
closed = 1;
nodes = (
(496,594,l),
(495,594,l),
(429,252,l),
(431,254,l),
(239,254,l),
(240,252,l)
);
}
);
width = 986;
}
);
unicode = 198;
},
{
color = 6;
glyphname = B;
layers = (
{
anchors = (
{
name = top;
pos = (397,700);
}
);
layerId = m01;
shapes = (
{
closed = 1;
nodes = (
(279,0,ls),
(450,0,o),
(572,79,o),
(597,205,cs),
(614,291,o),
(564,352,o),
(467,372,c),
(468,363,l),
(548,396,o),
(606,459,o),
(621,537,cs),
(640,632,o),
(567,700,o),
(445,700,cs),
(125,700,l),
(121,680,l),
(222,644,l),
(210,668,l),
(86,32,l),
(108,56,l),
(-7,20,l),
(-11,0,l)
);
},
{
closed = 1;
nodes = (
(245,359,l),
(223,341,l),
(345,341,ls),
(448,341,o),
(501,278,o),
(481,177,cs),
(466,99,o),
(404,50,o),
(319,50,cs),
(167,50,l),
(181,32,l)
);
},
{
closed = 1;
nodes = (
(305,668,l),
(283,650,l),
(405,650,ls),
(480,650,o),
(522,590,o),
(505,505,cs),
(491,432,o),
(440,381,o),
(383,381,cs),
(231,381,l),
(246,363,l)
);
}
);
width = 646;
},
{
anchors = (
{
name = top;
pos = (306,700);
}
);
associatedMasterId = m01;
layerId = "4784B320-B7C0-473D-AF98-435A13D7944F";
name = "1. Jan. 24, 22:48";
shapes = (
{
closed = 1;
nodes = (
(495,0,o),
(602,79,o),
(602,205,cs),
(602,313,o),
(506,381,o),
(354,381,c),
(324,341,l),
(427,341,o),
(492,278,o),
(492,177,cs),
(492,99,o),
(439,50,o),
(354,50,c),
(324,0,l)
);
},
{
closed = 1;
nodes = (
(324,0,l),
(354,50,l),
(125,50,l),
(34,20,l),
(34,0,l)
);
},
{
closed = 1;
nodes = (
(220,50,l),
(220,650,l),
(125,650,l),
(125,50,l)
);
},
{
closed = 1;
nodes = (
(324,341,l),
(354,381,l),
(190,381,l),
(190,341,l)
);
},
{
closed = 1;
nodes = (
(324,650,l),
(354,700,l),
(34,700,l),
(34,680,l),
(125,650,l)
);
},
{
closed = 1;
nodes = (
(463,341,o),
(562,422,o),
(562,537,cs),
(562,632,o),
(476,700,o),
(354,700,c),
(324,650,l),
(399,650,o),
(452,590,o),
(452,505,cs),
(452,432,o),
(411,381,o),
(354,381,c),
(324,341,l)
);
}
);
width = 660;
},
{
anchors = (
{
name = top;
pos = (437,700);
}
);
hints = (
{
horizontal = 1;
place = (-68, -15);
place = (-68, -15);
type = Stem;
},
{
horizontal = 1;
place = (270, -22);
place = (270, -22);
type = Stem;
},
{
horizontal = 1;
place = (579, -15);
place = (579, -15);
type = Stem;
},
{
place = (-20, 114);
place = (-20, 114);
type = Stem;
},
{
place = (347, 129);
place = (347, 129);
type = Stem;
},
{
place = (307, 129);
place = (307, 129);
type = Stem;
},
{
horizontal = 1;
place = (619, -55);
place = (619, -55);
type = Stem;
}
);
layerId = "E0989092-07D5-4BE4-A82B-4E03160A36DB";
shapes = (
{
closed = 1;
nodes = (
(284,0,ls),
(480,0,o),
(635,81,o),
(657,195,cs),
(671,268,o),
(616,341,o),
(525,370,c),
(525,368,l),
(604,398,o),
(670,468,o),
(683,537,cs),
(702,632,o),
(621,700,o),
(487,700,cs),
(100,700,l),
(98,687,l),
(181,646,l),
(179,649,l),
(63,51,l),
(65,54,l),
(-34,13,l),
(-36,0,l)
);
},
{
closed = 1;
nodes = (
(303,338,l),
(300,336,l),
(363,336,ls),
(444,336,o),
(489,270,o),
(471,177,cs),
(457,103,o),
(400,50,o),
(334,50,cs),
(245,50,l),
(246,48,l)
);
},
{
closed = 1;
nodes = (
(364,652,l),
(361,650,l),
(427,650,ls),
(483,650,o),
(512,590,o),
(495,505,cs),
(482,435,o),
(441,386,o),
(398,386,cs),
(310,386,l),
(312,384,l)
);
}
);
width = 715;
}
);
unicode = 66;
},
{
color = 6;
glyphname = C;
layers = (
{
anchors = (
{
name = ced;
pos = (351,0);
},
{
name = top;
pos = (516,700);
}
);
layerId = m01;
shapes = (
{
closed = 1;
nodes = (
(406,-15,o),
(510,13,o),
(590,52,c),
(619,200,l),
(581,200,l),
(561,97,o),
(473,24,o),
(368,24,cs),
(218,24,o),
(143,186,o),
(188,415,cs),
(217,568,o),
(327,676,o),
(454,676,cs),
(564,676,o),
(655,582,o),
(639,500,c),
(677,500,l),
(706,648,l),
(642,687,o),
(549,715,o),
(482,715,cs),
(280,713,o),
(107,561,o),
(65,347,cs),
(24,135,o),
(138,-15,o),
(340,-15,cs)
);
}
);
width = 696;
},
{
anchors = (
{
name = ced;
pos = (395,0);
},
{
name = top;
pos = (367,700);
}
);
associatedMasterId = m01;
layerId = "25A143D6-1FAB-478C-920D-4B3D556C234A";
name = "1. Jan. 24, 22:49";
shapes = (
{
closed = 1;
nodes = (
(407,24,l),
(257,24,o),
(151,186,o),
(151,415,cs),
(151,568,o),
(240,676,o),
(367,676,c),
(387,715,l),
(185,713,o),
(42,561,o),
(42,347,cs),
(42,135,o),
(185,-15,o),
(387,-15,c)
);
},
{
closed = 1;
nodes = (
(453,-15,o),
(552,13,o),
(624,52,c),
(624,200,l),
(586,200,l),
(586,97,o),
(512,24,o),
(407,24,c),
(387,-15,l)
);
},
{
closed = 1;
nodes = (
(624,500,l),
(624,648,l),
(552,687,o),
(454,715,o),
(387,715,c),
(367,676,l),
(477,676,o),
(586,582,o),
(586,500,c)
);
}
);
width = 700;
},
{
anchors = (
{
name = ced;
pos = (351,0);
},
{
name = top;
pos = (517,700);
}
);
hints = (
{
horizontal = 1;
place = (-86, -23);
place = (-86, -23);
type = Stem;
},
{
horizontal = 1;
place = (605, -23);
place = (605, -23);
type = Stem;
},
{
place = (-69, 127);
place = (-69, 127);
type = Stem;
},
{
place = (521, 10);
place = (521, 10);
type = Stem;
}
);
layerId = "E0989092-07D5-4BE4-A82B-4E03160A36DB";
shapes = (
{
closed = 1;
nodes = (
(439,-18,o),
(532,15,o),
(613,62,c),
(640,203,l),
(590,203,l),
(572,100,o),
(475,32,o),
(373,32,cs),
(250,32,o),
(193,188,o),
(237,415,cs),
(266,566,o),
(359,668,o),
(459,668,cs),
(597,668,o),
(674,614,o),
(648,497,c),
(698,497,l),
(725,638,l),
(662,685,o),
(581,718,o),
(489,718,cs),
(262,720,o),
(71,566,o),
(28,347,cs),
(-13,133,o),
(118,-18,o),
(347,-18,cs)
);
}
);
width = 713;
}
);
unicode = 67;
},
{
color = 6;
glyphname = D;
layers = (
{
anchors = (
{
name = top;
pos = (501,700);
}
);
layerId = m01;
shapes = (
{
closed = 1;
nodes = (
(325,0,ls),
(523,0,o),
(694,160,o),
(738,385,cs),
(774,569,o),
(671,700,o),
(491,700,cs),
(131,700,l),
(127,680,l),
(228,644,l),
(216,668,l),
(92,32,l),
(114,56,l),
(-1,20,l),
(-5,0,l)
);
},
{
closed = 1;
nodes = (
(311,668,l),
(289,650,l),
(451,650,ls),
(585,650,o),
(655,523,o),
(620,344,cs),
(586,172,o),
(481,50,o),
(365,50,cs),
(173,50,l),
(187,32,l)
);
}
);
width = 750;
},
{
anchors = (
{
name = top;
pos = (334,700);
}
);
associatedMasterId = m01;
layerId = "D0A44D90-46C3-4D09-9D47-6B4D893B9BFC";
name = "1. Jan. 24, 22:50";
shapes = (
{
closed = 1;
nodes = (
(560,0,o),
(700,160,o),
(700,385,cs),
(700,569,o),
(572,700,o),
(392,700,c),
(362,650,l),
(496,650,o),
(590,523,o),
(590,344,cs),
(590,172,o),
(508,50,o),
(392,50,c),
(362,0,l)
);
},
{
closed = 1;
nodes = (
(362,0,l),
(392,50,l),
(123,50,l),
(32,20,l),
(32,0,l)
);
},
{
closed = 1;
nodes = (
(218,50,l),
(218,650,l),
(123,650,l),
(123,50,l)
);
},
{
closed = 1;
nodes = (
(362,650,l),
(392,700,l),
(32,700,l),
(32,680,l),
(123,650,l)
);
}
);
width = 754;
},
{
anchors = (
{
name = top;
pos = (447,700);
}
);
hints = (
{
horizontal = 1;
place = (-68, -21);
place = (-68, -21);
type = Stem;
},
{
horizontal = 1;
place = (585, -21);
place = (585, -21);
type = Stem;
},
{
place = (-5, 114);
place = (-5, 114);
type = Stem;
},
{
place = (462, 129);
place = (462, 129);
type = Stem;
},
{
horizontal = 1;
place = (619, -55);
place = (619, -55);
type = Stem;
}
);
layerId = "E0989092-07D5-4BE4-A82B-4E03160A36DB";
shapes = (
{
closed = 1;
nodes = (
(309,0,ls),
(537,0,o),
(730,160,o),
(774,385,cs),
(810,569,o),
(688,700,o),
(480,700,cs),
(80,700,l),
(78,687,l),
(164,654,l),
(163,657,l),
(44,44,l),
(46,47,l),
(-53,17,l),
(-56,0,l)
);
},
{
closed = 1;
nodes = (
(344,652,l),
(341,650,l),
(437,650,ls),
(549,650,o),
(618,525,o),
(583,344,cs),
(549,170,o),
(445,50,o),
(352,50,cs),
(225,50,l),
(226,48,l)
);
}
);
width = 794;
}
);
unicode = 68;
},
{
color = 6;
glyphname = Eth;
layers = (
{
layerId = m01;
shapes = (
{
closed = 1;
nodes = (
(366,337,l),
(374,379,l),
(54,379,l),
(46,337,l)
);
},
{
ref = D;
}
);
width = 750;
},
{
hints = (
{
horizontal = 1;
place = (-3, 56);
place = (-3, 56);
type = Stem;
},
{
horizontal = 1;
place = (334, 48);
place = (334, 48);
type = Stem;
},
{
horizontal = 1;
place = (647, 56);
place = (647, 56);
type = Stem;
},
{
place = (80, 181);
place = (80, 181);
type = Stem;
},
{
place = (547, 196);
place = (547, 196);
type = Stem;
},
{
horizontal = 1;
place = (687, 16);
place = (687, 16);
type = Stem;
}
);
layerId = "E0989092-07D5-4BE4-A82B-4E03160A36DB";
shapes = (
{
closed = 1;
nodes = (
(390,334,l),
(400,382,l),
(-6,382,l),
(-16,334,l)
);
},
{
ref = D;
}
);
width = 754;
}
);
unicode = 208;
},
{
color = 6;
glyphname = E;
layers = (
{
anchors = (
{
name = ogo;
pos = (262,0);
},
{
name = top;
pos = (452,700);
}
);
layerId = m01;
shapes = (
{
closed = 1;
nodes = (
(518,0,l),
(591,197,l),
(574,204,l),
(452,34,l),
(481,50,l),
(159,50,l),
(173,32,l),
(237,359,l),
(215,341,l),
(427,341,l),
(407,358,l),
(422,245,l),
(441,245,l),
(485,475,l),
(465,475,l),
(409,364,l),
(435,381,l),
(223,381,l),
(238,363,l),
(297,668,l),
(275,650,l),
(602,650,l),
(583,667,l),
(595,520,l),
(616,520,l),
(651,700,l),
(117,700,l),
(113,680,l),
(214,644,l),
(202,668,l),
(78,32,l),
(100,56,l),
(-15,20,l),
(-19,0,l)
);
}
);
width = 645;
},
{
anchors = (
{
name = top;
pos = (334,700);
}
);
associatedMasterId = m01;
layerId = "FEC74467-989F-442E-8B17-9EE45420A350";
name = "2. Jan. 24, 00:41";
shapes = (
{
closed = 1;
nodes = (
(218,50,l),
(218,650,l),
(123,650,l),
(123,50,l)
);
},
{
closed = 1;
nodes = (
(504,0,l),
(504,50,l),
(123,50,l),
(32,20,l),
(32,0,l)
);
},
{
closed = 1;
nodes = (
(569,0,l),
(604,197,l),
(585,204,l),
(504,50,l),
(504,0,l)
);
},
{
closed = 1;
nodes = (
(444,341,l),
(444,381,l),
(188,381,l),
(188,341,l)
);
},
{
closed = 1;
nodes = (
(444,245,l),
(444,475,l),
(424,475,l),
(394,384,l),
(394,339,l),
(425,245,l)
);
},
{
closed = 1;
nodes = (
(509,650,l),
(509,700,l),
(32,700,l),
(32,680,l),
(123,650,l)
);
},
{
closed = 1;
nodes = (
(566,520,l),
(566,700,l),
(509,700,l),
(509,650,l),
(545,520,l)
);
}
);
width = 649;
},
{
anchors = (
{
name = ogo;
pos = (275,0);
},
{
name = top;
pos = (442,700);
}
);
hints = (
{
horizontal = 1;
place = (-68, -21);
place = (-68, -21);
type = Stem;
},
{
horizontal = 1;
place = (275, -30);
place = (275, -30);
type = Stem;
},
{
horizontal = 1;
place = (585, -21);
place = (585, -21);
type = Stem;
},
{
place = (-5, 114);
place = (-5, 114);
type = Stem;
},
{
place = (350, -32);
place = (350, -32);
type = Stem;
},
{
place = (485, -28);
place = (485, -28);
type = Stem;
},
{
place = (349, -31);
place = (349, -31);
type = Stem;
},
{
horizontal = 1;
place = (449, 115);
place = (449, 115);
type = Stem;
},
{
horizontal = 1;
place = (619, -55);
place = (619, -55);
type = Stem;
}
);
layerId = "E0989092-07D5-4BE4-A82B-4E03160A36DB";
shapes = (
{
closed = 1;
nodes = (
(556,0,l),
(628,190,l),
(599,206,l),
(485,48,l),
(489,50,l),
(217,50,l),
(218,48,l),
(275,339,l),
(272,337,l),
(397,337,l),
(395,339,l),
(417,242,l),
(437,242,l),
(483,478,l),
(462,478,l),
(404,385,l),
(407,387,l),
(282,387,l),
(284,385,l),
(336,652,l),
(333,650,l),
(606,650,l),
(604,652,l),
(615,517,l),
(655,517,l),
(691,700,l),
(70,700,l),
(68,687,l),
(154,654,l),
(153,657,l),
(33,43,l),
(36,46,l),
(-64,13,l),
(-66,0,l)
);
}
);
width = 689;
}
);
unicode = 69;
},
{
color = 6;
glyphname = Schwa;
layers = (
{
layerId = m01;
shapes = (
{
closed = 1;
nodes = (
(362,-14,o),
(504,145,o),
(549,370,cs),
(590,570,o),
(511,712,o),
(357,712,cs),
(273,712,o),
(170,659,o),
(111,585,c),
(143,566,l),
(189,609,o),
(257,640,o),
(308,640,cs),
(430,640,o),
(490,506,o),
(447,311,c),
(468,327,l),
(53,327,l),
(0,130,o),
(63,-14,o),
(206,-14,cs)
);
},
{
closed = 1;
nodes = (
(157,29,o),
(106,136,o),
(131,301,c),
(112,281,l),
(463,287,l),
(448,304,l),
(421,143,o),
(339,29,o),
(252,29,cs)
);
}
);
width = 606;
},
{
layerId = "E0989092-07D5-4BE4-A82B-4E03160A36DB";
shapes = (
{
closed = 1;
nodes = (
(412,-17,o),
(560,148,o),
(604,370,cs),
(644,565,o),
(560,715,o),
(369,715,cs),
(265,715,o),
(139,651,o),
(89,590,c),
(168,544,l),
(229,611,o),
(281,637,o),
(319,637,cs),
(402,637,o),
(454,513,o),
(417,320,c),
(420,322,l),
(21,325,l),
(-34,125,o),
(38,-17,o),
(218,-17,cs)
);
},
{
closed = 1;
nodes = (
(208,32,o),
(156,70,o),
(179,277,c),
(176,274,l),
(415,284,l),
(414,286,l),
(382,128,o),
(310,32,o),
(264,32,cs)
);
}
);
width = 630;
}
);
unicode = 399;
},
{
color = 6;
glyphname = F;
layers = (
{
anchors = (
{
name = top;
pos = (451,700);
}
);
layerId = m01;
shapes = (
{
closed = 1;
nodes = (
(309,0,l),
(313,19,l),
(189,55,l),
(201,32,l),
(265,359,l),
(243,341,l),
(455,341,l),
(435,358,l),
(450,245,l),
(469,245,l),
(513,475,l),
(493,475,l),
(437,364,l),
(463,381,l),
(251,381,l),
(266,363,l),
(325,668,l),
(303,650,l),
(630,650,l),
(611,667,l),
(623,520,l),
(644,520,l),
(679,700,l),
(145,700,l),
(141,680,l),
(242,644,l),
(230,668,l),
(106,32,l),
(128,56,l),
(13,20,l),
(9,0,l)
);
}
);
width = 643;
},
{
anchors = (
{
name = top;
pos = (338,700);
}
);
associatedMasterId = m01;
layerId = "41430A1B-FDF3-479E-A5F3-835DC2B9B194";
name = "1. Jan. 24, 22:56";
shapes = (
{
closed = 1;
nodes = (
(218,50,l),
(218,650,l),
(123,650,l),
(123,50,l)
);
},
{
closed = 1;
nodes = (
(332,0,l),
(332,19,l),
(218,50,l),
(123,50,l),
(32,20,l),
(32,0,l)
);
},
{
closed = 1;
nodes = (
(444,341,l),
(444,381,l),
(188,381,l),
(188,341,l)
);
},
{
closed = 1;
nodes = (
(444,245,l),
(444,475,l),
(424,475,l),
(394,384,l),
(394,339,l),
(425,245,l)
);
},
{
closed = 1;
nodes = (
(509,650,l),
(509,700,l),
(32,700,l),
(32,680,l),
(123,650,l)
);
},
{
closed = 1;
nodes = (
(566,520,l),
(566,700,l),
(509,700,l),
(509,650,l),
(545,520,l)
);
}
);
width = 597;
},
{
anchors = (
{
name = top;
pos = (446,700);
}
);
hints = (
{
horizontal = 1;
place = (-68, -51);
place = (-68, -51);
type = Stem;
},
{
horizontal = 1;
place = (270, -22);
place = (270, -22);
type = Stem;
},
{
horizontal = 1;
place = (585, -21);
place = (585, -21);
type = Stem;
},
{
place = (-5, 114);
place = (-5, 114);
type = Stem;
},
{
place = (301, 17);
place = (301, 17);
type = Stem;
},
{
place = (334, -16);
place = (334, -16);
type = Stem;
},
{
place = (333, -15);
place = (333, -15);
type = Stem;
},
{
place = (452, 5);
place = (452, 5);
type = Stem;
},
{
horizontal = 1;
place = (445, 119);
place = (445, 119);
type = Stem;
},
{
horizontal = 1;
place = (615, -51);
place = (615, -51);
type = Stem;
}
);
layerId = "E0989092-07D5-4BE4-A82B-4E03160A36DB";
shapes = (
{
closed = 1;
nodes = (
(331,0,l),
(334,17,l),
(224,47,l),
(226,44,l),
(283,338,l),
(280,336,l),
(408,336,l),
(406,338,l),
(428,242,l),
(448,242,l),
(494,478,l),
(473,478,l),
(415,384,l),
(418,386,l),
(290,386,l),
(292,384,l),
(344,652,l),
(341,650,l),
(582,650,l),
(580,652,l),
(592,513,l),
(632,513,l),
(668,700,l),
(80,700,l),
(77,683,l),
(162,653,l),
(160,656,l),
(42,44,l),
(44,47,l),
(-53,17,l),
(-56,0,l)
);
}
);
width = 634;
}
);
unicode = 70;
},
{
color = 6;
glyphname = G;
layers = (
{
anchors = (
{
name = com;
pos = (376,-2);
},
{
name = top;
pos = (506,700);
}
);
layerId = m01;
shapes = (
{
closed = 1;
nodes = (
(453,-15,o),
(570,14,o),
(647,54,c),
(689,268,l),
(668,242,l),
(756,281,l),
(759,300,l),
(469,300,l),
(465,280,l),
(608,246,l),
(594,268,l),
(556,71,l),
(569,98,l),
(519,53,o),
(455,24,o),
(395,24,cs),
(233,24,o),
(150,186,o),
(195,415,cs),
(224,568,o),
(343,676,o),
(481,676,cs),
(609,676,o),
(686,603,o),
(666,500,c),
(704,500,l),
(733,648,l),
(671,687,o),
(578,715,o),
(509,715,cs),
(295,713,o),
(114,561,o),
(72,347,cs),
(31,135,o),
(153,-15,o),
(367,-15,cs)
);
}
);
width = 783;
},
{
anchors = (
{
name = com;
pos = (406,-2);
},
{
name = top;
pos = (390,700);
}
);
associatedMasterId = m01;
layerId = "39080339-8871-4078-9D60-13CA8196ECF6";
name = "1. Jan. 24, 22:59";
shapes = (
{
closed = 1;
nodes = (
(420,24,l),
(258,24,o),
(144,186,o),
(144,415,cs),
(144,568,o),
(242,676,o),
(380,676,c),
(400,715,l),
(186,713,o),
(35,561,o),
(35,347,cs),
(35,135,o),
(186,-15,o),
(400,-15,c)
);
},
{
closed = 1;
nodes = (
(486,-15,o),
(597,14,o),
(667,54,c),
(667,150,l),
(621,160,l),
(587,80,o),
(504,24,o),
(420,24,c),
(400,-15,l)
);
},
{
closed = 1;
nodes = (
(667,54,l),
(667,250,l),
(572,250,l),
(572,54,l)
);
},
{
closed = 1;
nodes = (
(667,250,l),
(731,281,l),
(731,300,l),
(441,300,l),
(441,280,l),
(572,250,l)
);
},
{
closed = 1;
nodes = (
(637,500,l),
(637,648,l),
(565,687,o),
(466,715,o),
(400,715,c),
(380,676,l),
(508,676,o),
(599,603,o),
(599,500,c)
);
}
);
width = 737;
},
{
anchors = (
{
name = com;
pos = (369,-8);
},
{
name = top;
pos = (491,700);
}
);
background = {
shapes = (
{
closed = 0;
nodes = (
(410,676,ls),
(543,676,o),
(637,609,o),
(637,515,c),
(700,515,l),
(700,647,l),
(641,687,o),
(521,716,o),
(410,716,cs)
);
}
);
};
hints = (
{
horizontal = 1;
place = (-86, -23);
place = (-86, -23);
type = Stem;
},
{
horizontal = 1;
place = (221, -54);
place = (221, -54);
type = Stem;
},
{
horizontal = 1;
place = (605, -23);
place = (605, -23);
type = Stem;
},
{
place = (-76, 127);
place = (-76, 127);
type = Stem;
},
{
place = (461, 113);
place = (461, 113);
type = Stem;
},
{
horizontal = 1;
place = (217, -50);
place = (217, -50);
type = Stem;
},
{
horizontal = 1;
place = (429, 73);
place = (429, 73);
type = Stem;
},
{
place = (538, 6);
place = (538, 6);
type = Stem;
}
);
layerId = "E0989092-07D5-4BE4-A82B-4E03160A36DB";
shapes = (
{
closed = 1;
nodes = (
(475,-16,o),
(608,11,o),
(674,51,c),
(713,254,l),
(711,252,l),
(782,289,l),
(785,305,l),
(409,305,l),
(405,285,l),
(531,253,l),
(530,256,l),
(492,60,l),
(493,63,l),
(465,38,o),
(417,23,o),
(376,23,c),
(245,47,o),
(179,208,o),
(220,415,cs),
(249,568,o),
(350,675,o),
(463,675,cs),
(603,675,o),
(668,609,o),
(649,515,c),
(732,515,l),
(758,647,l),
(709,687,o),
(599,716,o),
(494,716,cs),
(254,718,o),
(54,566,o),
(11,347,cs),
(-30,133,o),
(111,-16,o),
(352,-16,cs)
);
}
);
width = 807;
}
);
unicode = 71;
},
{
color = 6;
glyphname = H;
layers = (
{
anchors = (
{
name = top;
pos = (522,700);
}
);
layerId = m01;
shapes = (
{
closed = 1;
nodes = (
(253,0,l),
(257,19,l),
(153,56,l),
(165,32,l),
(228,353,l),
(206,335,l),
(632,335,l),
(618,353,l),
(555,32,l),
(577,56,l),
(462,20,l),
(458,0,l),
(738,0,l),
(742,19,l),
(638,56,l),
(650,32,l),
(774,668,l),
(752,644,l),
(870,681,l),
(874,700,l),
(594,700,l),
(590,680,l),
(691,644,l),
(679,668,l),
(618,357,l),
(640,375,l),
(214,375,l),
(228,357,l),
(289,668,l),
(267,644,l),
(385,681,l),
(389,700,l),
(109,700,l),
(105,680,l),
(206,644,l),
(194,668,l),
(70,32,l),
(92,56,l),
(-23,20,l),
(-27,0,l)
);
}
);
width = 802;
},
{
associatedMasterId = m01;
layerId = "015B11CA-0731-4F8C-9479-89012C1F2E0D";
name = "1. Jan. 24, 23:01";
shapes = (
{
closed = 1;
nodes = (
(699,50,l),
(699,650,l),
(604,650,l),
(604,50,l)
);
},
{
closed = 1;
nodes = (
(308,0,l),
(308,19,l),
(214,50,l),
(119,50,l),
(28,20,l),
(28,0,l)
);
},
{
closed = 1;
nodes = (
(214,50,l),
(214,650,l),
(119,650,l),
(119,50,l)
);
},
{
closed = 1;
nodes = (
(793,0,l),
(793,19,l),
(699,50,l),
(604,50,l),
(513,20,l),
(513,0,l)
);
},
{
closed = 1;
nodes = (
(649,335,l),
(649,375,l),
(163,375,l),
(163,335,l)
);
},
{
closed = 1;
nodes = (
(214,650,l),
(308,681,l),
(308,700,l),
(28,700,l),
(28,680,l),
(119,650,l)
);
},
{
closed = 1;
nodes = (
(699,650,l),
(793,681,l),
(793,700,l),
(513,700,l),
(513,680,l),
(604,650,l)
);
}
);
width = 821;
},
{
anchors = (
{
name = top;
pos = (413,700);
}
);
background = {
shapes = (
{
closed = 1;
nodes = (
(358,0,l),
(358,20,l),
(265,50,l),
(265,648,l),
(358,680,l),
(358,700,l),
(-12,700,l),
(-12,680,l),
(81,650,l),
(81,50,l),
(-12,20,l),
(-12,0,l)
);
},
{
closed = 1;
nodes = (
(838,0,l),
(838,20,l),
(745,50,l),
(745,648,l),
(838,680,l),
(838,700,l),
(468,700,l),
(468,680,l),
(561,650,l),
(561,50,l),
(468,20,l),
(468,0,l)
);
}
);
};
hints = (
{
horizontal = 1;
place = (0, 16);
place = (0, 16);
type = Stem;
},
{
horizontal = 1;
place = (332, 46);
place = (332, 46);
type = Stem;
},
{
horizontal = 1;
place = (684, 16);
place = (684, 16);
type = Stem;
},
{
place = (76, 181);
place = (76, 181);
type = Stem;
},
{
place = (561, 181);
place = (561, 181);
type = Stem;
}
);
layerId = "E0989092-07D5-4BE4-A82B-4E03160A36DB";
shapes = (
{
closed = 1;
nodes = (
(290,0,l),
(294,20,l),
(205,51,l),
(206,48,l),
(262,332,l),
(259,330,l),
(559,330,l),
(558,332,l),
(502,48,l),
(505,51,l),
(404,20,l),
(400,0,l),
(770,0,l),
(774,20,l),
(685,51,l),
(686,48,l),
(803,650,l),
(801,647,l),
(902,680,l),
(906,700,l),
(536,700,l),
(532,680,l),
(621,649,l),
(620,652,l),
(566,378,l),
(569,380,l),
(269,380,l),
(270,378,l),
(323,650,l),
(321,647,l),
(422,680,l),
(426,700,l),
(56,700,l),
(52,680,l),
(141,649,l),
(140,652,l),
(22,48,l),
(25,51,l),
(-76,20,l),
(-80,0,l)
);
}
);
width = 826;
}
);
unicode = 72;
},
{
color = 6;
glyphname = Hbar;
layers = (
{
layerId = m01;
shapes = (
{
closed = 1;
nodes = (
(789,519,l),
(797,559,l),
(79,559,l),
(71,519,l)
);
},
{
ref = H;
}
);
width = 857;
},
{
hints = (
{
horizontal = 1;
place = (0, 16);
place = (0, 16);
type = Stem;
},
{
horizontal = 1;
place = (332, 46);
place = (332, 46);
type = Stem;
},
{
horizontal = 1;
place = (516, 46);
place = (516, 46);
type = Stem;
},
{
horizontal = 1;
place = (684, 16);
place = (684, 16);
type = Stem;
},
{
place = (76, 181);
place = (76, 181);
type = Stem;
},
{
place = (561, 181);
place = (561, 181);
type = Stem;
}
);
layerId = "E0989092-07D5-4BE4-A82B-4E03160A36DB";
shapes = (
{
closed = 1;
nodes = (
(851,499,l),
(863,559,l),
(59,559,l),
(47,499,l)
);
},
{
ref = H;
}
);
width = 826;
}
);
unicode = 294;
},
{
color = 6;
glyphname = I;
layers = (
{
anchors = (
{
name = ogo;
pos = (159,0);
},
{
name = top;
pos = (312,700);
}
);
background = {
shapes = (
{
closed = 0;
nodes = (
(129,50,l),
(36,20,l),
(36,0,l),
(316,0,l),
(316,20,l),
(223,50,l)
);
}
);
};
layerId = m01;
shapes = (
{
closed = 1;
nodes = (
(266,0,l),
(270,20,l),
(183,50,l),
(299,650,l),
(398,680,l),
(402,700,l),
(122,700,l),
(118,680,l),
(205,650,l),
(89,50,l),
(-10,20,l),
(-14,0,l)
);
}
);
width = 352;
},
{
associatedMasterId = m01;
layerId = "49E4F5FA-D472-467A-A455-43EB5AEC2C01";
name = "1. Jan. 24, 20:52";
shapes = (
{
closed = 1;
nodes = (
(214,50,l),
(214,650,l),
(119,650,l),
(119,50,l)
);
},
{
closed = 1;
nodes = (
(308,0,l),
(308,19,l),
(214,50,l),
(119,50,l),
(28,20,l),
(28,0,l)
);
},
{
closed = 1;
nodes = (
(214,650,l),
(308,681,l),
(308,700,l),
(28,700,l),
(28,680,l),
(119,650,l)
);
}
);
width = 336;
},
{
anchors = (
{
name = ogo;
pos = (200,0);
},
{
name = top;
pos = (297,700);
}
);
background = {
anchors = (
{
name = ogonek;
pos = (277,3);
},
{
name = top;
pos = (183,700);
}
);
shapes = (
{
closed = 1;
nodes = (
(373,0,l),
(373,20,l),
(280,50,l),
(280,650,l),
(373,680,l),
(373,700,l),
(3,700,l),
(3,680,l),
(96,650,l),
(96,50,l),
(3,20,l),
(3,0,l)
);
}
);
};
hints = (
{
horizontal = 1;
place = (-68, -52);
place = (-68, -52);
type = Stem;
},
{
horizontal = 1;
place = (620, -56);
place = (620, -56);
type = Stem;
},
{
place = (8, 113);
place = (8, 113);
type = Stem;
}
);
layerId = "E0989092-07D5-4BE4-A82B-4E03160A36DB";
shapes = (
{
closed = 1;
nodes = (
(305,0,l),
(309,20,l),
(222,50,l),
(338,648,l),
(437,680,l),
(441,700,l),
(71,700,l),
(67,680,l),
(154,650,l),
(38,50,l),
(-61,20,l),
(-65,0,l)
);
}
);
width = 376;
}
);
unicode = 73;
},
{
color = 6;
glyphname = J;
layers = (
{
anchors = (
{
name = top;
pos = (305,697);
}
);
layerId = m01;
shapes = (
{
closed = 1;
nodes = (
(-33,-212,o),
(-30,-210,o),
(-28,-208,cs),
(82,-126,o),
(168,-20,o),
(182,50,cs),
(303,668,l),
(281,644,l),
(399,681,l),
(403,700,l),
(123,700,l),
(119,680,l),
(220,644,l),
(208,668,l),
(87,49,ls),
(68,-48,o),
(14,-141,o),
(-44,-180,cs),
(-46,-181,o),
(-49,-183,o),
(-51,-184,c),
(-36,-214,l)
);
}
);
width = 332;
},
{
associatedMasterId = m01;
layerId = "EA68FA7A-9618-49FA-9D4F-F52FF8FE96E9";
name = "1. Jan. 24, 23:36";
shapes = (
{
closed = 1;
nodes = (
(224,50,l),
(224,650,l),
(129,650,l),
(129,50,l)
);
},
{
closed = 1;
nodes = (
(155,-131,o),
(224,-22,o),
(224,50,c),
(129,50,l),
(129,49,ls),
(129,-52,o),
(90,-148,o),
(36,-184,c),
(57,-214,l)
);
},
{
closed = 1;
nodes = (
(224,650,l),
(318,681,l),
(318,700,l),
(38,700,l),
(38,680,l),
(129,650,l)
);
}
);
width = 356;
},
{
anchors = (
{
name = top;
pos = (272,699);
}
);
hints = (
{
horizontal = 1;
place = (640, -28);
place = (640, -28);
type = Stem;
},
{
place = (13, 138);
place = (13, 138);
type = Stem;
}
);
layerId = "E0989092-07D5-4BE4-A82B-4E03160A36DB";
shapes = (
{
closed = 1;
nodes = (
(-98,-248,o),
(-91,-247,o),
(-83,-246,cs),
(63,-222,o),
(186,-99,o),
(215,50,cs),
(332,652,l),
(329,649,l),
(431,680,l),
(435,700,l),
(68,700,l),
(64,680,l),
(151,649,l),
(150,652,l),
(33,49,ls),
(9,-74,o),
(-34,-173,o),
(-71,-190,cs),
(-82,-195,o),
(-96,-200,o),
(-104,-202,c),
(-106,-249,l)
);
}
);
width = 373;
}
);
unicode = 74;
},
{
color = 6;
glyphname = K;
layers = (
{
anchors = (
{
name = com;
pos = (355,-2);
},
{
name = top;
pos = (396,700);
}
);
layerId = m01;
shapes = (
{
closed = 1;
nodes = (
(250,0,l),
(254,19,l),
(160,56,l),
(172,32,l),
(224,300,l),
(205,270,l),
(298,344,l),
(274,346,l),
(477,0,l),
(658,0,l),
(662,19,l),
(568,56,l),
(587,36,l),
(355,414,l),
(355,392,l),
(686,663,l),
(652,645,l),
(780,681,l),
(784,700,l),
(537,700,l),
(533,680,l),
(613,656,l),
(612,674,l),
(219,333,l),
(230,328,l),
(296,668,l),
(274,644,l),
(392,681,l),
(396,700,l),
(116,700,l),
(112,680,l),
(213,644,l),
(201,668,l),
(77,32,l),
(99,56,l),
(-16,20,l),
(-20,0,l)
);
}
);
width = 702;
},
{
anchors = (
{
name = com;
pos = (371,-2);
}
);
associatedMasterId = m01;
layerId = "CC59FA57-BAA4-40BA-AF5D-2647D80AD5E9";
name = "1. Jan. 24, 23:38";
shapes = (
{
closed = 1;
nodes = (
(706,0,l),
(706,19,l),
(622,50,l),
(337,409,l),
(247,356,l),
(525,0,l)
);
},
{
closed = 1;
nodes = (
(298,0,l),
(298,19,l),
(214,50,l),
(119,50,l),
(28,20,l),
(28,0,l)
);
},
{
closed = 1;
nodes = (
(214,50,l),
(214,650,l),
(119,650,l),
(119,50,l)
);
},
{
closed = 1;
nodes = (
(214,650,l),
(308,681,l),
(308,700,l),
(28,700,l),
(28,680,l),
(119,650,l)
);
},
{
closed = 1;
nodes = (
(592,650,l),
(517,661,l),
(179,310,l),
(209,277,l)
);
},
{
closed = 1;
nodes = (
(696,681,l),
(696,700,l),
(449,700,l),
(449,680,l),
(517,661,l),
(592,650,l)
);
}
);
width = 706;
},
{
anchors = (
{
name = com;
pos = (348,-2);
},
{
name = top;
pos = (494,700);
}
);
hints = (
{
horizontal = 1;
place = (0, 16);
place = (0, 16);
type = Stem;
},
{
horizontal = 1;
place = (684, 16);
place = (684, 16);
type = Stem;
},
{
place = (76, 178);
place = (76, 178);
type = Stem;
}
);
layerId = "E0989092-07D5-4BE4-A82B-4E03160A36DB";
shapes = (
{
closed = 1;
nodes = (
(303,0,l),
(307,20,l),
(224,50,l),
(225,47,l),
(271,281,l),
(268,277,l),
(294,300,l),
(291,300,l),
(460,0,l),
(711,0,l),
(715,20,l),
(665,43,l),
(668,40,l),
(432,458,l),
(418,409,l),
(715,653,l),
(710,650,l),
(833,680,l),
(837,700,l),
(554,700,l),
(550,680,l),
(638,669,l),
(638,671,l),
(286,369,l),
(288,369,l),
(343,654,l),
(341,651,l),
(445,680,l),
(449,700,l),
(83,700,l),
(79,680,l),
(161,652,l),
(159,655,l),
(41,45,l),
(43,48,l),
(-49,20,l),
(-53,0,l)
);
}
);
width = 773;
}
);
unicode = 75;
},
{
color = 6;
glyphname = L;
layers = (
{
anchors = (
{
name = cara;
pos = (269,700);
},
{
name = com;
pos = (290,-2);
},
{
name = top;
pos = (390,700);
}
);
layerId = m01;
shapes = (
{
closed = 1;
nodes = (
(534,0,l),
(607,197,l),
(590,204,l),
(468,34,l),
(497,50,l),
(175,50,l),
(189,32,l),
(313,668,l),
(291,644,l),
(409,681,l),
(413,700,l),
(133,700,l),
(129,680,l),
(230,644,l),
(218,668,l),
(94,32,l),
(116,56,l),
(1,20,l),
(-3,0,l)
);
}
);
width = 626;
},
{
anchors = (
{
name = com;
pos = (321,-2);
}
);
associatedMasterId = m01;
layerId = "15B2B194-3F3C-42B8-A99A-468384793481";
name = "1. Jan. 24, 23:40";
shapes = (
{
closed = 1;
nodes = (
(214,50,l),
(214,650,l),
(119,650,l),
(119,50,l)
);
},
{
closed = 1;
nodes = (
(500,0,l),
(500,50,l),
(119,50,l),
(28,20,l),
(28,0,l)
);
},
{
closed = 1;
nodes = (
(565,0,l),
(600,197,l),
(581,204,l),
(500,50,l),
(500,0,l)
);
},
{
closed = 1;
nodes = (
(214,650,l),
(308,681,l),
(308,700,l),
(28,700,l),
(28,680,l),
(119,650,l)
);
}
);
width = 630;
},
{
anchors = (
{
name = cara;
pos = (262,700);
},
{
name = com;
pos = (283,-2);
},
{
name = top;
pos = (381,689);
}
);
hints = (
{
horizontal = 1;
place = (-68, -21);
place = (-68, -21);
type = Stem;
},
{
horizontal = 1;
place = (616, -52);
place = (616, -52);
type = Stem;
},
{
place = (8, 113);
place = (8, 113);
type = Stem;
}
);
layerId = "E0989092-07D5-4BE4-A82B-4E03160A36DB";
shapes = (
{
closed = 1;
nodes = (
(552,0,l),
(625,194,l),
(581,213,l),
(462,48,l),
(466,50,l),
(230,50,l),
(231,48,l),
(349,655,l),
(347,652,l),
(446,684,l),
(449,700,l),
(83,700,l),
(80,683,l),
(167,652,l),
(165,655,l),
(47,45,l),
(49,48,l),
(-49,20,l),
(-53,0,l)
);
}
);
width = 653;
}
);
unicode = 76;
},
{
color = 6;
glyphname = Lslash;
layers = (
{
layerId = m01;
shapes = (
{
closed = 1;
nodes = (
(343,414,l),
(331,453,l),
(19,300,l),
(31,261,l)
);
},
{
pos = (19,0);
ref = L;
}
);
width = 606;
},
{
hints = (
{
horizontal = 1;
place = (0, 47);
place = (0, 47);
type = Stem;
},
{
horizontal = 1;
place = (684, 16);
place = (684, 16);
type = Stem;
},
{
place = (76, 181);
place = (76, 181);
type = Stem;
}
);
layerId = "E0989092-07D5-4BE4-A82B-4E03160A36DB";
shapes = (
{
closed = 1;
nodes = (
(399,426,l),
(382,479,l),
(-9,300,l),
(8,247,l)
);
},
{
ref = L;
}
);
width = 643;
}
);
unicode = 321;
},
{
color = 6;
glyphname = M;
layers = (
{
anchors = (
{
name = top;
pos = (537,667);
}
);
layerId = m01;
shapes = (
{
closed = 1;
nodes = (
(811,604,l),
(804,606,l),
(693,32,l),
(714,56,l),
(599,20,l),
(595,0,l),
(865,0,l),
(869,19,l),
(775,56,l),
(788,32,l),
(911,668,l),
(890,644,l),
(1008,681,l),
(1012,700,l),
(822,700,l),
(445,122,l),
(465,122,l),
(310,700,l),
(135,700,l),
(131,683,l),
(232,644,l),
(219,668,l),
(96,32,l),
(117,56,l),
(2,20,l),
(-2,0,l),
(218,0,l),
(222,19,l),
(128,56,l),
(141,32,l),
(247,580,l),
(239,578,l),
(402,-26,l)
);
}
);
width = 962;
},
{
associatedMasterId = m01;
layerId = "39CD48C5-5A51-4231-9B38-8D14C79DB35E";
name = "1. Jan. 24, 23:44";
shapes = (
{
closed = 1;
nodes = (
(767,700,l),
(715,700,l),
(458,138,l),
(195,700,l),
(100,700,l),
(437,-26,l)
);
},
{
closed = 1;
nodes = (
(248,0,l),
(248,19,l),
(164,50,l),
(119,50,l),
(28,20,l),
(28,0,l)
);
},
{
closed = 1;
nodes = (
(164,50,l),
(164,650,l),
(119,650,l),
(119,50,l)
);
},
{
closed = 1;
nodes = (
(164,650,l),
(164,700,l),
(28,700,l),
(28,683,l),
(119,650,l)
);
},
{
closed = 1;
nodes = (
(895,0,l),
(895,19,l),
(811,50,l),
(716,50,l),
(625,20,l),
(625,0,l)
);
},
{
closed = 1;
nodes = (
(811,50,l),
(811,650,l),
(716,650,l),
(716,50,l)
);
},
{
closed = 1;
nodes = (
(811,650,l),
(905,681,l),
(905,700,l),
(717,700,l),
(716,650,l)
);
}
);
width = 926;
},
{
anchors = (
{
name = top;
pos = (591,667);
}
);
background = {
shapes = (
{
closed = 1;
nodes = (
(687,0,l),
(687,653,l),
(685,650,l),
(780,681,l),
(780,701,l),
(544,701,l),
(544,681,l),
(639,650,l),
(637,653,l),
(637,292,l),
(638,309,l),
(310,700,l),
(16,700,l),
(16,680,l),
(111,649,l),
(109,652,l),
(109,48,l),
(111,51,l),
(16,20,l),
(16,0,l),
(252,0,l),
(252,20,l),
(157,51,l),
(159,48,l),
(159,595,l),
(158,595,l),
(671,-16,l)
);
},
{
closed = 1;
nodes = (
(1020,0,l),
(1020,20,l),
(927,50,l),
(927,648,l),
(1020,680,l),
(1020,700,l),
(650,700,l),
(650,680,l),
(743,650,l),
(743,50,l),
(650,20,l),
(650,0,l)
);
}
);
};
hints = (
{
horizontal = 1;
place = (-66, -50);
place = (-66, -50);
type = Stem;
},
{
horizontal = 1;
place = (620, -52);
place = (620, -52);
type = Stem;
},
{
place = (10, 4);
place = (10, 4);
type = Stem;
},
{
place = (607, 115);
place = (607, 115);
type = Stem;
},
{
horizontal = 1;
place = (618, -50);
place = (618, -50);
type = Stem;
}
);
layerId = "E0989092-07D5-4BE4-A82B-4E03160A36DB";
shapes = (
{
closed = 1;
nodes = (
(792,590,l),
(791,590,l),
(686,48,l),
(688,51,l),
(587,20,l),
(584,0,l),
(954,0,l),
(957,20,l),
(868,51,l),
(870,48,l),
(987,650,l),
(984,647,l),
(1086,680,l),
(1090,700,l),
(813,700,l),
(497,246,l),
(502,246,l),
(383,700,l),
(86,700,l),
(82,680,l),
(171,649,l),
(169,652,l),
(52,49,l),
(55,52,l),
(-47,20,l),
(-50,0,l),
(186,0,l),
(189,20,l),
(100,51,l),
(102,48,l),
(208,596,l),
(207,596,l),
(370,-16,l)
);
}
);
width = 1046;
}
);
unicode = 77;
},
{
color = 6;
glyphname = N;
layers = (
{
anchors = (
{
name = com;
pos = (346,-2);
},
{
name = top;
pos = (508,700);
}
);
background = {
anchors = (
{
name = ogonek;
pos = (264,3);
}
);
};
layerId = m01;
shapes = (
{
closed = 1;
nodes = (
(654,1,l),
(783,668,l),
(762,644,l),
(880,681,l),
(883,700,l),
(653,700,l),
(650,680,l),
(751,644,l),
(738,668,l),
(640,163,l),
(651,167,l),
(306,700,l),
(118,700,l),
(115,680,l),
(216,644,l),
(203,668,l),
(80,32,l),
(101,56,l),
(-14,20,l),
(-18,0,l),
(212,0,l),
(216,19,l),
(112,56,l),
(125,32,l),
(240,625,l),
(227,621,l),
(649,-25,l)
);
}
);
width = 802;
},
{
anchors = (
{
name = com;
pos = (401,-2);
},
{
name = top;
pos = (398,700);
}
);
associatedMasterId = m01;
layerId = "E8A2BD06-0712-47D5-8A4F-C996E068F001";
name = "1. Jan. 24, 23:45";
shapes = (
{
closed = 1;
nodes = (
(679,127,l),
(198,700,l),
(65,700,l),
(679,-25,l)
);
},
{
closed = 1;
nodes = (
(238,0,l),
(238,19,l),
(144,50,l),
(99,50,l),
(8,20,l),
(8,0,l)
);
},
{
closed = 1;
nodes = (
(144,50,l),
(144,650,l),
(99,650,l),
(99,50,l)
);
},
{
closed = 1;
nodes = (
(144,650,l),
(144,700,l),
(8,700,l),
(8,680,l),
(99,650,l)
);
},
{
closed = 1;
nodes = (
(679,120,l),
(679,650,l),
(634,650,l),
(634,120,l)
);
},
{
closed = 1;
nodes = (
(679,650,l),
(773,681,l),
(773,700,l),
(543,700,l),
(543,680,l),
(634,650,l)
);
}
);
width = 781;
},
{
anchors = (
{
name = com;
pos = (299,-2);
},
{
name = top;
pos = (476,700);
}
);
background = {
shapes = (
{
closed = 1;
nodes = (
(683,6,l),
(683,668,l),
(666,644,l),
(777,681,l),
(777,700,l),
(547,700,l),
(547,680,l),
(655,644,l),
(638,668,l),
(638,163,l),
(737,167,l),
(289,700,l),
(12,700,l),
(12,680,l),
(120,644,l),
(103,668,l),
(103,32,l),
(120,56,l),
(12,20,l),
(12,0,l),
(242,0,l),
(242,19,l),
(131,56,l),
(148,32,l),
(148,625,l),
(105,621,l),
(652,-25,l)
);
}
);
};
hints = (
{
horizontal = 1;
place = (-67, -51);
place = (-67, -51);
type = Stem;
},
{
horizontal = 1;
place = (616, -50);
place = (616, -50);
type = Stem;
},
{
place = (20, 20);
place = (20, 20);
type = Stem;
},
{
place = (500, 20);
place = (500, 20);
type = Stem;
}
);
layerId = "E0989092-07D5-4BE4-A82B-4E03160A36DB";
shapes = (
{
closed = 1;
nodes = (
(609,0,l),
(736,653,l),
(734,650,l),
(835,681,l),
(839,701,l),
(603,701,l),
(599,681,l),
(688,650,l),
(686,653,l),
(616,292,l),
(621,313,l),
(373,700,l),
(74,700,l),
(71,680,l),
(160,649,l),
(158,652,l),
(41,48,l),
(43,51,l),
(-58,20,l),
(-62,0,l),
(174,0,l),
(178,20,l),
(89,51,l),
(91,48,l),
(197,595,l),
(196,595,l),
(590,-16,l)
);
}
);
width = 790;
}
);
unicode = 78;
},
{
color = 6;
glyphname = Eng;
layers = (
{
layerId = m01;
shapes = (
{
closed = 1;
nodes = (
(501,115,ls),
(489,54,o),
(456,11,o),
(420,11,cs),
(399,11,o),
(375,32,o),
(363,62,c),
(291,21,l),
(311,1,o),
(355,-14,o),
(397,-14,cs),
(496,-14,o),
(579,54,o),
(598,151,cs),
(667,505,ls),
(690,624,o),
(633,709,o),
(501,709,cs),
(417,709,o),
(342,664,o),
(267,599,c),
(274,590,l),
(296,700,l),
(115,700,l),
(111,680,l),
(212,644,l),
(199,668,l),
(76,32,l),
(97,56,l),
(-18,20,l),
(-22,0,l),
(233,0,l),
(237,19,l),
(154,57,l),
(166,32,l),
(272,579,l),
(258,551,l),
(325,614,o),
(387,658,o),
(460,658,cs),
(557,658,o),
(592,583,o),
(571,477,cs)
);
}
);
width = 722;
},
{
associatedMasterId = m01;
layerId = "0F2D05D5-6E5C-46B9-8B3C-5DD271D069A4";
name = "1. Jan. 24, 21:14";
shapes = (
{
closed = 1;
nodes = (
(223,700,l),
(65,700,l)
);
},
{
closed = 1;
nodes = (
(263,0,l),
(263,19,l),
(189,50,l),
(99,50,l),
(8,20,l),
(8,0,l)
);
},
{
closed = 1;
nodes = (
(189,50,l),
(189,650,l),
(99,650,l),
(99,50,l)
);
},
{
closed = 1;
nodes = (
(189,650,l),
(189,700,l),
(8,700,l),
(8,680,l),
(99,650,l)
);
},
{
closed = 1;
nodes = (
(170,539,l),
(229,609,o),
(285,658,o),
(362,658,cs),
(459,658,o),
(508,583,o),
(508,477,cs),
(508,211,l),
(598,211,l),
(598,505,ls),
(598,624,o),
(525,709,o),
(393,709,cs),
(304,709,o),
(235,659,o),
(170,588,c)
);
},
{
closed = 1;
nodes = (
(508,211,l),
(508,115,l),
(508,54,o),
(483,11,o),
(447,11,cs),
(426,11,o),
(398,32,o),
(380,62,c),
(316,21,l),
(340,1,o),
(387,-14,o),
(429,-14,cs),
(528,-14,o),
(598,54,o),
(598,151,cs),
(598,211,l)
);
}
);
width = 642;
},
{
hints = (
{
horizontal = 1;
place = (-71, -54);
place = (-71, -54);
type = Stem;
},
{
horizontal = 1;
place = (587, -11);
place = (587, -11);
type = Stem;
},
{
place = (88, 108);
place = (88, 108);
type = Stem;
},
{
place = (497, 108);
place = (497, 108);
type = Stem;
},
{
horizontal = 1;
place = (-85, -36);
place = (-85, -36);
type = Stem;
},
{
horizontal = 1;
place = (602, -35);
place = (602, -35);
type = Stem;
}
);
layerId = "E0989092-07D5-4BE4-A82B-4E03160A36DB";
shapes = (
{
closed = 1;
nodes = (
(460,115,ls),
(447,51,o),
(425,19,o),
(422,15,c),
(422,18,o),
(411,34,o),
(391,94,c),
(262,19,l),
(274,6,o),
(341,-17,o),
(398,-17,cs),
(519,-17,o),
(623,51,o),
(643,151,cs),
(712,505,ls),
(736,632,o),
(658,712,o),
(504,712,cs),
(437,712,o),
(378,694,o),
(333,671,c),
(334,670,l),
(333,703,l),
(107,703,l),
(101,670,l),
(155,640,l),
(153,643,l),
(36,41,l),
(39,44,l),
(-60,13,l),
(-63,-3,l),
(245,-3,l),
(248,11,l),
(210,41,l),
(212,38,l),
(316,574,l),
(313,570,l),
(385,634,o),
(421,655,o),
(462,655,cs),
(524,655,o),
(552,591,o),
(530,477,cs)
);
}
);
width = 728;
}
);
unicode = 330;
},
{
color = 6;
glyphname = O;
layers = (
{
anchors = (
{
name = top;
pos = (484,700);
}
);
layerId = m01;
shapes = (
{
closed = 1;
nodes = (
(545,-16,o),
(716,139,o),
(758,357,cs),
(799,567,o),
(687,716,o),
(487,716,cs),
(288,716,o),
(118,563,o),
(76,347,cs),
(35,134,o),
(146,-16,o),
(345,-16,cs)
);
},
{
closed = 1;
nodes = (
(213,25,o),
(150,164,o),
(199,415,cs),
(231,582,o),
(323,675,o),
(456,675,cs),
(620,675,o),
(684,536,o),
(636,286,cs),
(603,118,o),
(510,25,o),
(376,25,cs)
);
}
);
width = 806;
},
{
anchors = (
{
name = top;
pos = (482,700);
}
);
hints = (
{
horizontal = 1;
place = (-86, -24);
place = (-86, -24);
type = Stem;
},
{
horizontal = 1;
place = (605, -23);
place = (605, -23);
type = Stem;
},
{
place = (-76, 127);
place = (-76, 127);
type = Stem;
},
{
place = (495, 127);
place = (495, 127);
type = Stem;
}
);
layerId = "E0989092-07D5-4BE4-A82B-4E03160A36DB";
shapes = (
{
closed = 1;
nodes = (
(568,-16,o),
(757,139,o),
(799,357,cs),
(840,567,o),
(710,716,o),
(485,716,cs),
(261,716,o),
(73,563,o),
(31,347,cs),
(-10,134,o),
(119,-16,o),
(343,-16,cs)
);
},
{
closed = 1;
nodes = (
(239,25,o),
(191,164,o),
(240,415,cs),
(272,582,o),
(349,675,o),
(454,675,cs),
(590,675,o),
(639,536,o),
(591,286,cs),
(558,118,o),
(481,25,o),
(374,25,cs)
);
}
);
width = 840;
}
);
unicode = 79;
},
{
color = 6;
glyphname = Oslash;
layers = (
{
layerId = m01;
shapes = (
{
closed = 1;
nodes = (
(752,726,l),
(721,753,l),
(73,-27,l),
(104,-54,l)
);
},
{
pos = (20,0);
ref = O;
}
);
width = 826;
},
{
hints = (
{
horizontal = 1;
place = (-18, 44);
place = (-18, 44);
type = Stem;
},
{
horizontal = 1;
place = (673, 45);
place = (673, 45);
type = Stem;
},
{
place = (-8, 195);
place = (-8, 195);
type = Stem;
},
{
place = (563, 195);
place = (563, 195);
type = Stem;
}
);
layerId = "E0989092-07D5-4BE4-A82B-4E03160A36DB";
shapes = (
{
closed = 1;
nodes = (
(754,716,l),
(703,763,l),
(55,-17,l),
(106,-64,l)
);
},
{
ref = O;
}
);
width = 830;
}
);
unicode = 216;
},
{
color = 6;
glyphname = OE;
layers = (
{
layerId = m01;
shapes = (
{
closed = 1;
nodes = (
(425,-15,o),
(522,27,o),
(597,99,c),
(591,108,l),
(570,0,l),
(1016,0,l),
(1089,197,l),
(1072,204,l),
(950,34,l),
(979,50,l),
(657,50,l),
(671,32,l),
(735,359,l),
(713,341,l),
(925,341,l),
(905,358,l),
(920,245,l),
(939,245,l),
(983,475,l),
(963,475,l),
(907,364,l),
(933,381,l),
(721,381,l),
(736,363,l),
(795,668,l),
(773,650,l),
(1100,650,l),
(1081,667,l),
(1093,520,l),
(1114,520,l),
(1149,700,l),
(706,700,l),
(686,596,l),
(696,605,l),
(649,675,o),
(567,715,o),
(463,715,cs),
(264,715,o),
(94,563,o),
(52,347,cs),
(11,135,o),
(122,-15,o),
(321,-15,cs)
);
},
{
closed = 1;
nodes = (
(207,583,o),
(299,676,o),
(432,676,cs),
(596,676,o),
(660,537,o),
(612,286,cs),
(579,117,o),
(485,23,o),
(351,23,cs),
(188,23,o),
(126,163,o),
(175,415,cs)
);
}
);
width = 1132;
},
{
associatedMasterId = m01;
layerId = "E029D7F6-61DA-46A0-ABD4-00802109ADA1";
name = "2. Jan. 24, 01:04";
shapes = (
{
closed = 1;
nodes = (
(574,-15,o),
(715,139,o),
(715,357,cs),
(715,567,o),
(574,715,o),
(374,715,cs),
(175,715,o),
(35,563,o),
(35,347,cs),
(35,135,o),
(175,-15,o),
(374,-15,cs)
);
},
{
closed = 1;
nodes = (
(234,23,o),
(144,163,o),
(144,415,cs),
(144,583,o),
(218,676,o),
(351,676,cs),
(515,676,o),
(606,537,o),
(606,286,cs),
(606,117,o),
(531,23,o),
(397,23,cs)
);
},
{
closed = 1;
nodes = (
(1001,0,l),
(1001,50,l),
(620,50,l),
(620,0,l)
);
},
{
closed = 1;
nodes = (
(715,50,l),
(715,650,l),
(620,650,l),
(620,50,l)
);
},
{
closed = 1;
nodes = (
(1066,0,l),
(1101,197,l),
(1082,204,l),
(1001,50,l),
(1001,0,l)
);
},
{
closed = 1;
nodes = (
(941,341,l),
(941,381,l),
(685,381,l),
(685,341,l)
);
},
{
closed = 1;
nodes = (
(941,245,l),
(941,475,l),
(921,475,l),
(891,384,l),
(891,339,l),
(922,245,l)
);
},
{
closed = 1;
nodes = (
(1006,650,l),
(1006,700,l),
(620,700,l),
(620,650,l)
);
},
{
closed = 1;
nodes = (
(1063,520,l),
(1063,700,l),
(1006,700,l),
(1006,650,l),
(1042,520,l)
);
}
);
width = 1146;
},
{
hints = (
{
horizontal = 1;
place = (-86, -24);
place = (-86, -24);
type = Stem;
},
{
horizontal = 1;
place = (270, -22);
place = (270, -22);
type = Stem;
},
{
horizontal = 1;
place = (579, -12);
place = (579, -12);
type = Stem;
},
{
place = (-76, 127);
place = (-76, 127);
type = Stem;
},
{
place = (509, 80);
place = (509, 80);
type = Stem;
},
{
place = (847, -24);
place = (847, -24);
type = Stem;
},
{
place = (982, -12);
place = (982, -12);
type = Stem;
},
{
horizontal = 1;
place = (-71, -12);
place = (-71, -12);
type = Stem;
},
{
place = (495, 94);
place = (495, 94);
type = Stem;
},
{
place = (846, -23);
place = (846, -23);
type = Stem;
},
{
horizontal = 1;
place = (449, 118);
place = (449, 118);
type = Stem;
},
{
horizontal = 1;
place = (605, -23);
place = (605, -23);
type = Stem;
}
);
layerId = "E0989092-07D5-4BE4-A82B-4E03160A36DB";
shapes = (
{
closed = 1;
nodes = (
(386,-18,o),
(460,-3,o),
(525,26,c),
(524,27,l),
(518,-3,l),
(1049,-3,l),
(1122,190,l),
(1090,224,l),
(966,51,l),
(969,53,l),
(675,53,l),
(677,51,l),
(733,340,l),
(731,338,l),
(893,338,l),
(890,340,l),
(904,242,l),
(948,242,l),
(994,478,l),
(949,478,l),
(897,382,l),
(901,384,l),
(740,384,l),
(741,382,l),
(793,649,l),
(791,647,l),
(1085,647,l),
(1082,649,l),
(1092,517,l),
(1148,517,l),
(1185,703,l),
(656,703,l),
(650,674,l),
(651,675,l),
(598,704,o),
(531,718,o),
(456,718,cs),
(239,718,o),
(45,573,o),
(1,347,cs),
(-41,127,o),
(95,-18,o),
(312,-18,cs)
);
},
{
closed = 1;
nodes = (
(244,593,o),
(324,673,o),
(424,673,cs),
(553,673,o),
(611,545,o),
(561,286,cs),
(526,107,o),
(445,26,o),
(344,26,cs),
(216,26,o),
(159,155,o),
(210,415,cs)
);
}
);
width = 1146;
}
);
unicode = 338;
},
{
color = 6;
glyphname = P;
layers = (
{
anchors = (
{
name = top;
pos = (379,700);
}
);
layerId = m01;
shapes = (
{
closed = 1;
nodes = (
(273,0,l),
(277,20,l),
(163,55,l),
(175,32,l),
(231,318,l),
(209,300,l),
(281,300,ls),
(452,300,o),
(576,388,o),
(603,527,cs),
(623,628,o),
(543,700,o),
(409,700,cs),
(119,700,l),
(115,680,l),
(216,644,l),
(204,668,l),
(80,32,l),
(102,56,l),
(-13,20,l),
(-17,0,l)
);
},
{
closed = 1;
nodes = (
(299,668,l),
(277,650,l),
(369,650,ls),
(456,650,o),
(510,586,o),
(492,495,cs),
(474,400,o),
(404,340,o),
(319,340,cs),
(217,340,l),
(232,322,l)
);
}
);
width = 566;
},
{
associatedMasterId = m01;
layerId = "F87AD770-9788-474C-A1D1-0EC9B953AD89";
name = "1. Jan. 24, 23:50";
shapes = (
{
closed = 1;
nodes = (
(439,300,o),
(546,388,o),
(546,527,cs),
(546,628,o),
(452,700,o),
(318,700,c),
(288,650,l),
(375,650,o),
(441,586,o),
(441,495,cs),
(441,400,o),
(383,340,o),
(298,340,c),
(268,300,l)
);
},
{
closed = 1;
nodes = (
(318,0,l),
(318,20,l),
(214,50,l),
(119,50,l),
(28,20,l),
(28,0,l)
);
},
{
closed = 1;
nodes = (
(214,50,l),
(214,650,l),
(119,650,l),
(119,50,l)
);
},
{
closed = 1;
nodes = (
(268,300,l),
(298,340,l),
(184,340,l),
(184,300,l)
);
},
{
closed = 1;
nodes = (
(288,650,l),
(318,700,l),
(28,700,l),
(28,680,l),
(119,650,l)
);
}
);
width = 580;
},
{
anchors = (
{
name = top;
pos = (400,700);
}
);
background = {
shapes = (
{
closed = 1;
nodes = (
(399,0,l),
(399,20,l),
(306,50,l),
(306,648,l),
(399,680,l),
(399,700,l),
(29,700,l),
(29,680,l),
(122,650,l),
(122,50,l),
(29,20,l),
(29,0,l)
);
}
);
};
hints = (
{
horizontal = 1;
place = (-68, -51);
place = (-68, -51);
type = Stem;
},
{
horizontal = 1;
place = (235, -28);
place = (235, -28);
type = Stem;
},
{
horizontal = 1;
place = (585, -21);
place = (585, -21);
type = Stem;
},
{
place = (8, 113);
place = (8, 113);
type = Stem;
},
{
place = (330, 123);
place = (330, 123);
type = Stem;
},
{
horizontal = 1;
place = (615, -51);
place = (615, -51);
type = Stem;
}
);
layerId = "E0989092-07D5-4BE4-A82B-4E03160A36DB";
shapes = (
{
closed = 1;
nodes = (
(331,0,l),
(335,20,l),
(246,51,l),
(247,48,l),
(293,285,l),
(291,283,l),
(319,283,ls),
(496,283,o),
(641,380,o),
(667,517,cs),
(688,624,o),
(593,700,o),
(437,700,cs),
(97,700,l),
(93,680,l),
(182,649,l),
(181,652,l),
(63,48,l),
(66,51,l),
(-35,20,l),
(-39,0,l)
);
},
{
closed = 1;
nodes = (
(365,655,l),
(363,653,l),
(391,653,ls),
(457,653,o),
(489,583,o),
(470,485,cs),
(452,390,o),
(397,323,o),
(337,323,cs),
(299,323,l),
(300,321,l)
);
}
);
width = 653;
}
);
unicode = 80;
},
{
color = 6;
glyphname = Thorn;
layers = (
{
layerId = m01;
shapes = (
{
closed = 1;
nodes = (
(248,0,l),
(252,19,l),
(148,56,l),
(158,32,l),
(186,173,l),
(166,155,l),
(228,155,ls),
(399,155,o),
(523,243,o),
(550,382,cs),
(570,483,o),
(489,553,o),
(355,553,cs),
(243,553,l),
(256,535,l),
(282,668,l),
(262,644,l),
(380,681,l),
(384,700,l),
(104,700,l),
(100,680,l),
(201,644,l),
(189,668,l),
(65,32,l),
(87,56,l),
(-28,20,l),
(-32,0,l)
);
},
{
closed = 1;
nodes = (
(254,526,l),
(235,508,l),
(317,508,ls),
(404,508,o),
(467,441,o),
(449,350,cs),
(431,255,o),
(351,195,o),
(266,195,cs),
(174,195,l),
(186,177,l)
);
}
);
width = 576;
},
{
associatedMasterId = m01;
layerId = "E0FA7AEA-EC98-4066-82B2-3166E7021F5A";
name = "1. Jan. 24, 23:51";
shapes = (
{
closed = 1;
nodes = (
(439,155,o),
(546,243,o),
(546,382,cs),
(546,483,o),
(452,555,o),
(318,553,c),
(288,508,l),
(375,505,o),
(441,441,o),
(441,350,cs),
(441,255,o),
(383,195,o),
(298,195,c),
(268,155,l)
);
},
{
closed = 1;
nodes = (
(318,0,l),
(318,19,l),
(224,50,l),
(129,50,l),
(38,20,l),
(38,0,l)
);
},
{
closed = 1;
nodes = (
(268,155,l),
(298,195,l),
(184,195,l),
(184,155,l)
);
},
{
closed = 1;
nodes = (
(224,50,l),
(224,650,l),
(129,650,l),
(129,50,l)
);
},
{
closed = 1;
nodes = (
(288,508,l),
(318,553,l),
(184,553,l),
(184,508,l)
);
},
{
closed = 1;
nodes = (
(224,650,l),
(318,681,l),
(318,700,l),
(38,700,l),
(38,680,l),
(129,650,l)
);
}
);
width = 600;
},
{
hints = (
{
horizontal = 1;
place = (-71, -53);
place = (-71, -53);
type = Stem;
},
{
horizontal = 1;
place = (84, -22);
place = (84, -22);
type = Stem;
},
{
horizontal = 1;
place = (437, -17);
place = (437, -17);
type = Stem;
},
{
horizontal = 1;
place = (620, -53);
place = (620, -53);
type = Stem;
},
{
place = (18, 108);
place = (18, 108);
type = Stem;
},
{
place = (323, 130);
place = (323, 130);
type = Stem;
}
);
layerId = "E0989092-07D5-4BE4-A82B-4E03160A36DB";
shapes = (
{
closed = 1;
nodes = (
(282,-3,l),
(285,12,l),
(191,49,l),
(193,46,l),
(214,154,l),
(212,152,l),
(222,152,ls),
(431,152,o),
(556,231,o),
(585,382,cs),
(606,488,o),
(525,556,o),
(351,556,cs),
(290,556,l),
(292,554,l),
(311,654,l),
(309,651,l),
(417,688,l),
(420,703,l),
(54,703,l),
(51,687,l),
(137,653,l),
(135,656,l),
(17,44,l),
(19,47,l),
(-81,13,l),
(-84,-3,l)
);
},
{
closed = 1;
nodes = (
(283,507,l),
(280,505,l),
(305,505,ls),
(380,505,o),
(404,469,o),
(381,350,cs),
(357,228,o),
(335,198,o),
(261,198,cs),
(220,198,l),
(222,196,l)
);
}
);
width = 597;
}
);
unicode = 222;
},
{
color = 6;
glyphname = Q;
layers = (
{
background = {
shapes = (
{
closed = 1;
nodes = (
(584,-15,o),
(725,139,o),
(725,357,cs),
(725,567,o),
(584,715,o),
(384,715,cs),
(185,715,o),
(45,563,o),
(45,347,cs),
(45,135,o),
(185,-15,o),
(384,-15,cs)
);
},
{
closed = 1;
nodes = (
(244,23,o),
(154,163,o),
(154,415,cs),
(154,583,o),
(228,676,o),
(361,676,cs),
(525,676,o),
(616,537,o),
(616,286,cs),
(616,117,o),
(541,23,o),
(407,23,cs)
);
}
);
};
layerId = m01;
shapes = (
{
closed = 1;
nodes = (
(661,-129,l),
(665,-110,l),
(613,-92,ls),
(584,-82,o),
(557,-67,o),
(547,-56,cs),
(466,31,l),
(464,9,l),
(602,45,o),
(723,189,o),
(755,357,cs),
(796,567,o),
(684,716,o),
(484,716,cs),
(285,716,o),
(115,563,o),
(73,347,cs),
(31,128,o),
(149,-22,o),
(359,-15,c),
(333,-4,l),
(480,-129,l)
);
},
{
closed = 1;
nodes = (
(209,23,o),
(147,163,o),
(196,415,cs),
(228,583,o),
(320,675,o),
(453,675,cs),
(617,675,o),
(681,537,o),
(633,286,cs),
(600,117,o),
(506,23,o),
(372,23,cs)
);
}
);
width = 796;
},
{
associatedMasterId = m01;
background = {
shapes = (
{
closed = 1;
nodes = (
(584,715,o),
(725,567,o),
(725,357,cs),
(725,139,o),
(584,-15,o),
(384,-15,cs),
(185,-15,o),
(45,135,o),
(45,347,cs),
(45,563,o),
(185,715,o),
(384,715,cs)
);
},
{
closed = 1;
nodes = (
(228,676,o),
(154,583,o),
(154,415,cs),
(154,163,o),
(244,23,o),
(407,23,cs),
(541,23,o),
(616,117,o),
(616,286,cs),
(616,537,o),
(525,676,o),
(361,676,cs)
);
}
);
};
layerId = "CD80C9CB-C6C2-4A56-9AD6-E0D283AD5534";
name = "2. Jan. 24, 00:43";
shapes = (
{
closed = 1;
nodes = (
(574,-15,o),
(715,139,o),
(715,357,cs),
(715,567,o),
(574,715,o),
(374,715,cs),
(175,715,o),
(35,563,o),
(35,347,cs),
(35,135,o),
(175,-15,o),
(374,-15,cs)
);
},
{
closed = 1;
nodes = (
(715,-140,l),
(715,-121,l),
(660,-103,ls),
(631,-93,o),
(609,-86,o),
(587,-67,cs),
(493,16,l),
(362,-4,l),
(534,-140,l)
);
},
{
closed = 1;
nodes = (
(234,23,o),
(144,163,o),
(144,415,cs),
(144,583,o),
(218,676,o),
(351,676,cs),
(515,676,o),
(606,537,o),
(606,286,cs),
(606,117,o),
(531,23,o),
(397,23,cs)
);
}
);
width = 750;
},
{
background = {
shapes = (
{
closed = 1;
nodes = (
(639,-16,o),
(798,139,o),
(798,357,cs),
(798,567,o),
(639,716,o),
(414,716,cs),
(190,716,o),
(32,563,o),
(32,347,cs),
(32,134,o),
(190,-16,o),
(414,-16,cs)
);
},
{
closed = 1;
nodes = (
(302,25,o),
(227,164,o),
(227,415,cs),
(227,582,o),
(286,675,o),
(391,675,cs),
(527,675,o),
(603,536,o),
(603,286,cs),
(603,118,o),
(544,25,o),
(437,25,cs)
);
}
);
};
hints = (
{
horizontal = 1;
place = (-199, -41);
place = (-199, -41);
type = Stem;
},
{
horizontal = 1;
place = (617, -11);
place = (617, -11);
type = Stem;
},
{
place = (-64, 139);
place = (-64, 139);
type = Stem;
},
{
place = (507, 139);
place = (507, 139);
type = Stem;
}
);
layerId = "E0989092-07D5-4BE4-A82B-4E03160A36DB";
shapes = (
{
closed = 1;
nodes = (
(715,-143,l),
(718,-123,l),
(638,-100,ls),
(625,-96,o),
(604,-81,o),
(587,-64,cs),
(513,15,l),
(514,13,l),
(657,55,o),
(781,197,o),
(812,357,cs),
(853,568,o),
(722,716,o),
(497,716,cs),
(273,716,o),
(86,564,o),
(44,347,cs),
(5,149,o),
(124,0,o),
(332,-11,c),
(328,-10,l),
(464,-143,l)
);
},
{
closed = 1;
nodes = (
(251,25,o),
(203,165,o),
(252,415,cs),
(284,581,o),
(362,675,o),
(467,675,cs),
(603,675,o),
(651,535,o),
(603,286,cs),
(570,119,o),
(493,25,o),
(386,25,cs)
);
}
);
width = 850;
}
);
unicode = 81;
},
{
color = 6;
glyphname = R;
layers = (
{
anchors = (
{
name = com;
pos = (251,-2);
},
{
name = top;
pos = (428,700);
}
);
layerId = m01;
shapes = (
{
closed = 1;
nodes = (
(268,0,l),
(272,20,l),
(158,55,l),
(170,32,l),
(226,318,l),
(204,300,l),
(343,300,l),
(319,316,l),
(459,0,l),
(631,0,l),
(635,19,l),
(594,35,ls),
(564,47,o),
(551,63,o),
(537,91,cs),
(416,335,l),
(410,316,l),
(512,347,o),
(589,426,o),
(608,527,cs),
(628,628,o),
(548,700,o),
(414,700,cs),
(114,700,l),
(110,680,l),
(211,644,l),
(199,668,l),
(75,32,l),
(97,56,l),
(-18,20,l),
(-22,0,l)
);
},
{
closed = 1;
nodes = (
(294,668,l),
(272,650,l),
(374,650,ls),
(461,650,o),
(510,586,o),
(492,495,cs),
(474,404,o),
(413,340,o),
(344,340,cs),
(212,340,l),
(227,322,l)
);
}
);
width = 646;
},
{
anchors = (
{
name = com;
pos = (351,-2);
},
{
name = top;
pos = (294,700);
}
);
associatedMasterId = m01;
layerId = "8EE325DB-C90E-4465-8EBF-5D3FDAB11B02";
name = "1. Jan. 24, 23:51";
shapes = (
{
closed = 1;
nodes = (
(681,0,l),
(681,19,l),
(632,35,ls),
(600,45,o),
(583,63,o),
(564,91,cs),
(400,336,l),
(308,316,l),
(509,0,l)
);
},
{
closed = 1;
nodes = (
(318,0,l),
(318,20,l),
(214,50,l),
(119,50,l),
(28,20,l),
(28,0,l)
);
},
{
closed = 1;
nodes = (
(214,50,l),
(214,650,l),
(119,650,l),
(119,50,l)
);
},
{
closed = 1;
nodes = (
(298,300,l),
(328,340,l),
(184,340,l),
(184,300,l)
);
},
{
closed = 1;
nodes = (
(298,650,l),
(328,700,l),
(28,700,l),
(28,680,l),
(119,650,l)
);
},
{
closed = 1;
nodes = (
(449,300,o),
(556,394,o),
(556,527,cs),
(556,628,o),
(462,700,o),
(328,700,c),
(298,650,l),
(385,650,o),
(446,586,o),
(446,495,cs),
(446,404,o),
(397,340,o),
(328,340,c),
(298,300,l)
);
}
);
width = 650;
},
{
anchors = (
{
name = com;
pos = (320,0);
},
{
name = top;
pos = (436,700);
}
);
background = {
shapes = (
{
closed = 1;
nodes = (
(388,0,l),
(388,20,l),
(293,51,l),
(295,48,l),
(295,305,l),
(293,303,l),
(341,303,ls),
(518,303,o),
(644,396,o),
(644,527,cs),
(644,628,o),
(534,700,o),
(378,700,cs),
(18,700,l),
(18,680,l),
(113,649,l),
(111,652,l),
(111,48,l),
(113,51,l),
(18,20,l),
(18,0,l)
);
},
{
closed = 1;
nodes = (
(295,655,l),
(293,653,l),
(341,653,ls),
(407,653,o),
(453,588,o),
(453,495,cs),
(453,406,o),
(411,343,o),
(351,343,cs),
(293,343,l),
(295,341,l)
);
}
);
};
hints = (
{
horizontal = 1;
place = (-68, -51);
place = (-68, -51);
type = Stem;
},
{
horizontal = 1;
place = (229, -22);
place = (229, -22);
type = Stem;
},
{
horizontal = 1;
place = (585, -21);
place = (585, -21);
type = Stem;
},
{
place = (8, 113);
place = (8, 113);
type = Stem;
},
{
horizontal = 1;
place = (-68, -52);
place = (-68, -52);
type = Stem;
},
{
place = (335, 128);
place = (335, 128);
type = Stem;
},
{
horizontal = 1;
place = (619, -55);
place = (619, -55);
type = Stem;
}
);
layerId = "E0989092-07D5-4BE4-A82B-4E03160A36DB";
shapes = (
{
closed = 1;
nodes = (
(320,0,l),
(324,20,l),
(235,51,l),
(236,48,l),
(288,313,l),
(274,303,l),
(313,303,l),
(302,312,l),
(444,0,l),
(697,0,l),
(700,16,l),
(675,23,ls),
(662,27,o),
(642,56,o),
(624,93,cs),
(498,352,l),
(486,331,l),
(581,357,o),
(661,438,o),
(678,527,cs),
(698,628,o),
(598,700,o),
(436,700,cs),
(86,700,l),
(82,680,l),
(171,649,l),
(170,652,l),
(52,48,l),
(55,51,l),
(-46,20,l),
(-50,0,l)
);
},
{
closed = 1;
nodes = (
(354,655,l),
(351,650,l),
(405,650,ls),
(467,650,o),
(499,586,o),
(481,495,cs),
(464,407,o),
(411,344,o),
(353,344,cs),
(292,344,l),
(293,342,l)
);
}
);
width = 733;
}
);
unicode = 82;
},
{
color = 6;
glyphname = S;
layers = (
{
anchors = (
{
name = ced;
pos = (211,0);
},
{
name = com;
pos = (211,-2);
},
{
name = top;
pos = (349,700);
}
);
layerId = m01;
shapes = (
{
closed = 1;
nodes = (
(340,-16,o),
(449,66,o),
(472,183,cs),
(489,273,o),
(405,338,o),
(325,401,cs),
(253,458,o),
(183,512,o),
(196,574,cs),
(208,637,o),
(270,682,o),
(345,682,cs),
(413,682,o),
(465,614,o),
(472,518,c),
(500,518,l),
(528,662,l),
(501,694,o),
(428,716,o),
(351,716,cs),
(222,716,o),
(116,639,o),
(95,529,cs),
(78,442,o),
(170,370,o),
(254,301,cs),
(326,243,o),
(395,190,o),
(385,138,cs),
(371,68,o),
(301,18,o),
(215,18,cs),
(137,18,o),
(81,92,o),
(77,197,c),
(48,197,l),
(6,44,l),
(54,9,o),
(138,-16,o),
(209,-16,cs)
);
}
);
width = 534;
},
{
anchors = (
{
name = ced;
pos = (271,0);
},
{
name = com;
pos = (271,-2);
},
{
name = top;
pos = (273,700);
}
);
associatedMasterId = m01;
layerId = "81631164-83AA-4D73-9C19-4A915934467F";
name = "1. Jan. 24, 23:55";
shapes = (
{
closed = 1;
nodes = (
(403,-16,o),
(496,66,o),
(496,183,cs),
(496,347,o),
(144,442,o),
(144,574,cs),
(144,637,o),
(197,682,o),
(272,682,cs),
(340,682,o),
(406,614,o),
(431,518,c),
(459,518,l),
(459,662,l),
(426,694,o),
(349,716,o),
(272,716,cs),
(143,716,o),
(52,639,o),
(52,529,cs),
(52,375,o),
(418,250,o),
(418,138,cs),
(418,68,o),
(358,18,o),
(272,18,cs),
(194,18,o),
(123,92,o),
(99,197,c),
(70,197,l),
(57,44,l),
(112,9,o),
(201,-16,o),
(272,-16,cs)
);
}
);
width = 548;
},
{
anchors = (
{
name = ced;
pos = (203,0);
},
{
name = com;
pos = (208,-2);
},
{
name = top;
pos = (386,700);
}
);
hints = (
{
horizontal = 1;
place = (-87, -28);
place = (-87, -28);
type = Stem;
},
{
horizontal = 1;
place = (611, -28);
place = (611, -28);
type = Stem;
},
{
place = (-59, 110);
place = (-59, 110);
type = Stem;
},
{
place = (307, 96);
place = (307, 96);
type = Stem;
},
{
place = (355, 11);
place = (355, 11);
type = Stem;
}
);
layerId = "E0989092-07D5-4BE4-A82B-4E03160A36DB";
shapes = (
{
closed = 1;
nodes = (
(386,-16,o),
(513,66,o),
(536,183,cs),
(552,270,o),
(473,333,o),
(395,396,cs),
(321,453,o),
(246,505,o),
(260,574,cs),
(271,634,o),
(314,676,o),
(364,676,cs),
(469,676,o),
(511,609,o),
(493,515,c),
(563,515,l),
(589,647,l),
(550,687,o),
(460,716,o),
(372,716,cs),
(218,716,o),
(94,639,o),
(73,529,cs),
(57,447,o),
(140,377,o),
(224,311,cs),
(301,250,o),
(374,195,o),
(363,138,cs),
(350,71,o),
(298,24,o),
(238,24,cs),
(124,24,o),
(77,97,o),
(97,200,c),
(27,200,l),
(-14,54,l),
(21,13,o),
(123,-16,o),
(230,-16,cs)
);
}
);
width = 596;
}
);
unicode = 83;
},
{
color = 6;
glyphname = Saltillo;
layers = (
{
layerId = m01;
shapes = (
{
closed = 1;
nodes = (
(148,415,l),
(214,700,l),
(132,700,l),
(86,415,l)
);
}
);
width = 280;
},
{
layerId = "E0989092-07D5-4BE4-A82B-4E03160A36DB";
shapes = (
{
closed = 1;
nodes = (
(128,395,l),
(198,700,l),
(96,700,l),
(46,395,l)
);
}
);
width = 234;
}
);
unicode = 42891;
},
{
color = 6;
glyphname = Germandbls;
layers = (
{
layerId = m01;
shapes = (
{
closed = 1;
nodes = (
(465,-16,o),
(541,77,o),
(562,180,cs),
(584,296,o),
(512,311,o),
(458,348,cs),
(422,373,o),
(393,404,o),
(400,440,cs),
(407,477,o),
(441,495,o),
(480,517,cs),
(537,548,o),
(599,587,o),
(627,700,c),
(120,700,l),
(116,680,l),
(217,644,l),
(204,668,l),
(81,32,l),
(102,56,l),
(-13,20,l),
(-16,0,l),
(168,0,l),
(297,668,l),
(278,650,l),
(536,650,l),
(520,665,l),
(522,595,o),
(472,557,o),
(426,519,cs),
(385,484,o),
(324,450,o),
(312,390,cs),
(298,315,o),
(380,261,o),
(436,229,cs),
(477,204,o),
(510,168,o),
(503,130,cs),
(488,56,o),
(443,19,o),
(389,19,cs),
(352,19,o),
(321,47,o),
(304,139,c),
(283,139,l),
(262,34,l),
(281,5,o),
(332,-16,o),
(382,-16,cs)
);
}
);
width = 616;
},
{
associatedMasterId = m01;
layerId = "5F037B64-807D-4008-80E9-3713EBE27D4E";
name = "1. Jan. 24, 23:57";
shapes = (
{
closed = 1;
nodes = (
(527,-16,o),
(585,57,o),
(585,160,cs),
(585,355,o),
(373,350,o),
(373,440,cs),
(373,529,o),
(549,509,o),
(559,699,c),
(447,676,l),
(477,531,o),
(315,519,o),
(315,390,cs),
(315,225,o),
(536,230,o),
(536,140,cs),
(536,66,o),
(498,19,o),
(444,19,cs),
(407,19,o),
(370,47,o),
(352,94,cs),
(335,139,l),
(317,139,l),
(311,34,l),
(339,5,o),
(394,-16,o),
(444,-16,cs)
);
},
{
closed = 1;
nodes = (
(218,0,l),
(218,50,l),
(123,50,l),
(32,20,l),
(32,0,l)
);
},
{
closed = 1;
nodes = (
(218,50,l),
(218,650,l),
(123,650,l),
(123,50,l)
);
},
{
closed = 1;
nodes = (
(529,650,l),
(559,700,l),
(32,700,l),
(32,680,l),
(123,650,l)
);
}
);
width = 600;
},
{
layerId = "E0989092-07D5-4BE4-A82B-4E03160A36DB";
shapes = (
{
closed = 1;
nodes = (
(499,-16,o),
(578,47,o),
(597,147,cs),
(621,269,o),
(558,318,o),
(505,348,cs),
(466,371,o),
(433,394,o),
(442,440,cs),
(451,485,o),
(483,498,o),
(524,515,cs),
(579,536,o),
(653,564,o),
(682,700,c),
(59,700,l),
(56,687,l),
(142,653,l),
(141,656,l),
(22,45,l),
(25,48,l),
(-74,17,l),
(-77,0,l),
(190,0,l),
(317,655,l),
(314,653,l),
(513,653,l),
(512,655,l),
(513,584,o),
(482,564,o),
(412,514,cs),
(375,484,o),
(313,452,o),
(301,390,cs),
(279,277,o),
(331,254,o),
(387,224,cs),
(431,202,o),
(492,153,o),
(483,107,cs),
(467,23,o),
(409,22,o),
(389,22,cs),
(377,22,o),
(284,30,o),
(303,142,c),
(257,142,l),
(239,47,l),
(229,23,o),
(302,-16,o),
(381,-16,cs)
);
}
);
width = 620;
}
);
unicode = 7838;
},
{
color = 6;
glyphname = T;
layers = (
{
anchors = (
{
name = ced;
pos = (295,0);
},
{
name = com;
pos = (295,-2);
},
{
name = top;
pos = (423,700);
}
);
background = {
shapes = (
{
closed = 1;
nodes = (
(115,612,ls),
(130,640,o),
(135,657,o),
(135,675,cs),
(135,691,o),
(123,700,o),
(103,700,cs),
(82,700,o),
(66,679,o),
(59,640,cs),
(46,564,ls),
(39,524,o),
(39,502,o),
(45,500,cs),
(51,498,o),
(64,514,o),
(83,551,cs)
);
}
);
};
layerId = m01;
shapes = (
{
closed = 1;
nodes = (
(428,0,l),
(432,19,l),
(338,56,l),
(350,32,l),
(475,676,l),
(452,650,l),
(650,650,l),
(627,666,l),
(682,500,l),
(703,500,l),
(708,700,l),
(155,700,l),
(82,500,l),
(103,500,l),
(222,666,l),
(193,650,l),
(393,650,l),
(379,668,l),
(255,32,l),
(277,56,l),
(162,20,l),
(158,0,l)
);
}
);
width = 687;
},
{
anchors = (
{
name = ced;
pos = (335,0);
},
{
name = com;
pos = (335,-2);
},
{
name = top;
pos = (327,700);
}
);
associatedMasterId = m01;
background = {
shapes = (
{
closed = 1;
nodes = (
(105,612,ls),
(120,640,o),
(125,657,o),
(125,675,cs),
(125,691,o),
(113,700,o),
(93,700,cs),
(72,700,o),
(56,679,o),
(49,640,cs),
(36,564,ls),
(29,524,o),
(29,502,o),
(35,500,cs),
(41,498,o),
(54,514,o),
(73,551,cs)
);
}
);
};
layerId = "48D25F69-1500-4DA1-829A-E991BACADBF6";
name = "2. Jan. 24, 00:02";
shapes = (
{
closed = 1;
nodes = (
(384,50,l),
(384,650,l),
(289,650,l),
(289,50,l)
);
},
{
closed = 1;
nodes = (
(468,0,l),
(468,19,l),
(384,50,l),
(289,50,l),
(198,20,l),
(198,0,l)
);
},
{
closed = 1;
nodes = (
(46,500,l),
(151,700,l),
(59,700,l),
(25,500,l)
);
},
{
closed = 1;
nodes = (
(612,650,l),
(612,700,l),
(59,700,l),
(59,650,l)
);
},
{
closed = 1;
nodes = (
(646,500,l),
(612,700,l),
(520,700,l),
(625,500,l)
);
}
);
width = 671;
},
{
anchors = (
{
name = ced;
pos = (289,0);
},
{
name = com;
pos = (290,-2);
},
{
name = top;
pos = (425,700);
}
);
hints = (
{
horizontal = 1;
place = (-68, -52);
place = (-68, -52);
type = Stem;
},
{
horizontal = 1;
place = (579, -15);
place = (579, -15);
type = Stem;
},
{
place = (111, 114);
place = (111, 114);
type = Stem;
},
{
horizontal = 1;
place = (429, 135);
place = (429, 135);
type = Stem;
}
);
layerId = "E0989092-07D5-4BE4-A82B-4E03160A36DB";
shapes = (
{
closed = 1;
nodes = (
(474,0,l),
(478,20,l),
(389,51,l),
(390,48,l),
(508,652,l),
(505,650,l),
(624,650,l),
(622,652,l),
(674,500,l),
(704,500,l),
(707,700,l),
(143,700,l),
(68,500,l),
(98,500,l),
(210,652,l),
(206,650,l),
(325,650,l),
(324,652,l),
(206,48,l),
(209,51,l),
(108,20,l),
(104,0,l)
);
}
);
width = 694;
}
);
unicode = 84;
},
{
color = 6;
glyphname = U;
layers = (
{
anchors = (
{
name = ogo;
pos = (332,0);
},
{
name = top;
pos = (487,700);
}
);
layerId = m01;
shapes = (
{
closed = 1;
nodes = (
(484,-15,o),
(612,87,o),
(640,230,cs),
(725,668,l),
(704,644,l),
(822,681,l),
(825,700,l),
(590,700,l),
(587,680,l),
(688,644,l),
(675,668,l),
(586,210,ls),
(567,113,o),
(475,44,o),
(363,44,cs),
(252,44,o),
(190,129,o),
(214,250,cs),
(295,668,l),
(274,644,l),
(392,681,l),
(395,700,l),
(115,700,l),
(112,680,l),
(213,644,l),
(200,668,l),
(115,230,ls),
(87,87,o),
(177,-15,o),
(330,-15,cs)
);
}
);
width = 752;
},
{
anchors = (
{
name = ogo;
pos = (371,0);
},
{
name = top;
pos = (390,700);
}
);
associatedMasterId = m01;
layerId = "C9F274BC-9739-450A-90AE-ADDF7D885A0A";
name = "2. Jan. 24, 00:06";
shapes = (
{
closed = 1;
nodes = (
(525,-15,o),
(634,87,o),
(634,230,c),
(584,210,l),
(584,113,o),
(505,44,o),
(393,44,cs),
(282,44,o),
(204,129,o),
(204,250,c),
(109,230,l),
(109,87,o),
(218,-15,o),
(371,-15,cs)
);
},
{
closed = 1;
nodes = (
(204,250,l),
(204,650,l),
(109,650,l),
(109,230,l)
);
},
{
closed = 1;
nodes = (
(204,650,l),
(298,681,l),
(298,700,l),
(18,700,l),
(18,680,l),
(109,650,l)
);
},
{
closed = 1;
nodes = (
(634,230,l),
(634,650,l),
(584,650,l),
(584,210,l)
);
},
{
closed = 1;
nodes = (
(634,650,l),
(728,681,l),
(728,700,l),
(493,700,l),
(493,680,l),
(584,650,l)
);
}
);
width = 746;
},
{
anchors = (
{
name = ogo;
pos = (288,0);
},
{
name = top;
pos = (488,700);
}
);
background = {
shapes = (
{
closed = 0;
nodes = (
(637,648,l),
(730,680,l),
(730,700,l),
(360,700,l),
(360,680,l),
(453,650,l)
);
}
);
};
hints = (
{
horizontal = 1;
place = (-84, -1);
place = (-84, -1);
type = Stem;
},
{
horizontal = 1;
place = (618, -50);
place = (618, -50);
type = Stem;
},
{
place = (-17, 116);
place = (-17, 116);
type = Stem;
},
{
place = (491, 4);
place = (491, 4);
type = Stem;
}
);
layerId = "E0989092-07D5-4BE4-A82B-4E03160A36DB";
shapes = (
{
closed = 1;
nodes = (
(462,-16,o),
(587,85,o),
(615,228,cs),
(697,650,l),
(694,647,l),
(796,680,l),
(800,700,l),
(564,700,l),
(560,680,l),
(649,649,l),
(647,652,l),
(558,193,ls),
(542,109,o),
(455,49,o),
(349,49,cs),
(265,49,o),
(221,128,o),
(243,240,cs),
(323,650,l),
(320,647,l),
(422,680,l),
(426,700,l),
(56,700,l),
(52,680,l),
(141,649,l),
(139,652,l),
(52,202,ls),
(27,74,o),
(135,-16,o),
(314,-16,cs)
);
}
);
width = 736;
}
);
unicode = 85;
},
{
color = 6;
glyphname = V;
layers = (
{
anchors = (
{
name = top;
pos = (453,700);
}
);
background = {
shapes = (
{
closed = 1;
nodes = (
(69,660,l),
(310,-10,l),
(409,10,l),
(168,660,l)
);
}
);
};
layerId = m01;
shapes = (
{
closed = 1;
nodes = (
(310,0,l),
(688,667,l),
(660,644,l),
(778,681,l),
(782,700,l),
(544,700,l),
(540,680,l),
(641,644,l),
(635,667,l),
(330,127,l),
(335,127,l),
(238,667,l),
(220,644,l),
(338,681,l),
(342,700,l),
(55,700,l),
(51,680,l),
(152,644,l),
(134,667,l),
(259,-10,l)
);
}
);
width = 653;
},
{
associatedMasterId = m01;
background = {
shapes = (
{
closed = 1;
nodes = (
(101,660,l),
(342,-10,l),
(441,10,l),
(200,660,l)
);
}
);
};
layerId = "2DF3106B-5057-4E46-8347-DDA87B063409";
name = "2. Jan. 24, 00:09";
shapes = (
{
closed = 1;
nodes = (
(391,0,l),
(633,650,l),
(580,650,l),
(392,144,l),
(195,650,l),
(91,650,l),
(342,-10,l)
);
},
{
closed = 1;
nodes = (
(195,650,l),
(289,681,l),
(289,700,l),
(0,700,l),
(0,680,l),
(91,650,l)
);
},
{
closed = 1;
nodes = (
(633,650,l),
(727,681,l),
(727,700,l),
(489,700,l),
(489,680,l),
(580,650,l)
);
}
);
width = 727;
},
{
anchors = (
{
name = top;
pos = (429,700);
}
);
background = {
shapes = (
{
closed = 1;
nodes = (
(681,700,l),
(424,700,l),
(424,680,l),
(537,643,l),
(536,652,l),
(463,460,l),
(568,462,l),
(271,462,l),
(274,460,l),
(202,652,l),
(201,649,l),
(296,680,l),
(296,700,l),
(-74,700,l),
(-74,680,l),
(8,653,l),
(5,656,l),
(252,-15,l),
(343,0,l),
(589,652,l),
(586,649,l),
(681,680,l)
);
},
{
closed = 1;
nodes = (
(552,422,l),
(449,424,l),
(310,52,l),
(426,52,l),
(288,424,l),
(287,422,l)
);
}
);
};
hints = (
{
horizontal = 1;
place = (617, -51);
place = (617, -51);
type = Stem;
},
{
place = (-144, 684);
place = (-144, 684);
type = Stem;
}
);
layerId = "E0989092-07D5-4BE4-A82B-4E03160A36DB";
shapes = (
{
closed = 1;
nodes = (
(276,0,l),
(649,652,l),
(646,649,l),
(747,680,l),
(750,700,l),
(493,700,l),
(490,680,l),
(593,643,l),
(593,646,l),
(337,201,l),
(341,201,l),
(262,652,l),
(261,649,l),
(362,680,l),
(365,700,l),
(-5,700,l),
(-8,680,l),
(68,653,l),
(66,656,l),
(183,-15,l)
);
}
);
width = 619;
}
);
unicode = 86;
},
{
color = 6;
glyphname = W;
layers = (
{
anchors = (
{
name = top;
pos = (629,700);
}
);
background = {
shapes = (
{
closed = 0;
nodes = (
(330,-35,l),
(637,733,l)
);
},
{
closed = 0;
nodes = (
(391,-45,l),
(698,723,l)
);
},
{
closed = 0;
nodes = (
(635,-35,l),
(942,733,l)
);
},
{
closed = 0;
nodes = (
(701,-35,l),
(1008,733,l)
);
}
);
};
layerId = m01;
shapes = (
{
closed = 1;
nodes = (
(356,0,l),
(564,350,l),
(534,350,l),
(593,-10,l),
(643,0,l),
(1041,667,l),
(1003,645,l),
(1129,681,l),
(1133,700,l),
(876,700,l),
(872,680,l),
(980,645,l),
(973,667,l),
(646,107,l),
(663,108,l),
(608,441,l),
(606,409,l),
(754,666,l),
(721,643,l),
(817,681,l),
(821,700,l),
(626,700,l),
(622,680,l),
(699,646,l),
(689,667,l),
(580,472,l),
(600,472,l),
(554,700,l),
(378,700,l),
(374,680,l),
(483,645,l),
(462,666,l),
(526,383,l),
(537,415,l),
(368,121,l),
(378,120,l),
(272,700,l),
(89,700,l),
(85,680,l),
(193,645,l),
(175,667,l),
(302,-10,l)
);
}
);
width = 1031;
},
{
anchors = (
{
name = top;
pos = (540,700);
}
);
associatedMasterId = m01;
background = {
shapes = (
{
closed = 1;
nodes = (
(80,660,l),
(321,-10,l),
(420,10,l),
(179,660,l)
);
},
{
closed = 1;
nodes = (
(437,660,l),
(678,-10,l),
(777,10,l),
(536,660,l)
);
}
);
};
layerId = "D26895DC-3BB4-497B-9268-E03FEBC355CF";
name = "2. Jan. 24, 00:10";
shapes = (
{
closed = 1;
nodes = (
(373,0,l),
(694,700,l),
(637,700,l),
(372,137,l),
(177,700,l),
(98,650,l),
(321,-10,l)
);
},
{
closed = 1;
nodes = (
(177,700,l),
(0,700,l),
(0,680,l),
(98,650,l)
);
},
{
closed = 1;
nodes = (
(730,0,l),
(943,650,l),
(886,650,l),
(720,124,l),
(446,700,l),
(368,650,l),
(678,-10,l)
);
},
{
closed = 1;
nodes = (
(446,700,l),
(269,700,l),
(269,680,l),
(368,650,l)
);
},
{
closed = 1;
nodes = (
(674,650,l),
(743,681,l),
(743,700,l),
(518,700,l),
(518,680,l),
(617,650,l)
);
},
{
closed = 1;
nodes = (
(943,650,l),
(1045,681,l),
(1045,700,l),
(788,700,l),
(788,680,l),
(886,650,l)
);
}
);
width = 1045;
},
{
anchors = (
{
name = top;
pos = (600,700);
}
);
background = {
shapes = (
{
closed = 1;
nodes = (
(391,0,l),
(665,652,l),
(662,649,l),
(757,680,l),
(757,700,l),
(500,700,l),
(500,680,l),
(611,643,l),
(610,646,l),
(413,201,l),
(417,201,l),
(222,652,l),
(221,649,l),
(316,680,l),
(316,700,l),
(-54,700,l),
(-54,680,l),
(28,653,l),
(25,656,l),
(300,-15,l)
);
},
{
closed = 1;
nodes = (
(391,0,l),
(665,652,l),
(662,649,l),
(757,680,l),
(757,700,l),
(500,700,l),
(500,680,l),
(611,643,l),
(610,646,l),
(413,201,l),
(417,201,l),
(222,652,l),
(221,649,l),
(316,680,l),
(316,700,l),
(-54,700,l),
(-54,680,l),
(28,653,l),
(25,656,l),
(300,-15,l)
);
},
{
closed = 1;
nodes = (
(686,0,l),
(960,652,l),
(957,649,l),
(1052,680,l),
(1052,700,l),
(795,700,l),
(795,680,l),
(906,643,l),
(905,646,l),
(708,201,l),
(712,201,l),
(517,652,l),
(516,649,l),
(611,680,l),
(611,700,l),
(241,700,l),
(241,680,l),
(323,653,l),
(320,656,l),
(595,-15,l)
);
}
);
};
hints = (
{
horizontal = 1;
place = (616, -50);
place = (616, -50);
type = Stem;
},
{
place = (-144, 1019);
place = (-144, 1019);
type = Stem;
}
);
layerId = "E0989092-07D5-4BE4-A82B-4E03160A36DB";
shapes = (
{
closed = 1;
nodes = (
(324,0,l),
(495,292,l),
(474,284,l),
(538,-15,l),
(619,0,l),
(1023,657,l),
(1007,646,l),
(1118,680,l),
(1121,700,l),
(903,700,l),
(900,683,l),
(970,640,l),
(966,651,l),
(668,168,l),
(674,167,l),
(605,479,l),
(592,436,l),
(732,664,l),
(705,644,l),
(823,680,l),
(826,700,l),
(644,700,l),
(641,680,l),
(681,643,l),
(680,667,l),
(585,514,l),
(597,522,l),
(558,700,l),
(310,700,l),
(307,680,l),
(411,643,l),
(390,669,l),
(471,296,l),
(479,357,l),
(355,144,l),
(372,148,l),
(251,700,l),
(15,700,l),
(12,680,l),
(94,651,l),
(84,664,l),
(231,-15,l)
);
}
);
width = 990;
}
);
unicode = 87;
},
{
color = 6;
glyphname = X;
layers = (
{
anchors = (
{
name = top;
pos = (458,700);
}
);
layerId = m01;
shapes = (
{
closed = 1;
nodes = (
(221,0,l),
(225,20,l),
(124,56,l),
(127,35,l),
(360,312,l),
(340,312,l),
(479,35,l),
(490,56,l),
(372,19,l),
(368,0,l),
(660,0,l),
(664,20,l),
(563,56,l),
(586,35,l),
(419,388,l),
(414,358,l),
(678,665,l),
(647,644,l),
(765,681,l),
(769,700,l),
(522,700,l),
(518,680,l),
(619,644,l),
(616,665,l),
(388,405,l),
(408,405,l),
(284,665,l),
(273,644,l),
(391,681,l),
(395,700,l),
(106,700,l),
(102,680,l),
(203,644,l),
(180,665,l),
(334,321,l),
(340,351,l),
(65,35,l),
(96,56,l),
(-22,19,l),
(-26,0,l)
);
}
);
width = 726;
},
{
associatedMasterId = m01;
layerId = "F046320F-1E9A-4CB2-9107-3F313C602A8C";
name = "2. Jan. 24, 00:11";
shapes = (
{
closed = 1;
nodes = (
(170,50,l),
(329,297,l),
(502,50,l),
(610,50,l),
(404,358,ls),
(365,417,o),
(347,403,o),
(319,361,cs),
(108,50,l)
);
},
{
closed = 1;
nodes = (
(261,0,l),
(261,20,l),
(170,50,l),
(108,50,l),
(14,19,l),
(14,0,l)
);
},
{
closed = 1;
nodes = (
(700,0,l),
(700,20,l),
(609,50,l),
(502,50,l),
(408,19,l),
(408,0,l)
);
},
{
closed = 1;
nodes = (
(579,650,l),
(517,650,l),
(359,420,l),
(205,650,l),
(101,650,l),
(288,355,ls),
(324,298,o),
(351,309,o),
(380,352,cs)
);
},
{
closed = 1;
nodes = (
(205,650,l),
(299,681,l),
(299,700,l),
(10,700,l),
(10,680,l),
(101,650,l)
);
},
{
closed = 1;
nodes = (
(579,650,l),
(673,681,l),
(673,700,l),
(426,700,l),
(426,680,l),
(517,650,l)
);
}
);
width = 710;
},
{
anchors = (
{
name = top;
pos = (472,700);
}
);
hints = (
{
horizontal = 1;
place = (-68, -52);
place = (-68, -52);
type = Stem;
},
{
horizontal = 1;
place = (616, -52);
place = (616, -52);
type = Stem;
},
{
place = (-101, 708);
place = (-101, 708);
type = Stem;
}
);
layerId = "E0989092-07D5-4BE4-A82B-4E03160A36DB";
shapes = (
{
closed = 1;
nodes = (
(218,0,l),
(221,17,l),
(110,64,l),
(109,40,l),
(371,376,l),
(297,295,l),
(407,27,l),
(432,47,l),
(325,16,l),
(322,0,l),
(700,0,l),
(703,17,l),
(600,52,l),
(623,34,l),
(444,444,l),
(393,377,l),
(677,669,l),
(636,638,l),
(780,684,l),
(783,700,l),
(509,700,l),
(506,683,l),
(587,635,l),
(590,660,l),
(383,419,l),
(442,453,l),
(340,686,l),
(313,644,l),
(432,684,l),
(435,700,l),
(80,700,l),
(77,683,l),
(183,647,l),
(118,683,l),
(286,315,l),
(354,404,l),
(27,33,l),
(66,63,l),
(-79,16,l),
(-82,0,l)
);
}
);
width = 726;
}
);
unicode = 88;
},
{
color = 6;
glyphname = Y;
layers = (
{
anchors = (
{
name = top;
pos = (446,700);
}
);
layerId = m01;
shapes = (
{
closed = 1;
nodes = (
(429,0,l),
(433,19,l),
(329,56,l),
(341,32,l),
(403,351,l),
(661,665,l),
(630,644,l),
(748,681,l),
(752,700,l),
(505,700,l),
(501,680,l),
(602,644,l),
(598,666,l),
(374,374,l),
(390,374,l),
(283,666,l),
(273,644,l),
(391,681,l),
(395,700,l),
(96,700,l),
(92,680,l),
(193,644,l),
(171,666,l),
(300,310,l),
(246,32,l),
(268,56,l),
(153,20,l),
(149,0,l)
);
}
);
width = 662;
},
{
anchors = (
{
name = top;
pos = (350,700);
}
);
associatedMasterId = m01;
layerId = "910689E5-F858-4CAF-834D-8F0FBE956DA8";
name = "2. Jan. 24, 00:13";
shapes = (
{
closed = 1;
nodes = (
(562,650,l),
(500,650,l),
(350,390,l),
(205,650,l),
(91,650,l),
(313,251,l)
);
},
{
closed = 1;
nodes = (
(469,0,l),
(469,19,l),
(375,50,l),
(280,50,l),
(189,20,l),
(189,0,l)
);
},
{
closed = 1;
nodes = (
(375,50,l),
(375,373,l),
(280,373,l),
(280,50,l)
);
},
{
closed = 1;
nodes = (
(205,650,l),
(299,681,l),
(299,700,l),
(0,700,l),
(0,680,l),
(91,650,l)
);
},
{
closed = 1;
nodes = (
(562,650,l),
(656,681,l),
(656,700,l),
(409,700,l),
(409,680,l),
(500,650,l)
);
}
);
width = 656;
},
{
anchors = (
{
name = top;
pos = (442,700);
}
);
background = {
shapes = (
{
closed = 1;
nodes = (
(506,0,l),
(506,20,l),
(413,50,l),
(413,648,l),
(506,680,l),
(506,700,l),
(136,700,l),
(136,680,l),
(229,650,l),
(229,50,l),
(136,20,l),
(136,0,l)
);
}
);
};
hints = (
{
horizontal = 1;
place = (-68, -52);
place = (-68, -52);
type = Stem;
},
{
horizontal = 1;
place = (616, -52);
place = (616, -52);
type = Stem;
},
{
place = (119, 113);
place = (119, 113);
type = Stem;
}
);
layerId = "E0989092-07D5-4BE4-A82B-4E03160A36DB";
shapes = (
{
closed = 1;
nodes = (
(438,0,l),
(442,19,l),
(332,58,l),
(349,23,l),
(416,367,l),
(658,669,l),
(626,647,l),
(744,684,l),
(747,700,l),
(507,700,l),
(504,683,l),
(573,647,l),
(576,666,l),
(354,376,l),
(400,392,l),
(309,676,l),
(291,654,l),
(374,684,l),
(377,700,l),
(24,700,l),
(21,683,l),
(123,649,l),
(107,663,l),
(220,306,l),
(167,31,l),
(191,56,l),
(72,20,l),
(68,0,l)
);
}
);
width = 657;
}
);
unicode = 89;
},
{
color = 6;
glyphname = Z;
layers = (
{
anchors = (
{
name = top;
pos = (420,700);
}
);
layerId = m01;
shapes = (
{
closed = 1;
nodes = (
(548,0,l),
(587,201,l),
(543,211,l),
(477,37,l),
(502,50,l),
(125,50,l),
(129,35,l),
(683,700,l),
(186,700,l),
(113,500,l),
(134,500,l),
(253,666,l),
(224,650,l),
(543,650,l),
(538,665,l),
(5,20,l),
(1,0,l)
);
}
);
width = 656;
},
{
anchors = (
{
name = top;
pos = (314,700);
}
);
associatedMasterId = m01;
layerId = "345EA7E1-6674-4C14-AB06-E1D43D2DBF31";
name = "2. Jan. 24, 00:52";
shapes = (
{
closed = 1;
nodes = (
(580,700,l),
(461,700,l),
(31,20,l),
(132,1,l)
);
},
{
closed = 1;
nodes = (
(578,0,l),
(578,50,l),
(123,50,l),
(31,20,l),
(31,0,l)
);
},
{
closed = 1;
nodes = (
(578,201,l),
(532,211,l),
(503,51,l),
(578,0,l)
);
},
{
closed = 1;
nodes = (
(67,500,l),
(172,700,l),
(80,700,l),
(46,500,l)
);
},
{
closed = 1;
nodes = (
(472,650,l),
(505,700,l),
(83,700,l),
(83,650,l)
);
}
);
width = 620;
},
{
anchors = (
{
name = top;
pos = (436,700);
}
);
hints = (
{
horizontal = 1;
place = (-68, -11);
place = (-68, -11);
type = Stem;
},
{
horizontal = 1;
place = (575, -11);
place = (575, -11);
type = Stem;
},
{
place = (494, 41);
place = (494, 41);
type = Stem;
},
{
horizontal = 1;
place = (425, 139);
place = (425, 139);
type = Stem;
}
);
layerId = "E0989092-07D5-4BE4-A82B-4E03160A36DB";
shapes = (
{
closed = 1;
nodes = (
(593,0,l),
(631,198,l),
(585,210,l),
(502,48,l),
(506,50,l),
(202,50,l),
(202,48,l),
(725,700,l),
(146,700,l),
(72,500,l),
(122,500,l),
(232,652,l),
(228,650,l),
(466,650,l),
(466,652,l),
(-37,17,l),
(-40,0,l)
);
}
);
width = 703;
}
);
unicode = 90;
},
{
export = 0;
glyphname = W_h;
layers = (
{
anchors = (
{
name = top;
pos = (617,700);
}
);
layerId = m01;
shapes = (
{
closed = 1;
nodes = (
(344,0,l),
(552,350,l),
(522,350,l),
(581,-10,l),
(631,0,l),
(1029,667,l),
(992,645,l),
(1058,681,l),
(1061,700,l),
(864,700,l),
(860,680,l),
(969,645,l),
(961,667,l),
(634,107,l),
(651,108,l),
(596,441,l),
(595,409,l),
(743,666,l),
(709,643,l),
(806,681,l),
(809,700,l),
(614,700,l),
(610,680,l),
(687,646,l),
(677,667,l),
(568,472,l),
(588,472,l),
(542,700,l),
(366,700,l),
(362,680,l),
(472,645,l),
(451,666,l),
(515,383,l),
(525,415,l),
(357,121,l),
(367,120,l),
(260,700,l),
(77,700,l),
(73,680,l),
(182,645,l),
(163,667,l),
(290,-10,l)
);
},
{
closed = 1;
nodes = (
(1134,0,l),
(1140,30,l),
(1054,55,l),
(1066,32,l),
(1143,426,l),
(1129,399,l),
(1174,436,o),
(1231,470,o),
(1272,470,cs),
(1340,470,o),
(1377,415,o),
(1362,338,cs),
(1302,32,l),
(1324,55,l),
(1228,30,l),
(1222,0,l),
(1477,0,l),
(1481,20,l),
(1380,56,l),
(1392,32,l),
(1457,366,ls),
(1474,453,o),
(1413,515,o),
(1311,515,cs),
(1259,515,o),
(1190,479,o),
(1137,440,c),
(1144,430,l),
(1200,718,l),
(1217,794,l),
(1208,800,l),
(1011,745,l),
(1008,729,l),
(1127,715,l),
(1113,735,l),
(976,32,l),
(998,56,l),
(883,20,l),
(879,0,l)
);
}
);
width = 1572;
},
{
anchors = (
{
name = top;
pos = (620,700);
}
);
hints = (
{
horizontal = 1;
place = (606, -60);
place = (606, -60);
type = Stem;
},
{
place = (-154, 1009);
place = (-154, 1009);
type = Stem;
},
{
horizontal = 1;
place = (-80, -61);
place = (-80, -61);
type = Stem;
},
{
horizontal = 1;
place = (395, -31);
place = (395, -31);
type = Stem;
},
{
place = (947, 99);
place = (947, 99);
type = Stem;
},
{
place = (1273, 99);
place = (1273, 99);
type = Stem;
}
);
layerId = "E0989092-07D5-4BE4-A82B-4E03160A36DB";
shapes = (
{
closed = 1;
nodes = (
(344,0,l),
(514,292,l),
(493,284,l),
(557,-15,l),
(639,0,l),
(1042,657,l),
(1026,646,l),
(1137,680,l),
(1141,700,l),
(993,700,l),
(989,683,l),
(989,640,l),
(985,651,l),
(687,168,l),
(693,167,l),
(624,479,l),
(611,436,l),
(752,664,l),
(724,644,l),
(842,680,l),
(846,700,l),
(664,700,l),
(660,680,l),
(701,643,l),
(699,667,l),
(605,514,l),
(616,522,l),
(578,700,l),
(330,700,l),
(326,680,l),
(431,643,l),
(410,669,l),
(490,296,l),
(498,357,l),
(375,144,l),
(392,148,l),
(271,700,l),
(35,700,l),
(31,680,l),
(113,651,l),
(104,664,l),
(250,-15,l)
);
},
{
closed = 1;
nodes = (
(1096,0,l),
(1100,20,l),
(1041,51,l),
(1042,48,l),
(1115,422,l),
(1113,419,l),
(1146,443,o),
(1185,461,o),
(1209,461,cs),
(1246,461,o),
(1262,410,o),
(1248,338,cs),
(1192,48,l),
(1195,51,l),
(1124,20,l),
(1120,0,l),
(1432,0,l),
(1436,20,l),
(1367,51,l),
(1368,48,l),
(1430,366,ls),
(1447,455,o),
(1373,517,o),
(1251,517,cs),
(1216,517,o),
(1166,502,o),
(1124,477,c),
(1125,476,l),
(1172,718,l),
(1188,787,l),
(1184,810,l),
(931,759,l),
(925,729,l),
(996,708,l),
(995,711,l),
(866,48,l),
(869,51,l),
(788,20,l),
(784,0,l)
);
}
);
width = 1511;
}
);
metricLeft = W;
metricRight = h;
},
{
export = 0;
glyphname = W_i;
layers = (
{
anchors = (
{
name = ogo;
pos = (1075,0);
},
{
name = top;
pos = (621,700);
}
);
layerId = m01;
shapes = (
{
closed = 1;
nodes = (
(348,0,l),
(533,310,l),
(585,-10,l),
(635,0,l),
(993,602,ls),
(1032,664,o),
(1123,666,o),
(1211,607,c),
(1274,705,l),
(1167,801,o),
(1026,763,o),
(934,613,c),
(652,130,l),
(604,418,l),
(739,653,l),
(810,681,l),
(813,700,l),
(618,700,l),
(615,680,l),
(674,654,l),
(587,498,l),
(546,700,l),
(370,700,l),
(367,680,l),
(458,651,l),
(517,393,l),
(368,134,l),
(264,700,l),
(81,700,l),
(78,680,l),
(170,650,l),
(294,-10,l)
);
},
{
closed = 1;
nodes = (
(1213,0,l),
(1217,20,l),
(1113,57,l),
(1126,33,l),
(1204,434,l),
(1221,510,l),
(1212,516,l),
(1015,461,l),
(1012,445,l),
(1131,431,l),
(1117,451,l),
(1036,32,l),
(1057,55,l),
(939,20,l),
(935,0,l)
);
}
);
width = 1339;
},
{
anchors = (
{
name = ogo;
pos = (880,0);
},
{
name = top;
pos = (625,700);
}
);
hints = (
{
horizontal = 1;
place = (611, -55);
place = (611, -55);
type = Stem;
},
{
place = (-149, 1014);
place = (-149, 1014);
type = Stem;
},
{
horizontal = 1;
place = (-72, -55);
place = (-72, -55);
type = Stem;
},
{
horizontal = 1;
place = (444, -20);
target = down;
type = TopGhost;
},
{
horizontal = 1;
place = (502, 124);
place = (502, 124);
type = Stem;
},
{
place = (801, 104);
place = (801, 104);
type = Stem;
},
{
place = (792, 136);
place = (792, 136);
type = Stem;
}
);
layerId = "E0989092-07D5-4BE4-A82B-4E03160A36DB";
shapes = (
{
closed = 1;
nodes = (
(235,0,l),
(390,263,l),
(448,-15,l),
(530,0,l),
(824,553,ls),
(867,631,o),
(959,638,o),
(1046,571,c),
(1126,700,l),
(1011,787,o),
(884,762,o),
(818,640,cs),
(580,191,l),
(519,462,l),
(633,648,l),
(705,664,l),
(712,700,l),
(555,700,l),
(552,680,l),
(582,652,l),
(506,530,l),
(469,700,l),
(221,700,l),
(218,680,l),
(306,649,l),
(375,331,l),
(280,166,l),
(162,700,l),
(-74,700,l),
(-77,680,l),
(-2,654,l),
(141,-15,l)
);
},
{
closed = 1;
nodes = (
(1040,0,l),
(1044,20,l),
(975,51,l),
(973,28,l),
(1050,427,l),
(1065,493,l),
(1062,516,l),
(809,465,l),
(803,435,l),
(874,414,l),
(876,437,l),
(797,28,l),
(803,51,l),
(722,20,l),
(718,0,l)
);
}
);
width = 1142;
}
);
metricLeft = W;
},
{
color = 5;
glyphname = a;
layers = (
{
associatedMasterId = m01;
layerId = "DC0490B7-783B-4ABB-9CE4-D8D1AAD9D32C";
name = "1. Jan. 24, 11:25";
shapes = (
{
closed = 1;
nodes = (
(508,18,l),
(508,34,l),
(405,47,l),
(405,391,ls),
(405,464,o),
(351,516,o),
(275,516,cs),
(144,516,o),
(68,456,o),
(68,371,cs),
(68,336,l),
(151,356,l),
(154,391,ls),
(159,445,o),
(192,483,o),
(251,483,cs),
(288,483,o),
(319,437,o),
(319,371,cs),
(319,65,l),
(321,-11,l),
(331,-17,l)
);
},
{
closed = 1;
nodes = (
(236,-16,o),
(285,17,o),
(331,64,c),
(328,115,l),
(288,70,o),
(256,34,o),
(217,34,cs),
(178,34,o),
(143,102,o),
(143,177,cs),
(143,229,o),
(215,250,o),
(351,249,c),
(350,288,l),
(187,288,o),
(55,244,o),
(55,147,cs),
(55,63,o),
(90,-16,o),
(183,-16,cs)
);
}
);
width = 505;
},
{
anchors = (
{
name = ogo;
pos = (266,0);
},
{
name = top;
pos = (333,500);
}
);
layerId = m01;
name = Regular;
shapes = (
{
closed = 1;
nodes = (
(423,-16,o),
(482,3,o),
(525,31,c),
(510,57,l),
(490,44,o),
(466,34,o),
(452,34,cs),
(434,34,o),
(422,49,o),
(422,70,cs),
(422,76,o),
(423,87,o),
(425,96,cs),
(496,460,l),
(453,486,l),
(433,504,o),
(393,516,o),
(356,516,cs),
(170,516,o),
(38,378,o),
(38,183,cs),
(38,69,o),
(98,-11,o),
(183,-11,cs),
(221,-11,o),
(280,11,o),
(327,41,c),
(327,8,o),
(351,-16,o),
(384,-16,cs)
);
},
{
closed = 1;
nodes = (
(207,471,o),
(306,471,cs),
(335,471,o),
(373,454,o),
(399,429,c),
(332,77,l),
(297,52,o),
(256,34,o),
(233,34,cs),
(177,34,o),
(137,102,o),
(137,199,cs),
(137,358,o)
);
}
);
width = 551;
},
{
anchors = (
{
name = ogo;
pos = (316,0);
},
{
name = top;
pos = (363,500);
}
);
hints = (
{
horizontal = 1;
place = (-65, 21);
target = up;
type = BottomGhost;
},
{
horizontal = 1;
place = (197, -6);
place = (197, -6);
type = Stem;
},
{
horizontal = 1;
place = (431, -13);
place = (431, -13);
type = Stem;
},
{
place = (-37, 125);
place = (-37, 125);
type = Stem;
},
{
place = (260, 124);
place = (260, 124);
type = Stem;
},
{
horizontal = 1;
place = (-64, 21);
target = up;
type = BottomGhost;
},
{
place = (-24, 120);
place = (-24, 120);
type = Stem;
},
{
horizontal = 1;
place = (-65, 4);
place = (-65, 4);
type = Stem;
}
);
layerId = "E0989092-07D5-4BE4-A82B-4E03160A36DB";
shapes = (
{
closed = 1;
nodes = (
(477,-16,o),
(555,3,o),
(598,31,c),
(583,57,l),
(563,44,o),
(539,34,o),
(524,34,cs),
(504,34,o),
(494,46,o),
(494,70,cs),
(494,77,o),
(495,86,o),
(497,96,cs),
(568,464,l),
(521,483,ls),
(472,503,o),
(417,519,o),
(385,519,cs),
(176,519,o),
(19,393,o),
(19,188,cs),
(19,67,o),
(84,-14,o),
(212,-14,cs),
(265,-14,o),
(291,-7,o),
(333,12,c),
(352,-7,o),
(382,-16,o),
(410,-16,cs)
);
},
{
closed = 1;
nodes = (
(227,461,o),
(333,461,cs),
(349,461,o),
(372,449,o),
(387,434,c),
(313,52,l),
(297,43,o),
(274,37,o),
(262,37,cs),
(214,37,o),
(200,88,o),
(200,169,cs),
(200,267,o)
);
}
);
width = 598;
},
{
anchors = (
{
name = ogo;
pos = (304,0);
},
{
name = top;
pos = (351,500);
}
);
associatedMasterId = "E0989092-07D5-4BE4-A82B-4E03160A36DB";
hints = (
{
horizontal = 1;
place = (-65, 21);
target = up;
type = BottomGhost;
},
{
horizontal = 1;
place = (197, -6);
place = (197, -6);
type = Stem;
},
{
horizontal = 1;
place = (431, -13);
place = (431, -13);
type = Stem;
},
{
place = (-37, 125);
place = (-37, 125);
type = Stem;
},
{
place = (260, 124);
place = (260, 124);
type = Stem;
},
{
horizontal = 1;
place = (-64, 21);
target = up;
type = BottomGhost;
},
{
place = (-24, 120);
place = (-24, 120);
type = Stem;
},
{
horizontal = 1;
place = (-65, 4);
place = (-65, 4);
type = Stem;
}
);
layerId = "70A3009B-B8D9-472A-9666-1E0D9EC841C3";
name = "11. Jan. 24, 20:24";
shapes = (
{
closed = 1;
nodes = (
(199,-16,o),
(246,18,o),
(283,49,c),
(282,50,l),
(274,-1,l),
(283,-15,l),
(545,21,l),
(552,56,l),
(460,68,l),
(461,66,l),
(524,391,ls),
(538,464,o),
(456,516,o),
(324,516,cs),
(186,516,o),
(77,456,o),
(61,371,cs),
(57,351,o),
(52,329,o),
(51,319,c),
(199,351,l),
(199,351,o),
(200,363,o),
(201,381,cs),
(208,425,o),
(269,466,o),
(303,466,cs),
(338,466,o),
(356,427,o),
(345,371,cs),
(328,287,l),
(331,289,l),
(173,277,o),
(19,225,o),
(4,147,cs),
(-12,66,o),
(27,-16,o),
(160,-16,cs)
);
},
{
closed = 1;
nodes = (
(191,70,o),
(172,118,o),
(182,168,cs),
(192,221,o),
(239,234,o),
(320,237,c),
(321,248,l),
(290,91,l),
(293,95,l),
(270,75,o),
(253,70,o),
(241,70,cs)
);
}
);
width = 558;
},
{
anchors = (
{
name = ogo;
pos = (273,0);
},
{
name = top;
pos = (330,500);
}
);
associatedMasterId = m01;
layerId = "06339BC0-61F0-4ED6-BF14-E07A188A5344";
name = "11. Jan. 24, 21:10";
shapes = (
{
closed = 1;
nodes = (
(184,-16,o),
(239,16,o),
(292,61,c),
(283,70,l),
(270,-11,l),
(279,-17,l),
(440,18,l),
(443,34,l),
(348,49,l),
(362,29,l),
(433,391,ls),
(447,464,o),
(403,516,o),
(327,516,cs),
(196,516,o),
(108,456,o),
(92,371,cs),
(89,359,o),
(87,348,o),
(86,336,c),
(173,356,l),
(175,368,o),
(178,379,o),
(182,391,cs),
(197,445,o),
(237,483,o),
(296,483,cs),
(333,483,o),
(356,437,o),
(343,371,cs),
(323,269,l),
(342,287,l),
(187,285,o),
(53,241,o),
(35,147,cs),
(19,63,o),
(38,-16,o),
(131,-16,cs)
);
},
{
closed = 1;
nodes = (
(136,34,o),
(114,102,o),
(129,177,cs),
(139,228,o),
(211,248,o),
(340,249,c),
(322,267,l),
(287,87,l),
(303,116,l),
(254,71,o),
(214,34,o),
(175,34,cs)
);
}
);
width = 505;
},
{
anchors = (
{
name = ogo;
pos = (304,0);
},
{
name = top;
pos = (351,500);
}
);
associatedMasterId = "E0989092-07D5-4BE4-A82B-4E03160A36DB";
hints = (
{
horizontal = 1;
place = (-65, 21);
target = up;
type = BottomGhost;
},
{
horizontal = 1;
place = (197, -6);
place = (197, -6);
type = Stem;
},
{
horizontal = 1;
place = (431, -13);
place = (431, -13);
type = Stem;
},
{
place = (-37, 125);
place = (-37, 125);
type = Stem;
},
{
place = (260, 124);
place = (260, 124);
type = Stem;
},
{
horizontal = 1;
place = (-64, 21);
target = up;
type = BottomGhost;
},
{
place = (-24, 120);
place = (-24, 120);
type = Stem;
},
{
horizontal = 1;
place = (-65, 4);
place = (-65, 4);
type = Stem;
}
);
layerId = "A45E4BA6-0AD3-4B7B-85E3-BCE57AE5035D";
name = "12. Jan. 24, 20:57";
shapes = (
{
closed = 1;
nodes = (
(261,-14,o),
(286,-5,o),
(341,21,c),
(304,72,l),
(485,96,l),
(556,464,l),
(509,483,l),
(461,504,o),
(405,519,o),
(373,519,cs),
(169,519,o),
(21,403,o),
(1,238,cs),
(-22,90,o),
(55,-14,o),
(200,-14,cs)
);
},
{
closed = 1;
nodes = (
(465,-16,o),
(543,3,o),
(586,31,c),
(571,57,l),
(551,44,o),
(527,34,o),
(512,34,cs),
(492,34,o),
(482,46,o),
(482,70,cs),
(482,77,o),
(483,86,o),
(485,96,c),
(304,72,l),
(303,67,o),
(303,62,o),
(303,58,cs),
(303,6,o),
(354,-16,o),
(398,-16,cs)
);
},
{
closed = 1;
nodes = (
(180,37,o),
(162,143,o),
(192,293,cs),
(213,391,o),
(261,461,o),
(321,461,cs),
(337,461,o),
(361,449,o),
(375,433,c),
(375,436,l),
(300,49,l),
(301,52,l),
(285,43,o),
(262,37,o),
(250,37,cs)
);
}
);
width = 558;
}
);
unicode = 97;
},
{
color = 5;
glyphname = ae;
layers = (
{
layerId = m01;
shapes = (
{
closed = 1;
nodes = (
(194,-16,o),
(258,-3,o),
(362,71,c),
(341,70,l),
(367,13,o),
(421,-16,o),
(498,-16,cs),
(571,-16,o),
(657,26,o),
(707,80,c),
(690,108,l),
(645,72,o),
(583,44,o),
(540,44,cs),
(444,44,o),
(396,137,o),
(428,278,c),
(407,262,l),
(749,262,l),
(752,272,o),
(754,281,o),
(756,291,cs),
(781,420,o),
(725,516,o),
(610,516,cs),
(544,516,o),
(484,488,o),
(436,441,c),
(449,440,l),
(438,486,o),
(392,516,o),
(335,516,cs),
(204,516,o),
(106,456,o),
(90,371,cs),
(87,359,o),
(85,348,o),
(83,336,c),
(170,356,l),
(173,368,o),
(176,379,o),
(179,391,cs),
(195,445,o),
(245,483,o),
(304,483,cs),
(341,483,o),
(373,437,o),
(361,371,cs),
(343,279,l),
(362,297,l),
(204,295,o),
(51,241,o),
(33,147,cs),
(17,63,o),
(46,-16,o),
(139,-16,cs)
);
},
{
closed = 1;
nodes = (
(144,34,o),
(112,102,o),
(127,177,cs),
(137,228,o),
(229,258,o),
(360,259,c),
(346,269,l),
(340,261,o),
(338,248,o),
(335,237,cs),
(323,175,o),
(323,125,o),
(334,87,c),
(350,108,l),
(264,49,o),
(221,34,o),
(183,34,cs)
);
},
{
closed = 1;
nodes = (
(440,335,l),
(465,419,o),
(517,477,o),
(570,477,cs),
(640,477,o),
(676,395,o),
(658,287,c),
(678,303,l),
(414,298,l),
(429,280,l)
);
}
);
width = 781;
},
{
associatedMasterId = m01;
layerId = "B65321F4-4844-4506-B17C-728D37A61E98";
name = "1. Jan. 24, 12:08";
shapes = (
{
closed = 1;
nodes = (
(595,-13,o),
(673,26,o),
(712,80,c),
(690,108,l),
(652,72,o),
(595,47,o),
(552,47,cs),
(460,47,o),
(395,130,o),
(395,262,c),
(719,262,l),
(731,405,o),
(653,517,o),
(530,517,cs),
(396,517,o),
(311,401,o),
(310,237,cs),
(309,61,o),
(391,-13,o),
(522,-13,cs)
);
},
{
closed = 1;
nodes = (
(216,-16,o),
(275,-3,o),
(361,64,c),
(358,115,l),
(278,50,o),
(236,34,o),
(197,34,cs),
(158,34,o),
(113,102,o),
(113,177,cs),
(113,229,o),
(205,260,o),
(341,259,c),
(340,298,l),
(177,298,o),
(25,244,o),
(25,147,cs),
(25,63,o),
(70,-16,o),
(163,-16,cs)
);
},
{
closed = 1;
nodes = (
(395,391,ls),
(395,464,o),
(331,516,o),
(255,516,cs),
(124,516,o),
(38,456,o),
(38,371,cs),
(38,336,l),
(121,356,l),
(124,391,ls),
(129,445,o),
(172,483,o),
(231,483,cs),
(268,483,o),
(309,437,o),
(309,371,cs),
(309,279,l),
(395,262,l)
);
},
{
closed = 1;
nodes = (
(393,401,o),
(437,478,o),
(498,478,cs),
(566,478,o),
(617,401,o),
(622,298,c),
(626,302,ls),
(628,304,o),
(576,304,o),
(518,302,cs),
(393,298,l)
);
}
);
width = 765;
},
{
hints = (
{
horizontal = 1;
place = (-67, 18);
place = (-67, 18);
type = Stem;
},
{
horizontal = 1;
place = (210, -3);
place = (210, -3);
type = Stem;
},
{
horizontal = 1;
place = (421, -4);
place = (421, -4);
type = Stem;
},
{
place = (-67, 125);
place = (-67, 125);
type = Stem;
},
{
place = (217, 123);
place = (217, 123);
type = Stem;
},
{
place = (531, 134);
place = (531, 134);
type = Stem;
},
{
horizontal = 1;
place = (-65, 8);
place = (-65, 8);
type = Stem;
},
{
horizontal = 1;
place = (427, -9);
place = (427, -9);
type = Stem;
},
{
place = (-54, 120);
place = (-54, 120);
type = Stem;
},
{
place = (218, 122);
place = (218, 122);
type = Stem;
}
);
layerId = "E0989092-07D5-4BE4-A82B-4E03160A36DB";
shapes = (
{
closed = 1;
nodes = (
(179,-16,o),
(244,13,o),
(311,52,c),
(309,52,l),
(343,4,o),
(404,-16,o),
(490,-16,cs),
(583,-16,o),
(693,53,o),
(732,97,c),
(708,128,l),
(623,75,o),
(568,51,o),
(533,51,cs),
(474,51,o),
(434,119,o),
(460,261,c),
(458,259,l),
(784,259,l),
(787,269,o),
(788,278,o),
(790,288,cs),
(818,430,o),
(739,516,o),
(602,516,cs),
(544,516,o),
(492,504,o),
(448,481,c),
(450,482,l),
(413,503,o),
(354,516,o),
(269,516,cs),
(173,516,o),
(53,446,o),
(38,368,cs),
(35,351,o),
(31,333,o),
(29,316,c),
(207,358,l),
(208,368,o),
(210,377,o),
(211,388,cs),
(221,453,o),
(264,476,o),
(273,476,cs),
(300,476,o),
(324,444,o),
(309,368,cs),
(295,296,l),
(297,298,l),
(144,283,o),
(-3,224,o),
(-18,147,cs),
(-33,68,o),
(0,-16,o),
(131,-16,cs)
);
},
{
closed = 1;
nodes = (
(168,61,o),
(149,109,o),
(162,177,cs),
(172,231,o),
(212,247,o),
(291,254,c),
(289,255,l),
(287,250,o),
(285,242,o),
(284,237,cs),
(272,175,o),
(275,128,o),
(289,89,c),
(289,91,l),
(265,73,o),
(231,61,o),
(210,61,cs)
);
},
{
closed = 1;
nodes = (
(475,340,ls),
(492,426,o),
(540,471,o),
(561,471,cs),
(591,471,o),
(629,460,o),
(610,304,c),
(613,307,l),
(466,302,l),
(468,300,l)
);
}
);
width = 805;
}
);
unicode = 230;
},
{
color = 5;
glyphname = b;
layers = (
{
associatedMasterId = m01;
layerId = "8F5C45DE-E011-4AF6-A467-DD6264DF4D65";
name = "1. Jan. 24, 11:26";
shapes = (
{
closed = 1;
nodes = (
(153,44,l),
(153,718,l),
(155,794,l),
(145,800,l),
(-41,745,l),
(-41,729,l),
(63,717,l),
(63,44,l)
);
},
{
closed = 1;
nodes = (
(378,-12,o),
(496,111,o),
(496,286,c),
(404,258,l),
(404,126,o),
(342,28,o),
(255,28,cs),
(212,28,o),
(162,65,o),
(123,104,cs),
(122,105,l),
(64,44,l),
(111,18,l),
(136,0,o),
(179,-12,o),
(214,-12,cs)
);
},
{
closed = 1;
nodes = (
(496,286,l),
(496,420,o),
(407,515,o),
(284,515,cs),
(231,515,o),
(162,482,o),
(116,435,c),
(119,385,l),
(158,430,o),
(209,469,o),
(243,469,cs),
(337,469,o),
(404,382,o),
(404,258,c)
);
}
);
width = 543;
},
{
layerId = m01;
name = Regular;
shapes = (
{
closed = 1;
nodes = (
(351,-16,o),
(493,111,o),
(527,286,cs),
(531,305,o),
(532,323,o),
(532,340,cs),
(532,445,o),
(466,516,o),
(360,516,cs),
(320,516,o),
(267,496,o),
(219,466,c),
(267,712,ls),
(269,724,o),
(270,734,o),
(270,743,cs),
(270,783,o),
(252,800,o),
(213,800,cs),
(174,800,o),
(116,781,o),
(72,753,c),
(87,727,l),
(106,740,o),
(130,750,o),
(145,750,cs),
(165,750,o),
(175,738,o),
(175,714,cs),
(175,707,o),
(174,698,o),
(172,688,cs),
(47,44,l),
(111,0,o),
(152,-16,o),
(187,-16,cs)
);
},
{
closed = 1;
nodes = (
(211,420,l),
(248,448,o),
(285,470,o),
(310,470,cs),
(388,470,o),
(436,409,o),
(436,317,cs),
(436,299,o),
(434,279,o),
(430,258,cs),
(404,126,o),
(322,24,o),
(235,24,cs),
(202,24,o),
(170,49,o),
(144,78,c)
);
}
);
width = 558;
},
{
hints = (
{
horizontal = 1;
place = (-94, -31);
place = (-94, -31);
type = Stem;
},
{
horizontal = 1;
place = (385, -25);
place = (385, -25);
type = Stem;
},
{
place = (-33, 98);
place = (-33, 98);
type = Stem;
},
{
place = (308, 100);
place = (308, 100);
type = Stem;
}
);
layerId = "E0989092-07D5-4BE4-A82B-4E03160A36DB";
shapes = (
{
closed = 1;
nodes = (
(380,-16,o),
(543,104,o),
(578,286,cs),
(581,303,o),
(583,320,o),
(583,335,cs),
(583,448,o),
(499,516,o),
(415,516,cs),
(361,516,o),
(304,509,o),
(277,499,c),
(323,737,ls),
(324,742,o),
(324,747,o),
(324,751,cs),
(324,803,o),
(273,825,o),
(229,825,cs),
(162,825,o),
(84,806,o),
(41,778,c),
(56,752,l),
(76,765,o),
(100,775,o),
(115,775,cs),
(135,775,o),
(145,763,o),
(145,739,cs),
(145,732,o),
(144,723,o),
(142,713,cs),
(11,41,l),
(87,17,o),
(142,-16,o),
(264,-16,cs)
);
},
{
closed = 1;
nodes = (
(267,449,l),
(286,457,o),
(305,461,o),
(316,461,cs),
(365,461,o),
(403,418,o),
(403,333,cs),
(403,312,o),
(400,288,o),
(395,261,cs),
(368,119,o),
(297,34,o),
(268,34,cs),
(241,34,o),
(216,40,o),
(192,65,c)
);
}
);
width = 603;
},
{
associatedMasterId = m01;
layerId = "EA0C8824-CBEB-4B5D-A24E-C870EA716344";
name = "10. Jan. 24, 22:26";
shapes = (
{
closed = 1;
nodes = (
(329,-16,o),
(471,111,o),
(505,286,cs),
(531,420,o),
(461,516,o),
(338,516,cs),
(295,516,o),
(237,493,o),
(186,458,c),
(194,448,l),
(246,718,l),
(263,794,l),
(254,800,l),
(58,745,l),
(55,729,l),
(174,715,l),
(160,735,l),
(25,44,l),
(89,0,o),
(130,-16,o),
(165,-16,cs)
);
},
{
closed = 1;
nodes = (
(177,24,o),
(142,54,o),
(114,86,c),
(118,59,l),
(192,438,l),
(175,410,l),
(217,443,o),
(260,470,o),
(288,470,cs),
(382,470,o),
(432,382,o),
(408,258,cs),
(382,126,o),
(300,24,o),
(213,24,cs)
);
}
);
width = 543;
}
);
unicode = 98;
},
{
color = 5;
glyphname = c;
layers = (
{
anchors = (
{
name = ced;
pos = (219,0);
},
{
name = top;
pos = (324,500);
}
);
layerId = m01;
shapes = (
{
closed = 1;
nodes = (
(278,-13,o),
(361,25,o),
(418,79,c),
(406,105,l),
(358,72,o),
(298,48,o),
(262,48,cs),
(166,48,o),
(112,143,o),
(138,277,cs),
(162,403,o),
(233,489,o),
(311,489,cs),
(370,489,o),
(408,415,o),
(406,339,c),
(447,339,l),
(476,490,l),
(454,490,o),
(432,496,o),
(409,503,cs),
(382,510,o),
(356,517,o),
(329,516,cs),
(186,510,o),
(72,399,o),
(40,234,cs),
(11,89,o),
(85,-13,o),
(217,-13,cs)
);
}
);
width = 489;
},
{
anchors = (
{
name = ced;
pos = (209,0);
},
{
name = top;
pos = (344,500);
}
);
background = {
shapes = (
{
closed = 0;
nodes = (
(264,-17,ls),
(352,-17,o),
(450,23,o),
(499,79,c),
(468,112,l),
(422,66,o),
(350,34,o),
(294,34,cs)
);
}
);
};
hints = (
{
horizontal = 1;
place = (-65, 18);
place = (-65, 18);
type = Stem;
},
{
horizontal = 1;
place = (437, -25);
place = (437, -25);
type = Stem;
},
{
place = (-47, 127);
place = (-47, 127);
type = Stem;
},
{
place = (307, 20);
place = (307, 20);
type = Stem;
}
);
layerId = "E0989092-07D5-4BE4-A82B-4E03160A36DB";
shapes = (
{
closed = 1;
nodes = (
(285,-16,o),
(376,15,o),
(422,59,c),
(397,92,l),
(360,61,o),
(309,39,o),
(274,39,cs),
(200,39,o),
(167,138,o),
(194,277,cs),
(215,384,o),
(254,463,o),
(288,467,c),
(370,469,o),
(418,415,o),
(403,336,c),
(453,336,l),
(486,508,l),
(483,507,o),
(466,508,o),
(443,510,cs),
(371,515,o),
(315,518,o),
(308,518,cs),
(165,512,o),
(41,394,o),
(10,234,cs),
(-19,88,o),
(60,-16,o),
(201,-16,cs)
);
}
);
width = 480;
}
);
unicode = 99;
},
{
color = 5;
glyphname = d;
layers = (
{
associatedMasterId = m01;
layerId = "E45AF11D-5959-4179-A5F9-D0A2E97EA0E1";
name = "1. Jan. 24, 11:32";
shapes = (
{
closed = 1;
nodes = (
(585,28,l),
(585,44,l),
(478,57,l),
(478,735,l),
(483,811,l),
(473,817,l),
(287,762,l),
(287,746,l),
(391,734,l),
(391,65,l),
(398,-1,l),
(408,-7,l)
);
},
{
closed = 1;
nodes = (
(297,-16,o),
(371,27,o),
(429,88,c),
(437,102,l),
(409,123,l),
(405,121,o),
(402,115,o),
(402,115,c),
(366,69,o),
(319,37,o),
(290,37,cs),
(195,37,o),
(132,128,o),
(132,271,cs),
(132,388,o),
(184,481,o),
(265,481,cs),
(300,481,o),
(349,469,o),
(383,451,cs),
(405,439,o),
(421,427,o),
(421,420,cs),
(421,415,l),
(452,451,l),
(443,455,l),
(404,491,o),
(337,516,o),
(280,516,cs),
(134,516,o),
(35,399,o),
(35,248,cs),
(35,88,o),
(121,-16,o),
(250,-16,cs)
);
}
);
width = 582;
},
{
layerId = m01;
name = Regular;
shapes = (
{
closed = 1;
nodes = (
(254,-16,o),
(311,10,o),
(369,51,c),
(365,4,o),
(383,-16,o),
(425,-16,cs),
(464,-16,o),
(522,3,o),
(566,31,c),
(551,57,l),
(532,44,o),
(508,34,o),
(493,34,cs),
(473,34,o),
(463,46,o),
(463,70,cs),
(463,77,o),
(464,86,o),
(466,96,cs),
(589,729,ls),
(591,741,o),
(592,751,o),
(592,760,cs),
(592,800,o),
(574,817,o),
(535,817,cs),
(496,817,o),
(438,798,o),
(394,770,c),
(409,744,l),
(428,757,o),
(452,767,o),
(467,767,cs),
(487,767,o),
(497,755,o),
(497,731,cs),
(497,724,o),
(496,715,o),
(494,705,cs),
(453,490,l),
(422,506,o),
(385,516,o),
(349,516,cs),
(203,516,o),
(82,399,o),
(52,248,cs),
(47,222,o),
(44,197,o),
(44,174,cs),
(44,57,o),
(108,-16,o),
(216,-16,cs)
);
},
{
closed = 1;
nodes = (
(177,388,o),
(247,481,o),
(328,481,cs),
(359,481,o),
(400,472,o),
(445,447,c),
(377,99,l),
(336,62,o),
(292,37,o),
(266,37,cs),
(190,37,o),
(146,96,o),
(146,192,cs),
(146,216,o),
(148,243,o),
(154,271,cs)
);
}
);
width = 604;
},
{
hints = (
{
horizontal = 1;
place = (-93, -21);
place = (-93, -21);
type = Stem;
},
{
horizontal = 1;
place = (436, -20);
target = down;
type = TopGhost;
},
{
place = (-60, 106);
place = (-60, 106);
type = Stem;
},
{
place = (297, 95);
place = (297, 95);
type = Stem;
},
{
horizontal = 1;
place = (401, -36);
place = (401, -36);
type = Stem;
}
);
layerId = "E0989092-07D5-4BE4-A82B-4E03160A36DB";
shapes = (
{
closed = 1;
nodes = (
(243,-16,o),
(295,11,o),
(335,39,c),
(345,1,o),
(389,-16,o),
(427,-16,cs),
(494,-16,o),
(572,3,o),
(615,31,c),
(600,57,l),
(580,44,o),
(556,34,o),
(541,34,cs),
(521,34,o),
(511,46,o),
(511,70,cs),
(511,77,o),
(512,86,o),
(514,96,cs),
(639,737,ls),
(640,742,o),
(640,747,o),
(640,751,cs),
(640,803,o),
(589,825,o),
(545,825,cs),
(478,825,o),
(400,806,o),
(357,778,c),
(372,752,l),
(392,765,o),
(416,775,o),
(431,775,cs),
(451,775,o),
(461,763,o),
(461,739,cs),
(461,732,o),
(460,723,o),
(458,713,cs),
(423,513,l),
(401,517,o),
(377,519,o),
(356,519,cs),
(187,519,o),
(46,406,o),
(15,248,cs),
(10,224,o),
(8,201,o),
(8,180,cs),
(8,56,o),
(83,-16,o),
(185,-16,cs)
);
},
{
closed = 1;
nodes = (
(227,396,o),
(287,468,o),
(318,468,cs),
(354,468,o),
(391,461,o),
(412,453,c),
(340,83,l),
(303,56,o),
(275,39,o),
(255,39,cs),
(223,39,o),
(192,84,o),
(192,172,cs),
(192,200,o),
(196,233,o),
(203,271,cs)
);
}
);
width = 609;
}
);
unicode = 100;
},
{
color = 5;
glyphname = eth;
layers = (
{
layerId = m01;
shapes = (
{
closed = 1;
nodes = (
(395,-15,o),
(497,94,o),
(531,267,cs),
(571,474,o),
(523,579,o),
(444,657,c),
(437,642,l),
(517,704,l),
(496,733,l),
(402,661,l),
(426,667,l),
(385,688,o),
(332,699,o),
(271,699,c),
(264,663,l),
(305,663,o),
(343,651,o),
(374,625,c),
(379,644,l),
(297,581,l),
(317,550,l),
(407,619,l),
(384,613,l),
(421,579,o),
(443,523,o),
(449,445,c),
(457,455,l),
(428,470,o),
(390,477,o),
(346,477,cs),
(199,477,o),
(88,384,o),
(59,237,cs),
(29,82,o),
(103,-15,o),
(250,-15,cs)
);
},
{
closed = 1;
nodes = (
(177,20,o),
(128,115,o),
(157,265,cs),
(178,374,o),
(249,442,o),
(326,442,cs),
(426,442,o),
(468,363,o),
(443,236,cs),
(417,103,o),
(344,20,o),
(270,20,cs)
);
}
);
width = 596;
},
{
associatedMasterId = m01;
layerId = "61B6939F-2C36-4E3A-A985-64CEAFBDB44F";
name = "1. Jan. 24, 12:10";
shapes = (
{
closed = 1;
nodes = (
(430,-15,o),
(511,94,o),
(511,267,cs),
(511,396,o),
(430,477,o),
(285,477,cs),
(138,477,o),
(45,384,o),
(45,237,cs),
(45,82,o),
(138,-15,o),
(285,-15,cs)
);
},
{
closed = 1;
nodes = (
(205,20,o),
(137,115,o),
(137,265,cs),
(137,374,o),
(195,442,o),
(272,442,cs),
(362,442,o),
(419,363,o),
(419,236,cs),
(419,103,o),
(372,20,o),
(298,20,cs)
);
},
{
closed = 1;
nodes = (
(511,267,l),
(511,569,o),
(393,699,o),
(167,699,c),
(167,663,l),
(301,663,o),
(419,535,o),
(419,236,c)
);
},
{
closed = 1;
nodes = (
(412,704,l),
(385,733,l),
(216,581,l),
(242,550,l)
);
}
);
width = 600;
},
{
hints = (
{
horizontal = 1;
place = (-91, -32);
place = (-91, -32);
type = Stem;
},
{
horizontal = 1;
place = (366, -32);
place = (366, -32);
type = Stem;
},
{
horizontal = 1;
place = (588, -32);
place = (588, -32);
type = Stem;
},
{
place = (-71, 122);
place = (-71, 122);
type = Stem;
},
{
place = (296, 121);
place = (296, 121);
type = Stem;
},
{
horizontal = 1;
place = (633, -20);
target = down;
type = TopGhost;
}
);
layerId = "E0989092-07D5-4BE4-A82B-4E03160A36DB";
shapes = (
{
closed = 1;
nodes = (
(392,-18,o),
(532,110,o),
(567,290,cs),
(596,440,o),
(552,591,o),
(462,655,c),
(460,652,l),
(530,706,l),
(484,765,l),
(384,687,l),
(387,689,l),
(343,700,o),
(269,706,o),
(208,702,c),
(199,656,l),
(240,667,o),
(288,657,o),
(315,633,c),
(317,636,l),
(243,579,l),
(283,515,l),
(367,577,l),
(364,577,l),
(380,557,o),
(393,511,o),
(395,467,c),
(396,469,l),
(377,475,o),
(348,480,o),
(326,480,cs),
(160,480,o),
(23,379,o),
(-5,237,cs),
(-33,88,o),
(63,-18,o),
(229,-18,cs)
);
},
{
closed = 1;
nodes = (
(191,23,o),
(168,123,o),
(196,265,cs),
(216,367,o),
(261,439,o),
(305,439,cs),
(362,439,o),
(385,355,o),
(362,236,cs),
(338,111,o),
(292,23,o),
(250,23,cs)
);
}
);
width = 607;
}
);
unicode = 240;
},
{
color = 5;
glyphname = dcroat;
layers = (
{
layerId = m01;
shapes = (
{
closed = 1;
nodes = (
(588,599,l),
(588,639,l),
(240,639,l),
(240,599,l)
);
},
{
ref = d;
}
);
width = 606;
},
{
hints = (
{
horizontal = 1;
place = (-16, 56);
place = (-16, 56);
type = Stem;
},
{
horizontal = 1;
place = (513, -20);
target = down;
type = TopGhost;
},
{
horizontal = 1;
place = (596, 46);
place = (596, 46);
type = Stem;
},
{
place = (17, 183);
place = (17, 183);
type = Stem;
},
{
place = (374, 172);
place = (374, 172);
type = Stem;
},
{
horizontal = 1;
place = (478, 41);
place = (478, 41);
type = Stem;
}
);
layerId = "E0989092-07D5-4BE4-A82B-4E03160A36DB";
shapes = (
{
closed = 1;
nodes = (
(605,579,l),
(605,639,l),
(257,639,l),
(257,579,l)
);
},
{
pos = (-10,0);
ref = d;
}
);
width = 619;
}
);
unicode = 273;
},
{
color = 5;
glyphname = e;
layers = (
{
associatedMasterId = m01;
background = {
shapes = (
{
closed = 1;
nodes = (
(422,517,o),
(519,416,o),
(519,262,cs),
(519,91,o),
(422,-15,o),
(283,-15,cs),
(136,-15,o),
(43,91,o),
(43,262,cs),
(43,416,o),
(136,517,o),
(283,517,cs)
);
},
{
closed = 1;
nodes = (
(195,483,o),
(144,426,o),
(144,290,cs),
(144,101,o),
(204,18,o),
(296,18,cs),
(365,18,o),
(418,81,o),
(418,231,cs),
(418,407,o),
(357,483,o),
(270,483,cs)
);
},
{
closed = 1;
nodes = (
(140,517,o),
(46,401,o),
(45,237,cs),
(44,91,o),
(137,-13,o),
(267,-13,cs),
(315,-13,o),
(367,7,o),
(409,38,cs),
(443,64,o),
(451,88,o),
(444,95,cs),
(436,103,o),
(420,89,o),
(384,70,cs),
(357,55,o),
(326,47,o),
(297,47,cs),
(205,47,o),
(140,143,o),
(140,272,c),
(464,272,l),
(477,426,o),
(398,517,o),
(275,517,cs)
);
},
{
closed = 1;
nodes = (
(138,411,o),
(182,489,o),
(243,489,cs),
(311,489,o),
(362,411,o),
(367,308,c),
(371,312,ls),
(373,314,o),
(321,314,o),
(263,312,cs),
(138,308,l)
);
}
);
};
layerId = "E099E9C4-6D0B-439C-8099-D4BFC9A3B348";
name = "1. Jan. 24, 11:33";
shapes = (
{
closed = 1;
nodes = (
(340,-13,o),
(418,26,o),
(457,80,c),
(435,108,l),
(397,72,o),
(340,47,o),
(297,47,cs),
(205,47,o),
(140,140,o),
(140,272,c),
(464,272,l),
(476,415,o),
(398,517,o),
(275,517,cs),
(141,517,o),
(46,401,o),
(45,237,cs),
(44,91,o),
(136,-13,o),
(267,-13,cs)
);
},
{
closed = 1;
nodes = (
(138,411,o),
(182,478,o),
(243,478,cs),
(311,478,o),
(362,411,o),
(367,308,c),
(371,312,ls),
(373,314,o),
(321,314,o),
(263,312,cs),
(138,308,l)
);
}
);
width = 510;
},
{
anchors = (
{
name = ogo;
pos = (191,-6);
},
{
name = top;
pos = (330,500);
}
);
layerId = m01;
name = Regular;
shapes = (
{
closed = 1;
nodes = (
(284,-13,o),
(360,26,o),
(410,80,c),
(393,108,l),
(348,72,o),
(296,47,o),
(253,47,cs),
(157,47,o),
(111,147,o),
(143,288,c),
(122,272,l),
(191,272,l),
(343,272,o),
(461,315,o),
(453,410,cs),
(448,462,o),
(394,517,o),
(303,517,cs),
(168,517,o),
(70,399,o),
(38,235,cs),
(10,90,o),
(81,-13,o),
(211,-13,cs)
);
},
{
closed = 1;
nodes = (
(159,404,o),
(219,478,o),
(283,478,cs),
(324,478,o),
(360,424,o),
(359,376,cs),
(357,324,o),
(297,312,o),
(233,310,c),
(127,307,l),
(142,291,l)
);
}
);
width = 486;
},
{
anchors = (
{
name = ogo;
pos = (218,-6);
},
{
name = top;
pos = (344,500);
}
);
hints = (
{
horizontal = 1;
place = (-66, 20);
place = (-66, 20);
type = Stem;
},
{
horizontal = 1;
place = (221, -5);
place = (221, -5);
type = Stem;
},
{
horizontal = 1;
place = (427, -8);
place = (427, -8);
type = Stem;
},
{
place = (-63, 134);
place = (-63, 134);
type = Stem;
},
{
place = (262, 134);
place = (262, 134);
type = Stem;
},
{
place = (-63, 133);
place = (-63, 133);
type = Stem;
}
);
layerId = "E0989092-07D5-4BE4-A82B-4E03160A36DB";
shapes = (
{
closed = 1;
nodes = (
(308,-18,o),
(394,22,o),
(454,78,c),
(429,111,l),
(374,65,o),
(316,33,o),
(260,33,cs),
(195,33,o),
(167,131,o),
(193,271,c),
(180,262,l),
(228,262,l),
(429,262,o),
(529,322,o),
(500,408,cs),
(474,482,o),
(419,515,o),
(332,515,cs),
(162,515,o),
(38,409,o),
(7,250,cs),
(-23,95,o),
(72,-18,o),
(220,-18,cs)
);
},
{
closed = 1;
nodes = (
(228,425,o),
(263,464,o),
(290,464,cs),
(315,464,o),
(328,439,o),
(328,359,cs),
(327,330,o),
(306,310,o),
(249,310,c),
(188,309,l),
(197,296,l)
);
}
);
width = 513;
}
);
unicode = 101;
},
{
color = 5;
glyphname = schwa;
layers = (
{
layerId = m01;
shapes = (
{
closed = 1;
nodes = (
(326,-15,o),
(444,103,o),
(476,267,cs),
(504,412,o),
(433,515,o),
(303,515,cs),
(230,515,o),
(144,476,o),
(94,422,c),
(111,394,l),
(156,430,o),
(218,455,o),
(261,455,cs),
(357,455,o),
(403,355,o),
(371,214,c),
(392,230,l),
(50,230,l),
(47,220,o),
(45,211,o),
(43,201,cs),
(19,74,o),
(76,-15,o),
(191,-15,cs)
);
},
{
closed = 1;
nodes = (
(160,24,o),
(123,96,o),
(141,205,c),
(130,185,l),
(387,195,l),
(372,211,l),
(355,98,o),
(295,24,o),
(231,24,cs)
);
}
);
width = 536;
},
{
associatedMasterId = m01;
layerId = "8D250E25-4A73-4E42-8D01-181B9D146360";
name = "1. Jan. 24, 12:11";
shapes = (
{
closed = 1;
nodes = (
(369,-26,o),
(464,90,o),
(465,254,cs),
(466,400,o),
(374,504,o),
(243,504,cs),
(170,504,o),
(92,465,o),
(53,411,c),
(75,383,l),
(113,419,o),
(170,444,o),
(213,444,cs),
(305,444,o),
(370,351,o),
(370,219,c),
(46,219,l),
(34,76,o),
(112,-26,o),
(235,-26,cs)
);
},
{
closed = 1;
nodes = (
(199,13,o),
(148,80,o),
(143,183,c),
(139,179,ls),
(137,177,o),
(189,177,o),
(247,179,cs),
(372,183,l),
(372,80,o),
(328,13,o),
(267,13,cs)
);
}
);
width = 510;
},
{
layerId = "E0989092-07D5-4BE4-A82B-4E03160A36DB";
shapes = (
{
closed = 1;
nodes = (
(353,-16,o),
(480,106,o),
(511,265,cs),
(541,420,o),
(443,516,o),
(295,516,cs),
(202,516,o),
(94,442,o),
(55,398,c),
(84,362,l),
(155,431,o),
(216,447,o),
(251,447,cs),
(308,447,o),
(349,368,o),
(323,229,c),
(325,231,l),
(-1,231,l),
(-4,221,o),
(-6,210,o),
(-7,202,cs),
(-37,48,o),
(61,-16,o),
(183,-16,cs)
);
},
{
closed = 1;
nodes = (
(192,25,o),
(145,36,o),
(173,192,c),
(170,189,l),
(318,187,l),
(316,190,l),
(287,80,o),
(250,25,o),
(223,25,cs)
);
}
);
width = 540;
}
);
unicode = 601;
},
{
color = 5;
glyphname = f;
layers = (
{
layerId = m01;
shapes = (
{
closed = 1;
nodes = (
(62,-212,o),
(135,-130,o),
(160,0,cs),
(250,462,l),
(373,462,l),
(380,502,l),
(258,502,l),
(277,598,ls),
(298,709,o),
(339,787,o),
(394,787,cs),
(448,787,o),
(457,722,o),
(468,672,c),
(504,672,l),
(538,792,l),
(515,805,o),
(462,814,o),
(428,814,cs),
(303,814,o),
(209,711,o),
(181,566,cs),
(169,502,l),
(60,502,l),
(53,462,l),
(160,462,l),
(64,-32,ls),
(45,-130,o),
(19,-192,o),
(-4,-192,cs),
(-15,-192,o),
(-28,-159,o),
(-39,-106,c),
(-71,-106,l),
(-89,-196,l),
(-72,-206,o),
(-49,-212,o),
(-30,-212,cs)
);
}
);
width = 354;
},
{
associatedMasterId = m01;
layerId = "A8992DFB-D995-4A8B-9681-2BC8D3A33222";
name = "1. Jan. 24, 11:36";
shapes = (
{
closed = 1;
nodes = (
(219,598,l),
(219,709,o),
(244,787,o),
(299,787,cs),
(353,787,o),
(375,722,o),
(395,672,c),
(431,672,l),
(442,792,l),
(417,805,o),
(362,814,o),
(328,814,cs),
(203,814,o),
(129,711,o),
(129,566,c)
);
},
{
closed = 1;
nodes = (
(313,0,l),
(313,19,l),
(219,50,l),
(129,50,l),
(38,20,l),
(38,0,l)
);
},
{
closed = 1;
nodes = (
(219,50,l),
(219,598,l),
(129,566,l),
(129,50,l)
);
},
{
closed = 1;
nodes = (
(341,462,l),
(341,502,l),
(22,502,l),
(20,462,l)
);
}
);
width = 372;
},
{
hints = (
{
horizontal = 1;
place = (-79, -55);
place = (-79, -55);
type = Stem;
},
{
horizontal = 1;
place = (373, -32);
place = (373, -32);
type = Stem;
},
{
horizontal = 1;
place = (705, -46);
place = (705, -46);
type = Stem;
},
{
place = (7, 97);
place = (7, 97);
type = Stem;
},
{
place = (276, -5);
place = (276, -5);
type = Stem;
},
{
horizontal = 1;
place = (-79, -54);
place = (-79, -54);
type = Stem;
}
);
layerId = "E0989092-07D5-4BE4-A82B-4E03160A36DB";
shapes = (
{
closed = 1;
nodes = (
(90,-239,o),
(188,-120,o),
(218,35,cs),
(300,452,l),
(428,452,l),
(438,499,l),
(308,499,l),
(329,605,ls),
(351,717,o),
(388,784,o),
(401,784,cs),
(458,784,o),
(464,721,o),
(454,669,c),
(504,669,l),
(536,784,l),
(498,805,o),
(477,817,o),
(436,817,cs),
(269,817,o),
(171,698,o),
(141,543,cs),
(132,499,l),
(33,499,l),
(25,452,l),
(124,452,l),
(30,-27,ls),
(8,-139,o),
(-29,-206,o),
(-42,-212,c),
(-89,-212,o),
(-93,-153,o),
(-85,-119,c),
(-125,-119,l),
(-151,-212,l),
(-120,-229,o),
(-103,-239,o),
(-70,-239,cs)
);
}
);
width = 362;
}
);
unicode = 102;
},
{
color = 5;
glyphname = g;
layers = (
{
anchors = (
{
name = top;
pos = (331,490);
}
);
layerId = m01;
shapes = (
{
closed = 1;
nodes = (
(361,-217,o),
(417,-115,o),
(445,30,cs),
(528,460,l),
(485,486,l),
(466,504,o),
(425,516,o),
(388,516,cs),
(221,516,o),
(82,409,o),
(53,258,cs),
(49,236,o),
(47,215,o),
(47,195,cs),
(47,71,o),
(125,-11,o),
(216,-11,cs),
(256,-11,o),
(309,8,o),
(356,38,c),
(349,0,ls),
(327,-114,o),
(267,-194,o),
(205,-194,cs),
(125,-194,o),
(77,-137,o),
(77,-76,cs),
(77,-69,o),
(78,-61,o),
(79,-54,c),
(35,-54,l),
(11,-179,l),
(58,-201,o),
(133,-217,o),
(177,-217,cs)
);
},
{
closed = 1;
nodes = (
(145,229,o),
(148,257,o),
(154,286,cs),
(175,394,o),
(251,471,o),
(338,471,cs),
(366,471,o),
(409,462,o),
(434,442,c),
(364,77,l),
(327,50,o),
(291,34,o),
(266,34,cs),
(191,34,o),
(145,101,o),
(145,204,cs)
);
}
);
width = 566;
},
{
associatedMasterId = m01;
layerId = "3192C36B-E30A-466F-8F8A-7BE123BAD7E2";
name = "1. Jan. 24, 11:37";
shapes = (
{
closed = 1;
nodes = (
(406,-216,o),
(503,-131,o),
(503,-10,cs),
(503,42,o),
(456,92,o),
(391,92,cs),
(185,92,ls),
(136,92,o),
(100,110,o),
(100,149,cs),
(100,161,o),
(111,180,o),
(121,195,cs),
(140,223,o),
(149,240,o),
(143,248,cs),
(138,255,o),
(110,245,o),
(81,208,cs),
(61,181,o),
(49,154,o),
(49,131,cs),
(49,54,o),
(105,0,o),
(185,0,cs),
(325,0,ls),
(401,0,o),
(446,-28,o),
(446,-67,cs),
(446,-126,o),
(379,-168,o),
(271,-168,cs),
(173,-168,o),
(84,-124,o),
(84,-62,cs),
(84,-35,o),
(95,-20,o),
(116,2,cs),
(149,37,o),
(173,65,o),
(164,70,cs),
(155,76,o),
(133,69,o),
(103,41,cs),
(66,4,o),
(34,-43,o),
(34,-86,cs),
(34,-162,o),
(137,-216,o),
(255,-216,cs)
);
},
{
closed = 1;
nodes = (
(382,168,o),
(453,249,o),
(453,361,cs),
(453,454,o),
(384,515,o),
(274,515,cs),
(149,515,o),
(74,446,o),
(74,342,cs),
(74,240,o),
(146,168,o),
(254,168,cs)
);
},
{
closed = 1;
nodes = (
(197,203,o),
(174,261,o),
(174,358,cs),
(174,438,o),
(200,480,o),
(256,480,cs),
(321,480,o),
(358,427,o),
(358,328,cs),
(358,250,o),
(319,203,o),
(267,203,cs)
);
},
{
closed = 1;
nodes = (
(550,458,l),
(550,497,l),
(364,485,l),
(364,454,o),
(374,460,o),
(430,457,cs),
(541,450,l)
);
}
);
width = 550;
},
{
anchors = (
{
name = top;
pos = (363,500);
}
);
hints = (
{
horizontal = 1;
place = (-248, 9);
place = (-248, 9);
type = Stem;
},
{
horizontal = 1;
place = (-32, 73);
place = (-32, 73);
type = Stem;
},
{
horizontal = 1;
place = (136, 12);
place = (136, 12);
type = Stem;
},
{
horizontal = 1;
place = (446, 13);
place = (446, 13);
type = Stem;
},
{
place = (-22, 78);
place = (-22, 78);
type = Stem;
},
{
place = (420, 70);
place = (420, 70);
type = Stem;
},
{
horizontal = 1;
place = (420, 26);
place = (420, 26);
type = Stem;
},
{
place = (10, 99);
place = (10, 99);
type = Stem;
},
{
place = (319, 136);
place = (319, 136);
type = Stem;
},
{
place = (18, 141);
place = (18, 141);
type = Stem;
},
{
horizontal = 1;
place = (-29, 21);
target = up;
type = BottomGhost;
}
);
layerId = "E0989092-07D5-4BE4-A82B-4E03160A36DB";
shapes = (
{
closed = 1;
nodes = (
(406,-247,o),
(462,-145,o),
(490,0,cs),
(580,464,l),
(533,483,ls),
(485,504,o),
(429,519,o),
(397,519,cs),
(193,519,o),
(35,403,o),
(15,238,cs),
(13,222,o),
(11,207,o),
(11,192,cs),
(11,69,o),
(95,-14,o),
(224,-14,cs),
(247,-14,o),
(285,-9,o),
(314,-2,c),
(308,-30,ls),
(286,-144,o),
(273,-224,o),
(211,-224,cs),
(131,-224,o),
(83,-167,o),
(83,-106,cs),
(83,-99,o),
(84,-91,o),
(85,-84,c),
(41,-84,l),
(17,-209,l),
(64,-231,o),
(139,-247,o),
(183,-247,cs)
);
},
{
closed = 1;
nodes = (
(194,216,o),
(198,253,o),
(206,293,cs),
(227,391,o),
(285,461,o),
(345,461,cs),
(361,461,o),
(384,449,o),
(399,434,c),
(325,52,l),
(309,43,o),
(286,37,o),
(274,37,cs),
(223,37,o),
(194,94,o),
(194,183,cs)
);
}
);
width = 593;
},
{
anchors = (
{
name = top;
pos = (366,500);
}
);
associatedMasterId = "E0989092-07D5-4BE4-A82B-4E03160A36DB";
hints = (
{
horizontal = 1;
place = (-248, 9);
place = (-248, 9);
type = Stem;
},
{
horizontal = 1;
place = (-32, 73);
place = (-32, 73);
type = Stem;
},
{
horizontal = 1;
place = (136, 12);
place = (136, 12);
type = Stem;
},
{
horizontal = 1;
place = (446, 13);
place = (446, 13);
type = Stem;
},
{
place = (-22, 78);
place = (-22, 78);
type = Stem;
},
{
place = (420, 70);
place = (420, 70);
type = Stem;
},
{
horizontal = 1;
place = (420, 26);
place = (420, 26);
type = Stem;
},
{
place = (10, 99);
place = (10, 99);
type = Stem;
},
{
place = (319, 136);
place = (319, 136);
type = Stem;
},
{
place = (18, 141);
place = (18, 141);
type = Stem;
},
{
horizontal = 1;
place = (-29, 21);
target = up;
type = BottomGhost;
}
);
layerId = "5B926285-5472-4226-A356-305ED75CE713";
name = "12. Jan. 24, 21:04";
shapes = (
{
closed = 1;
nodes = (
(493,0,l),
(583,464,l),
(536,483,l),
(488,504,o),
(432,519,o),
(400,519,cs),
(196,519,o),
(38,403,o),
(18,238,cs),
(-5,90,o),
(82,-14,o),
(227,-14,cs),
(250,-14,o),
(289,-9,o),
(318,-2,c),
(317,0,l),
(311,-30,l)
);
},
{
closed = 1;
nodes = (
(409,-247,o),
(465,-145,o),
(493,0,c),
(311,-30,l),
(289,-144,o),
(276,-224,o),
(214,-224,cs),
(125,-224,o),
(75,-153,o),
(88,-84,c),
(44,-84,l),
(20,-209,l),
(67,-231,o),
(142,-247,o),
(186,-247,cs)
);
},
{
closed = 1;
nodes = (
(207,37,o),
(179,143,o),
(209,293,cs),
(230,391,o),
(288,461,o),
(348,461,cs),
(364,461,o),
(388,449,o),
(402,433,c),
(402,436,l),
(327,49,l),
(328,52,l),
(312,43,o),
(289,37,o),
(277,37,cs)
);
}
);
width = 563;
},
{
anchors = (
{
name = top;
pos = (324,490);
}
);
associatedMasterId = m01;
layerId = "6A8C3D1D-2DF1-4DFE-8B72-DD853FBA1520";
name = "12. Jan. 24, 21:04";
shapes = (
{
closed = 1;
nodes = (
(147,286,l),
(168,394,o),
(244,471,o),
(331,471,cs),
(374,471,o),
(450,450,o),
(450,400,cs),
(450,399,l),
(520,460,l),
(478,486,l),
(459,504,o),
(418,516,o),
(381,516,cs),
(214,516,o),
(75,409,o),
(46,258,c)
);
},
{
closed = 1;
nodes = (
(354,-217,o),
(410,-115,o),
(438,30,c),
(342,0,l),
(320,-114,o),
(260,-194,o),
(198,-194,cs),
(109,-194,o),
(59,-123,o),
(72,-54,c),
(28,-54,l),
(4,-179,l),
(51,-201,o),
(126,-217,o),
(170,-217,cs)
);
},
{
closed = 1;
nodes = (
(262,-11,o),
(337,22,o),
(392,69,c),
(397,110,l),
(350,65,o),
(293,34,o),
(259,34,cs),
(165,34,o),
(118,138,o),
(147,286,c),
(46,258,l),
(15,100,o),
(103,-11,o),
(209,-11,cs)
);
},
{
closed = 1;
nodes = (
(438,30,l),
(521,460,l),
(431,460,l),
(342,0,l)
);
}
);
width = 540;
}
);
unicode = 103;
},
{
color = 5;
glyphname = h;
layers = (
{
anchors = (
{
name = top;
pos = (272,736);
}
);
layerId = m01;
shapes = (
{
closed = 1;
nodes = (
(471,-16,o),
(529,3,o),
(573,31,c),
(558,57,l),
(539,44,o),
(515,34,o),
(500,34,cs),
(480,34,o),
(470,46,o),
(470,70,cs),
(470,77,o),
(471,86,o),
(473,96,cs),
(526,366,ls),
(528,376,o),
(529,385,o),
(529,394,cs),
(529,466,o),
(471,515,o),
(380,515,cs),
(331,515,o),
(268,483,o),
(216,447,c),
(268,712,ls),
(270,724,o),
(271,734,o),
(271,743,cs),
(271,783,o),
(253,800,o),
(214,800,cs),
(175,800,o),
(117,781,o),
(73,753,c),
(88,727,l),
(107,740,o),
(131,750,o),
(146,750,cs),
(166,750,o),
(176,738,o),
(176,714,cs),
(176,707,o),
(175,698,o),
(173,688,cs),
(38,0,l),
(128,0,l),
(208,407,l),
(251,441,o),
(303,470,o),
(341,470,cs),
(399,470,o),
(434,430,o),
(434,371,cs),
(434,360,o),
(433,349,o),
(431,338,cs),
(378,72,ls),
(376,60,o),
(375,50,o),
(375,41,cs),
(375,1,o),
(393,-16,o),
(432,-16,cs)
);
}
);
width = 589;
},
{
associatedMasterId = m01;
layerId = "8DB1B957-2715-4A2D-B5E6-8FC92795BC9D";
name = "1. Jan. 24, 11:40";
shapes = (
{
closed = 1;
nodes = (
(611,0,l),
(611,20,l),
(520,50,l),
(520,366,ls),
(520,453,o),
(447,515,o),
(345,515,cs),
(281,515,o),
(203,462,o),
(157,415,c),
(160,374,l),
(200,419,o),
(263,470,o),
(314,470,cs),
(382,470,o),
(430,415,o),
(430,338,cs),
(430,50,l),
(356,30,l),
(356,0,l)
);
},
{
closed = 1;
nodes = (
(268,0,l),
(268,30,l),
(194,50,l),
(104,50,l),
(13,20,l),
(13,0,l)
);
},
{
closed = 1;
nodes = (
(194,50,l),
(194,718,l),
(196,794,l),
(186,800,l),
(0,745,l),
(0,729,l),
(104,717,l),
(104,50,l)
);
}
);
width = 611;
},
{
anchors = (
{
name = top;
pos = (340,778);
}
);
hints = (
{
horizontal = 1;
place = (-82, -63);
place = (-82, -63);
type = Stem;
},
{
horizontal = 1;
place = (393, -33);
place = (393, -33);
type = Stem;
},
{
place = (-18, 97);
place = (-18, 97);
type = Stem;
},
{
place = (308, 97);
place = (308, 97);
type = Stem;
}
);
layerId = "E0989092-07D5-4BE4-A82B-4E03160A36DB";
shapes = (
{
closed = 1;
nodes = (
(513,-16,o),
(591,3,o),
(634,31,c),
(619,57,l),
(599,44,o),
(575,34,o),
(560,34,cs),
(540,34,o),
(530,46,o),
(530,70,cs),
(530,77,o),
(531,86,o),
(533,96,cs),
(585,366,ls),
(587,375,o),
(587,383,o),
(587,391,cs),
(587,466,o),
(517,517,o),
(407,517,cs),
(372,517,o),
(323,502,o),
(281,478,c),
(329,722,ls),
(330,727,o),
(330,732,o),
(330,736,cs),
(330,788,o),
(279,810,o),
(235,810,cs),
(168,810,o),
(90,791,o),
(47,763,c),
(62,737,l),
(82,750,o),
(106,760,o),
(121,760,cs),
(141,760,o),
(151,748,o),
(151,724,cs),
(151,717,o),
(150,708,o),
(148,698,cs),
(13,0,l),
(189,0,l),
(269,419,l),
(301,443,o),
(341,461,o),
(365,461,cs),
(393,461,o),
(409,432,o),
(409,386,cs),
(409,372,o),
(407,355,o),
(404,338,cs),
(352,72,ls),
(351,67,o),
(351,62,o),
(351,58,cs),
(351,6,o),
(402,-16,o),
(446,-16,cs)
);
}
);
width = 628;
},
{
anchors = (
{
name = top;
pos = (289,736);
}
);
associatedMasterId = m01;
layerId = "ADB94928-DD27-4F0B-B8F3-899B9D37F866";
name = "12. Jan. 24, 21:06";
shapes = (
{
closed = 1;
nodes = (
(145,0,l),
(229,426,l),
(215,399,l),
(260,436,o),
(317,470,o),
(358,470,cs),
(426,470,o),
(463,415,o),
(448,338,cs),
(395,72,l),
(490,96,l),
(543,366,ls),
(560,453,o),
(499,515,o),
(397,515,cs),
(345,515,o),
(276,479,o),
(223,440,c),
(230,430,l),
(285,712,l),
(190,688,l),
(55,0,l)
);
},
{
closed = 1;
nodes = (
(488,-16,o),
(546,3,o),
(590,31,c),
(575,57,l),
(556,44,o),
(532,34,o),
(517,34,cs),
(491,34,o),
(482,54,o),
(490,96,c),
(395,72,l),
(385,10,o),
(401,-16,o),
(449,-16,cs)
);
},
{
closed = 1;
nodes = (
(285,712,l),
(295,774,o),
(279,800,o),
(231,800,cs),
(192,800,o),
(134,781,o),
(90,753,c),
(105,727,l),
(124,740,o),
(148,750,o),
(163,750,cs),
(189,750,o),
(198,730,o),
(190,688,c)
);
}
);
width = 611;
},
{
anchors = (
{
name = top;
pos = (330,778);
}
);
associatedMasterId = "E0989092-07D5-4BE4-A82B-4E03160A36DB";
hints = (
{
horizontal = 1;
place = (-82, -63);
place = (-82, -63);
type = Stem;
},
{
horizontal = 1;
place = (393, -33);
place = (393, -33);
type = Stem;
},
{
place = (-18, 97);
place = (-18, 97);
type = Stem;
},
{
place = (308, 97);
place = (308, 97);
type = Stem;
}
);
layerId = "CF63CBB0-6CD8-4547-AC2B-50F9ADF03112";
name = "12. Jan. 24, 21:07";
shapes = (
{
closed = 1;
nodes = (
(179,0,l),
(260,422,l),
(259,419,l),
(291,443,o),
(331,461,o),
(355,461,cs),
(392,461,o),
(408,410,o),
(394,338,cs),
(342,72,l),
(523,96,l),
(575,366,ls),
(592,455,o),
(519,517,o),
(397,517,cs),
(362,517,o),
(312,502,o),
(270,477,c),
(271,476,l),
(319,722,l),
(138,698,l),
(3,0,l)
);
},
{
closed = 1;
nodes = (
(503,-16,o),
(581,3,o),
(624,31,c),
(609,57,l),
(589,44,o),
(565,34,o),
(550,34,cs),
(530,34,o),
(520,46,o),
(520,70,cs),
(520,77,o),
(521,86,o),
(523,96,c),
(342,72,l),
(341,67,o),
(341,62,o),
(341,58,cs),
(341,6,o),
(392,-16,o),
(436,-16,cs)
);
},
{
closed = 1;
nodes = (
(319,722,l),
(320,727,o),
(320,732,o),
(320,736,cs),
(320,788,o),
(269,810,o),
(225,810,cs),
(158,810,o),
(80,791,o),
(37,763,c),
(52,737,l),
(72,750,o),
(96,760,o),
(111,760,cs),
(131,760,o),
(141,748,o),
(141,724,cs),
(141,717,o),
(140,708,o),
(138,698,c)
);
}
);
width = 628;
}
);
unicode = 104;
},
{
color = 5;
glyphname = hbar;
layers = (
{
layerId = m01;
shapes = (
{
closed = 1;
nodes = (
(386,599,l),
(386,639,l),
(38,639,l),
(38,599,l)
);
},
{
pos = (21,0);
ref = h;
}
);
width = 647;
},
{
associatedMasterId = m01;
layerId = "E9985261-3291-4F33-92F3-764F9EFE2FE5";
name = "3. Jan. 24, 21:15";
shapes = (
{
closed = 1;
nodes = (
(611,0,l),
(611,20,l),
(520,50,l),
(520,366,ls),
(520,453,o),
(447,515,o),
(345,515,cs),
(281,515,o),
(203,462,o),
(157,415,c),
(160,374,l),
(200,419,o),
(263,470,o),
(314,470,cs),
(382,470,o),
(430,415,o),
(430,338,cs),
(430,50,l),
(356,30,l),
(356,0,l)
);
},
{
closed = 1;
nodes = (
(268,0,l),
(268,30,l),
(194,50,l),
(104,50,l),
(13,20,l),
(13,0,l)
);
},
{
closed = 1;
nodes = (
(194,50,l),
(194,718,l),
(196,794,l),
(186,800,l),
(0,745,l),
(0,729,l),
(104,717,l),
(104,50,l)
);
},
{
closed = 1;
nodes = (
(347,599,l),
(347,639,l),
(-1,639,l),
(-1,599,l)
);
}
);
width = 611;
},
{
hints = (
{
horizontal = 1;
place = (-3, 16);
place = (-3, 16);
type = Stem;
},
{
horizontal = 1;
place = (472, 46);
place = (472, 46);
type = Stem;
},
{
horizontal = 1;
place = (596, 46);
place = (596, 46);
type = Stem;
},
{
place = (61, 176);
place = (61, 176);
type = Stem;
},
{
place = (387, 176);
place = (387, 176);
type = Stem;
}
);
layerId = "E0989092-07D5-4BE4-A82B-4E03160A36DB";
shapes = (
{
closed = 1;
nodes = (
(348,589,l),
(348,639,l),
(0,639,l),
(0,589,l)
);
},
{
ref = h;
}
);
width = 628;
}
);
unicode = 295;
},
{
color = 5;
glyphname = hcircumflex;
layers = (
{
background = {
shapes = (
{
closed = 1;
nodes = (
(616,0,l),
(616,20,l),
(508,56,l),
(525,32,l),
(525,366,ls),
(525,453,o),
(452,515,o),
(350,515,cs),
(298,515,o),
(236,479,o),
(190,440,c),
(199,430,l),
(199,718,l),
(201,794,l),
(191,800,l),
(5,745,l),
(5,729,l),
(127,715,l),
(109,735,l),
(109,32,l),
(126,56,l),
(18,20,l),
(18,0,l),
(273,0,l),
(273,30,l),
(182,55,l),
(199,32,l),
(199,426,l),
(190,399,l),
(228,436,o),
(278,470,o),
(319,470,cs),
(387,470,o),
(435,415,o),
(435,338,cs),
(435,32,l),
(452,55,l),
(361,30,l),
(361,0,l)
);
}
);
};
layerId = m01;
shapes = (
{
ref = h;
},
{
alignment = -1;
pos = (-85,40);
ref = circumflexcomb.case;
}
);
width = 589;
},
{
hints = (
{
horizontal = 1;
place = (-3, 16);
place = (-3, 16);
type = Stem;
},
{
horizontal = 1;
place = (462, 45);
place = (462, 45);
type = Stem;
},
{
place = (61, 176);
place = (61, 176);
type = Stem;
},
{
place = (387, 176);
place = (387, 176);
type = Stem;
}
);
layerId = "E0989092-07D5-4BE4-A82B-4E03160A36DB";
shapes = (
{
ref = h;
},
{
alignment = -1;
pos = (-97,68);
ref = circumflexcomb.case;
}
);
width = 628;
}
);
unicode = 293;
},
{
color = 5;
glyphname = idotless;
layers = (
{
anchors = (
{
name = ogo;
pos = (92,0);
},
{
name = top;
pos = (248,500);
}
);
layerId = m01;
shapes = (
{
closed = 1;
nodes = (
(182,-16,o),
(240,3,o),
(284,31,c),
(269,57,l),
(250,44,o),
(226,34,o),
(211,34,cs),
(191,34,o),
(181,46,o),
(181,70,cs),
(181,77,o),
(182,86,o),
(184,96,cs),
(248,422,ls),
(250,434,o),
(251,444,o),
(251,453,cs),
(251,493,o),
(233,510,o),
(194,510,cs),
(155,510,o),
(97,491,o),
(53,463,c),
(68,437,l),
(87,450,o),
(111,460,o),
(126,460,cs),
(146,460,o),
(156,448,o),
(156,424,cs),
(156,417,o),
(155,408,o),
(153,398,cs),
(89,72,ls),
(87,60,o),
(86,50,o),
(86,41,cs),
(86,1,o),
(104,-16,o),
(143,-16,cs)
);
}
);
width = 324;
},
{
anchors = (
{
name = ogo;
pos = (125,0);
},
{
name = top;
pos = (241,500);
}
);
layerId = "E0989092-07D5-4BE4-A82B-4E03160A36DB";
shapes = (
{
closed = 1;
nodes = (
(210,-16,o),
(288,3,o),
(331,31,c),
(316,57,l),
(296,44,o),
(272,34,o),
(257,34,cs),
(237,34,o),
(227,46,o),
(227,70,cs),
(227,77,o),
(228,86,o),
(230,96,cs),
(294,422,ls),
(295,427,o),
(295,432,o),
(295,436,cs),
(295,488,o),
(244,510,o),
(200,510,cs),
(133,510,o),
(55,491,o),
(12,463,c),
(27,437,l),
(47,450,o),
(71,460,o),
(86,460,cs),
(106,460,o),
(116,448,o),
(116,424,cs),
(116,417,o),
(115,408,o),
(113,398,cs),
(49,72,ls),
(48,67,o),
(48,62,o),
(48,58,cs),
(48,6,o),
(99,-16,o),
(143,-16,cs)
);
}
);
width = 348;
},
{
anchors = (
{
name = ogo;
pos = (95,0);
},
{
name = top;
pos = (251,500);
}
);
associatedMasterId = m01;
layerId = "431BE71A-BF6E-4AAC-A18D-70EAEB528821";
name = "12. Jan. 24, 21:08";
shapes = (
{
closed = 1;
nodes = (
(187,96,l),
(251,422,l),
(156,398,l),
(92,72,l)
);
},
{
closed = 1;
nodes = (
(185,-16,o),
(243,3,o),
(287,31,c),
(272,57,l),
(253,44,o),
(229,34,o),
(214,34,cs),
(188,34,o),
(179,54,o),
(187,96,c),
(92,72,l),
(82,10,o),
(98,-16,o),
(146,-16,cs)
);
},
{
closed = 1;
nodes = (
(251,422,l),
(261,484,o),
(245,510,o),
(197,510,cs),
(158,510,o),
(100,491,o),
(56,463,c),
(71,437,l),
(90,450,o),
(114,460,o),
(129,460,cs),
(155,460,o),
(164,440,o),
(156,398,c)
);
}
);
width = 338;
},
{
anchors = (
{
name = ogo;
pos = (135,0);
},
{
name = top;
pos = (251,500);
}
);
associatedMasterId = "E0989092-07D5-4BE4-A82B-4E03160A36DB";
layerId = "C5AEA625-7D3F-45F4-9FBC-31D17DC9A57D";
name = "12. Jan. 24, 21:08";
shapes = (
{
closed = 1;
nodes = (
(240,96,l),
(304,422,l),
(123,398,l),
(59,72,l)
);
},
{
closed = 1;
nodes = (
(220,-16,o),
(298,3,o),
(341,31,c),
(326,57,l),
(306,44,o),
(282,34,o),
(267,34,cs),
(247,34,o),
(237,46,o),
(237,70,cs),
(237,77,o),
(238,86,o),
(240,96,c),
(59,72,l),
(58,67,o),
(58,62,o),
(58,58,cs),
(58,6,o),
(109,-16,o),
(153,-16,cs)
);
},
{
closed = 1;
nodes = (
(304,422,l),
(305,427,o),
(305,432,o),
(305,436,cs),
(305,488,o),
(254,510,o),
(210,510,cs),
(143,510,o),
(65,491,o),
(22,463,c),
(37,437,l),
(57,450,o),
(81,460,o),
(96,460,cs),
(116,460,o),
(126,448,o),
(126,424,cs),
(126,417,o),
(125,408,o),
(123,398,c)
);
}
);
width = 368;
}
);
unicode = 305;
},
{
color = 5;
glyphname = j;
layers = (
{
layerId = m01;
shapes = (
{
alignment = -1;
pos = (-1,0);
ref = jdotless;
},
{
alignment = -1;
pos = (-38,0);
ref = dotaccentcomb;
}
);
width = 311;
},
{
associatedMasterId = m01;
layerId = "AD174E00-7E5C-4841-A718-CD0FD23CFE27";
name = "1. Jan. 24, 11:45";
shapes = (
{
closed = 1;
nodes = (
(215,50,l),
(215,434,l),
(217,510,l),
(207,516,l),
(21,461,l),
(21,445,l),
(125,433,l),
(125,50,l)
);
},
{
closed = 1;
nodes = (
(56,-215,l),
(56,-215,o),
(69,-213,o),
(94,-197,cs),
(165,-155,o),
(215,-52,o),
(215,50,c),
(125,50,l),
(125,-59,o),
(92,-159,o),
(46,-192,c),
(46,-194,o),
(50,-204,o),
(55,-215,c)
);
},
{
closed = 1;
nodes = (
(193,598,o),
(220,625,o),
(220,659,cs),
(220,693,o),
(193,720,o),
(160,720,cs),
(125,720,o),
(98,693,o),
(98,659,cs),
(98,625,o),
(125,598,o),
(160,598,cs)
);
}
);
width = 318;
},
{
hints = (
{
horizontal = 1;
place = (-218, 34);
place = (-218, 34);
type = Stem;
},
{
horizontal = 1;
place = (500, -20);
target = down;
type = TopGhost;
},
{
horizontal = 1;
place = (574, 196);
place = (574, 196);
type = Stem;
},
{
place = (82, 176);
place = (82, 176);
type = Stem;
},
{
place = (52, 208);
place = (52, 208);
type = Stem;
}
);
layerId = "E0989092-07D5-4BE4-A82B-4E03160A36DB";
shapes = (
{
alignment = -1;
pos = (-12,0);
ref = jdotless;
},
{
alignment = -1;
pos = (-70,0);
ref = dotaccentcomb;
}
);
width = 315;
}
);
unicode = 106;
},
{
color = 5;
glyphname = jdotless;
layers = (
{
anchors = (
{
name = top;
pos = (252,500);
}
);
layerId = m01;
shapes = (
{
closed = 1;
nodes = (
(-27,-215,o),
(-14,-213,o),
(14,-197,cs),
(94,-155,o),
(163,-52,o),
(183,50,cs),
(256,422,ls),
(258,434,o),
(259,444,o),
(259,453,cs),
(259,493,o),
(241,510,o),
(202,510,cs),
(163,510,o),
(105,491,o),
(61,463,c),
(76,437,l),
(95,450,o),
(119,460,o),
(134,460,cs),
(154,460,o),
(164,448,o),
(164,424,cs),
(164,417,o),
(163,408,o),
(161,398,cs),
(93,50,ls),
(72,-59,o),
(20,-159,o),
(-33,-192,c),
(-28,-215,l)
);
}
);
width = 311;
},
{
associatedMasterId = m01;
layerId = "1DE9B65E-76D8-4CA9-B06C-536EB58BF2F2";
name = "1. Jan. 24, 11:43";
shapes = (
{
closed = 1;
nodes = (
(215,50,l),
(215,434,l),
(217,510,l),
(207,516,l),
(21,461,l),
(21,445,l),
(125,433,l),
(125,50,l)
);
},
{
closed = 1;
nodes = (
(56,-215,l),
(56,-215,o),
(69,-213,o),
(94,-197,cs),
(165,-155,o),
(215,-52,o),
(215,50,c),
(125,50,l),
(125,-59,o),
(92,-159,o),
(46,-192,c),
(46,-194,o),
(50,-204,o),
(55,-215,c)
);
}
);
width = 315;
},
{
anchors = (
{
name = top;
pos = (260,500);
}
);
layerId = "E0989092-07D5-4BE4-A82B-4E03160A36DB";
shapes = (
{
closed = 1;
nodes = (
(-35,-218,o),
(23,-201,o),
(52,-185,cs),
(137,-138,o),
(211,-40,o),
(229,53,cs),
(301,422,ls),
(302,427,o),
(302,432,o),
(302,436,cs),
(302,488,o),
(251,510,o),
(207,510,cs),
(140,510,o),
(62,491,o),
(19,463,c),
(34,437,l),
(54,450,o),
(78,460,o),
(93,460,cs),
(113,460,o),
(123,448,o),
(123,424,cs),
(123,417,o),
(122,408,o),
(120,398,cs),
(54,55,ls),
(27,-83,o),
(-27,-182,o),
(-76,-184,c),
(-78,-218,l)
);
}
);
width = 325;
},
{
anchors = (
{
name = top;
pos = (260,500);
}
);
associatedMasterId = "E0989092-07D5-4BE4-A82B-4E03160A36DB";
layerId = "0AC8AE5F-165F-497A-BC13-AFA81333BEF2";
name = "12. Jan. 24, 21:10";
shapes = (
{
closed = 1;
nodes = (
(-35,-218,o),
(23,-201,o),
(52,-185,cs),
(137,-138,o),
(211,-40,o),
(229,53,cs),
(301,422,l),
(120,398,l),
(54,55,ls),
(27,-83,o),
(-27,-182,o),
(-76,-184,c),
(-78,-218,l)
);
},
{
closed = 1;
nodes = (
(301,422,l),
(302,427,o),
(302,432,o),
(302,436,cs),
(302,488,o),
(251,510,o),
(207,510,cs),
(140,510,o),
(62,491,o),
(19,463,c),
(34,437,l),
(54,450,o),
(78,460,o),
(93,460,cs),
(113,460,o),
(123,448,o),
(123,424,cs),
(123,417,o),
(122,408,o),
(120,398,c)
);
}
);
width = 325;
},
{
anchors = (
{
name = top;
pos = (279,500);
}
);
associatedMasterId = m01;
layerId = "16849981-08E2-4BD8-B7B4-1F640F11A8ED";
name = "12. Jan. 24, 21:10";
shapes = (
{
closed = 1;
nodes = (
(-15,-215,o),
(-2,-213,o),
(26,-197,cs),
(106,-155,o),
(175,-52,o),
(195,50,cs),
(268,422,l),
(173,398,l),
(105,50,ls),
(84,-59,o),
(32,-159,o),
(-21,-192,c),
(-16,-215,l)
);
},
{
closed = 1;
nodes = (
(268,422,l),
(278,484,o),
(262,510,o),
(214,510,cs),
(175,510,o),
(117,491,o),
(73,463,c),
(88,437,l),
(107,450,o),
(131,460,o),
(146,460,cs),
(172,460,o),
(181,440,o),
(173,398,c)
);
}
);
width = 315;
}
);
unicode = 567;
},
{
color = 5;
glyphname = k;
layers = (
{
layerId = m01;
shapes = (
{
closed = 1;
nodes = (
(133,0,l),
(174,208,l),
(253,271,l),
(367,0,l),
(517,0,l),
(521,20,l),
(454,51,l),
(331,333,l),
(493,462,l),
(571,480,l),
(575,500,l),
(371,500,l),
(368,480,l),
(420,462,l),
(183,255,l),
(273,712,ls),
(275,724,o),
(276,734,o),
(276,743,cs),
(276,783,o),
(258,800,o),
(219,800,cs),
(180,800,o),
(122,781,o),
(78,753,c),
(93,727,l),
(112,740,o),
(136,750,o),
(151,750,cs),
(171,750,o),
(181,738,o),
(181,714,cs),
(181,707,o),
(180,698,o),
(178,688,cs),
(44,0,l)
);
}
);
width = 556;
},
{
associatedMasterId = m01;
layerId = "9B6F67A2-0059-402E-AE8F-5FD6A9989018";
name = "1. Jan. 24, 11:45";
shapes = (
{
closed = 1;
nodes = (
(204,50,l),
(204,718,l),
(206,794,l),
(196,800,l),
(10,745,l),
(10,729,l),
(117,716,l),
(117,50,l)
);
},
{
closed = 1;
nodes = (
(298,0,l),
(298,20,l),
(204,50,l),
(114,50,l),
(23,20,l),
(23,0,l)
);
},
{
closed = 1;
nodes = (
(587,0,l),
(587,20,l),
(513,51,l),
(320,353,l),
(261,290,l),
(437,0,l)
);
},
{
closed = 1;
nodes = (
(473,462,l),
(547,480,l),
(548,500,l),
(344,500,l),
(344,480,l),
(400,462,l),
(177,227,l),
(162,169,l)
);
}
);
width = 580;
},
{
hints = (
{
horizontal = 1;
place = (-82, -63);
place = (-82, -63);
type = Stem;
},
{
horizontal = 1;
place = (408, -63);
place = (408, -63);
type = Stem;
},
{
place = (-4, 92);
place = (-4, 92);
type = Stem;
}
);
layerId = "E0989092-07D5-4BE4-A82B-4E03160A36DB";
shapes = (
{
closed = 1;
nodes = (
(183,0,l),
(225,219,l),
(245,233,l),
(336,0,l),
(577,0,l),
(580,15,l),
(522,47,l),
(400,357,l),
(532,461,l),
(621,482,l),
(624,500,l),
(390,500,l),
(387,484,l),
(453,463,l),
(239,293,l),
(323,722,ls),
(324,727,o),
(324,732,o),
(324,736,cs),
(324,788,o),
(273,810,o),
(229,810,cs),
(162,810,o),
(84,791,o),
(41,763,c),
(56,737,l),
(76,750,o),
(100,760,o),
(115,760,cs),
(135,760,o),
(145,748,o),
(145,724,cs),
(145,717,o),
(144,708,o),
(142,698,cs),
(7,0,l)
);
}
);
width = 602;
},
{
associatedMasterId = m01;
layerId = "963705C6-6E49-4700-8DEA-A2DFA1230322";
name = "12. Jan. 24, 21:11";
shapes = (
{
closed = 1;
nodes = (
(155,0,l),
(200,227,l),
(182,197,l),
(292,284,l),
(269,285,l),
(389,0,l),
(539,0,l),
(543,20,l),
(460,58,l),
(482,36,l),
(346,348,l),
(335,319,l),
(530,474,l),
(497,458,l),
(593,480,l),
(597,500,l),
(393,500,l),
(390,480,l),
(458,456,l),
(457,475,l),
(191,242,l),
(202,237,l),
(295,712,l),
(200,688,l),
(66,0,l)
);
},
{
closed = 1;
nodes = (
(295,712,l),
(305,774,o),
(289,800,o),
(241,800,cs),
(202,800,o),
(144,781,o),
(100,753,c),
(115,727,l),
(134,740,o),
(158,750,o),
(173,750,cs),
(199,750,o),
(208,730,o),
(200,688,c)
);
}
);
width = 580;
},
{
associatedMasterId = "E0989092-07D5-4BE4-A82B-4E03160A36DB";
hints = (
{
horizontal = 1;
place = (-82, -63);
place = (-82, -63);
type = Stem;
},
{
horizontal = 1;
place = (408, -63);
place = (408, -63);
type = Stem;
},
{
place = (-4, 92);
place = (-4, 92);
type = Stem;
}
);
layerId = "2496118E-6928-4E0C-A744-3ADD75F2EE7E";
name = "12. Jan. 24, 21:11";
shapes = (
{
closed = 1;
nodes = (
(169,0,l),
(211,220,l),
(208,217,l),
(233,234,l),
(230,235,l),
(322,0,l),
(563,0,l),
(566,15,l),
(507,48,l),
(509,45,l),
(385,359,l),
(383,355,l),
(522,464,l),
(518,461,l),
(607,482,l),
(610,500,l),
(376,500,l),
(373,484,l),
(441,462,l),
(442,465,l),
(223,291,l),
(225,291,l),
(309,722,l),
(128,698,l),
(-7,0,l)
);
},
{
closed = 1;
nodes = (
(309,722,l),
(310,727,o),
(310,732,o),
(310,736,cs),
(310,788,o),
(259,810,o),
(215,810,cs),
(148,810,o),
(70,791,o),
(27,763,c),
(42,737,l),
(62,750,o),
(86,760,o),
(101,760,cs),
(121,760,o),
(131,748,o),
(131,724,cs),
(131,717,o),
(130,708,o),
(128,698,c)
);
}
);
width = 572;
}
);
unicode = 107;
},
{
color = 5;
glyphname = l;
layers = (
{
anchors = (
{
name = com;
pos = (81,-1);
},
{
name = top;
pos = (324,768);
}
);
layerId = m01;
name = Regular;
shapes = (
{
closed = 1;
nodes = (
(56,60,o),
(55,50,o),
(55,41,cs),
(55,1,o),
(73,-16,o),
(112,-16,cs),
(151,-16,o),
(209,3,o),
(253,31,c),
(238,57,l),
(219,44,o),
(195,34,o),
(180,34,cs),
(160,34,o),
(150,46,o),
(150,70,cs),
(150,77,o),
(151,86,o),
(153,96,cs),
(273,712,ls),
(275,724,o),
(276,734,o),
(276,743,cs),
(276,783,o),
(258,800,o),
(219,800,cs),
(180,800,o),
(122,781,o),
(78,753,c),
(93,727,l),
(112,740,o),
(136,750,o),
(151,750,cs),
(171,750,o),
(181,738,o),
(181,714,cs),
(181,707,o),
(180,698,o),
(178,688,cs),
(58,72,ls)
);
}
);
width = 304;
},
{
associatedMasterId = m01;
layerId = "A15B75CE-A110-42FD-8751-B3CA27D4E7C0";
name = "1. Jan. 24, 11:47";
shapes = (
{
closed = 1;
nodes = (
(209,50,l),
(209,718,l),
(211,794,l),
(201,800,l),
(15,745,l),
(15,729,l),
(119,717,l),
(119,50,l)
);
},
{
closed = 1;
nodes = (
(303,0,l),
(303,19,l),
(209,50,l),
(119,50,l),
(28,20,l),
(28,0,l)
);
}
);
width = 318;
},
{
anchors = (
{
name = com;
pos = (88,0);
},
{
name = top;
pos = (255,768);
}
);
background = {
shapes = (
{
closed = 1;
nodes = (
(19,294,l),
(341,294,l),
(341,314,l),
(268,344,l),
(268,721,l),
(270,787,l),
(262,810,l),
(19,759,l),
(19,729,l),
(92,709,l),
(92,344,l),
(19,314,l)
);
}
);
};
hints = (
{
horizontal = 1;
place = (-82, -64);
place = (-82, -64);
type = Stem;
},
{
place = (-27, 99);
place = (-27, 99);
type = Stem;
}
);
layerId = "E0989092-07D5-4BE4-A82B-4E03160A36DB";
shapes = (
{
closed = 1;
nodes = (
(26,67,o),
(26,62,o),
(26,58,cs),
(26,6,o),
(77,-16,o),
(121,-16,cs),
(188,-16,o),
(266,3,o),
(309,31,c),
(294,57,l),
(274,44,o),
(250,34,o),
(235,34,cs),
(215,34,o),
(205,46,o),
(205,70,cs),
(205,77,o),
(206,86,o),
(208,96,cs),
(330,722,ls),
(331,727,o),
(331,732,o),
(331,736,cs),
(331,788,o),
(280,810,o),
(236,810,cs),
(169,810,o),
(91,791,o),
(48,763,c),
(63,737,l),
(83,750,o),
(107,760,o),
(122,760,cs),
(142,760,o),
(152,748,o),
(152,724,cs),
(152,717,o),
(151,708,o),
(149,698,cs),
(27,72,ls)
);
}
);
width = 322;
},
{
anchors = (
{
name = com;
pos = (77,0);
},
{
name = top;
pos = (244,768);
}
);
associatedMasterId = "E0989092-07D5-4BE4-A82B-4E03160A36DB";
background = {
shapes = (
{
closed = 1;
nodes = (
(8,294,l),
(330,294,l),
(330,314,l),
(257,344,l),
(257,721,l),
(259,787,l),
(251,810,l),
(8,759,l),
(8,729,l),
(81,709,l),
(81,344,l),
(8,314,l)
);
}
);
};
hints = (
{
horizontal = 1;
place = (-82, -64);
place = (-82, -64);
type = Stem;
},
{
place = (-27, 99);
place = (-27, 99);
type = Stem;
}
);
layerId = "7CA1E1B1-10CE-4836-88B8-FAE1D6F88374";
name = "12. Jan. 24, 21:11";
shapes = (
{
closed = 1;
nodes = (
(197,96,l),
(319,722,l),
(138,698,l),
(16,72,l)
);
},
{
closed = 1;
nodes = (
(177,-16,o),
(255,3,o),
(298,31,c),
(283,57,l),
(263,44,o),
(239,34,o),
(224,34,cs),
(204,34,o),
(194,46,o),
(194,70,cs),
(194,77,o),
(195,86,o),
(197,96,c),
(16,72,l),
(15,67,o),
(15,62,o),
(15,58,cs),
(15,6,o),
(66,-16,o),
(110,-16,cs)
);
},
{
closed = 1;
nodes = (
(319,722,l),
(320,727,o),
(320,732,o),
(320,736,cs),
(320,788,o),
(269,810,o),
(225,810,cs),
(158,810,o),
(80,791,o),
(37,763,c),
(52,737,l),
(72,750,o),
(96,760,o),
(111,760,cs),
(131,760,o),
(141,748,o),
(141,724,cs),
(141,717,o),
(140,708,o),
(138,698,c)
);
}
);
width = 302;
},
{
anchors = (
{
name = com;
pos = (97,-1);
},
{
name = top;
pos = (340,768);
}
);
associatedMasterId = m01;
layerId = "2FE90747-BFB8-4B4D-B33D-BF6B67154DB5";
name = "12. Jan. 24, 21:11";
shapes = (
{
closed = 1;
nodes = (
(169,96,l),
(289,712,l),
(194,688,l),
(74,72,l)
);
},
{
closed = 1;
nodes = (
(167,-16,o),
(225,3,o),
(269,31,c),
(254,57,l),
(235,44,o),
(211,34,o),
(196,34,cs),
(170,34,o),
(161,54,o),
(169,96,c),
(74,72,l),
(64,10,o),
(80,-16,o),
(128,-16,cs)
);
},
{
closed = 1;
nodes = (
(289,712,l),
(299,774,o),
(283,800,o),
(235,800,cs),
(196,800,o),
(138,781,o),
(94,753,c),
(109,727,l),
(128,740,o),
(152,750,o),
(167,750,cs),
(193,750,o),
(202,730,o),
(194,688,c)
);
}
);
width = 318;
}
);
unicode = 108;
},
{
color = 5;
glyphname = lslash;
layers = (
{
layerId = m01;
shapes = (
{
closed = 1;
nodes = (
(347,464,l),
(327,503,l),
(45,350,l),
(65,311,l)
);
},
{
pos = (10,0);
ref = l;
}
);
width = 364;
},
{
hints = (
{
horizontal = 1;
place = (-3, 15);
place = (-3, 15);
type = Stem;
},
{
place = (76, 176);
place = (76, 176);
type = Stem;
}
);
layerId = "E0989092-07D5-4BE4-A82B-4E03160A36DB";
shapes = (
{
closed = 1;
nodes = (
(327,450,l),
(299,503,l),
(-3,350,l),
(25,297,l)
);
},
{
ref = l;
}
);
width = 330;
}
);
unicode = 322;
},
{
color = 5;
glyphname = m;
layers = (
{
layerId = m01;
shapes = (
{
closed = 1;
nodes = (
(755,-16,o),
(813,3,o),
(857,31,c),
(842,57,l),
(823,44,o),
(799,34,o),
(784,34,cs),
(764,34,o),
(754,46,o),
(754,70,cs),
(754,77,o),
(755,86,o),
(757,96,cs),
(814,386,ls),
(816,394,o),
(816,402,o),
(816,409,cs),
(816,473,o),
(761,515,o),
(674,515,cs),
(631,515,o),
(573,487,o),
(524,443,c),
(508,487,o),
(458,515,o),
(388,515,cs),
(341,515,o),
(292,488,o),
(253,452,c),
(253,493,o),
(235,510,o),
(196,510,cs),
(157,510,o),
(99,491,o),
(55,463,c),
(70,437,l),
(89,450,o),
(113,460,o),
(128,460,cs),
(148,460,o),
(158,448,o),
(158,424,cs),
(158,417,o),
(157,408,o),
(155,398,cs),
(78,0,l),
(168,0,l),
(246,411,l),
(276,444,o),
(314,470,o),
(348,470,cs),
(401,470,o),
(435,436,o),
(435,384,cs),
(435,376,o),
(434,367,o),
(432,358,cs),
(363,0,l),
(453,-1,l),
(528,386,ls),
(529,394,o),
(530,401,o),
(530,408,c),
(570,446,o),
(609,470,o),
(634,470,cs),
(687,470,o),
(721,436,o),
(721,384,cs),
(721,376,o),
(720,367,o),
(718,358,cs),
(662,72,ls),
(660,60,o),
(659,50,o),
(659,41,cs),
(659,1,o),
(677,-16,o),
(716,-16,cs)
);
}
);
width = 903;
},
{
associatedMasterId = m01;
layerId = "FAD1F498-5E4E-41A1-99D8-AD97216B36F5";
name = "1. Jan. 24, 11:48";
shapes = (
{
closed = 1;
nodes = (
(867,0,l),
(867,20,l),
(776,50,l),
(776,386,ls),
(776,462,o),
(708,515,o),
(611,515,cs),
(559,515,o),
(493,474,o),
(453,415,c),
(456,364,l),
(494,426,o),
(546,470,o),
(580,470,cs),
(642,470,o),
(686,424,o),
(686,358,cs),
(686,50,l),
(612,30,l),
(612,0,l)
);
},
{
closed = 1;
nodes = (
(280,0,l),
(280,30,l),
(204,50,l),
(204,434,l),
(197,510,l),
(187,516,l),
(10,461,l),
(10,445,l),
(114,433,l),
(114,50,l),
(20,20,l),
(20,0,l)
);
},
{
closed = 1;
nodes = (
(561,0,l),
(561,30,l),
(490,49,l),
(490,386,ls),
(490,462,o),
(422,515,o),
(325,515,cs),
(255,515,o),
(190,454,o),
(167,395,c),
(170,344,l),
(189,406,o),
(240,470,o),
(294,470,cs),
(356,470,o),
(400,424,o),
(400,358,cs),
(400,50,l),
(326,30,l),
(326,0,l)
);
}
);
width = 877;
},
{
background = {
shapes = (
{
closed = 0;
nodes = (
(928,0,l),
(928,20,l),
(850,52,l),
(855,40,l)
);
}
);
};
hints = (
{
horizontal = 1;
place = (-53, -34);
place = (-53, -34);
type = Stem;
},
{
horizontal = 1;
place = (417, 1);
place = (417, 1);
type = Stem;
},
{
place = (4, 127);
place = (4, 127);
type = Stem;
},
{
place = (307, 126);
place = (307, 126);
type = Stem;
},
{
place = (609, 127);
place = (609, 127);
type = Stem;
},
{
horizontal = 1;
place = (-53, -22);
place = (-53, -22);
type = Stem;
}
);
layerId = "E0989092-07D5-4BE4-A82B-4E03160A36DB";
shapes = (
{
closed = 1;
nodes = (
(804,-16,o),
(882,3,o),
(925,31,c),
(910,57,l),
(890,44,o),
(866,34,o),
(851,34,cs),
(831,34,o),
(821,46,o),
(821,70,cs),
(821,77,o),
(822,86,o),
(824,96,cs),
(882,396,ls),
(883,402,o),
(884,408,o),
(884,414,cs),
(884,475,o),
(816,516,o),
(714,516,cs),
(665,516,o),
(603,495,o),
(565,463,c),
(537,497,o),
(484,516,o),
(412,516,cs),
(373,516,o),
(324,504,o),
(274,469,c),
(258,497,o),
(220,510,o),
(187,510,cs),
(120,510,o),
(42,491,o),
(-1,463,c),
(14,437,l),
(34,450,o),
(58,460,o),
(73,460,cs),
(93,460,o),
(103,448,o),
(103,424,cs),
(103,417,o),
(102,408,o),
(100,398,cs),
(25,1,l),
(201,0,l),
(285,433,l),
(314,452,o),
(340,462,o),
(354,462,cs),
(384,462,o),
(401,439,o),
(401,400,cs),
(401,390,o),
(400,379,o),
(398,368,cs),
(327,0,l),
(503,0,l),
(580,396,ls),
(582,404,o),
(581,422,o),
(579,429,c),
(612,451,o),
(641,462,o),
(656,462,cs),
(686,462,o),
(703,439,o),
(703,400,cs),
(703,390,o),
(702,379,o),
(700,368,cs),
(643,72,ls),
(642,67,o),
(642,62,o),
(642,58,cs),
(642,6,o),
(693,-16,o),
(737,-16,cs)
);
}
);
width = 926;
},
{
associatedMasterId = m01;
layerId = "F936E1F0-6485-4210-94D6-E01E94EC091F";
name = "12. Jan. 24, 21:12";
shapes = (
{
closed = 1;
nodes = (
(515,386,ls),
(517,398,o),
(517,408,o),
(518,420,c),
(505,396,l),
(549,441,o),
(593,470,o),
(621,470,cs),
(683,470,o),
(718,424,o),
(705,358,cs),
(649,72,l),
(744,96,l),
(801,386,ls),
(816,462,o),
(758,515,o),
(661,515,cs),
(615,515,o),
(551,483,o),
(500,433,c),
(514,434,l),
(502,483,o),
(450,515,o),
(375,515,cs),
(324,515,o),
(271,483,o),
(230,443,c),
(237,422,l),
(142,398,l),
(65,0,l),
(155,0,l),
(236,425,l),
(225,401,l),
(256,439,o),
(298,470,o),
(335,470,cs),
(397,470,o),
(432,424,o),
(419,358,cs),
(350,0,l),
(440,-1,l)
);
},
{
closed = 1;
nodes = (
(237,422,l),
(247,484,o),
(231,510,o),
(183,510,cs),
(144,510,o),
(86,491,o),
(42,463,c),
(57,437,l),
(76,450,o),
(100,460,o),
(115,460,cs),
(141,460,o),
(150,440,o),
(142,398,c)
);
},
{
closed = 1;
nodes = (
(742,-16,o),
(800,3,o),
(844,31,c),
(829,57,l),
(810,44,o),
(786,34,o),
(771,34,cs),
(745,34,o),
(736,54,o),
(744,96,c),
(649,72,l),
(639,10,o),
(655,-16,o),
(703,-16,cs)
);
}
);
width = 877;
},
{
associatedMasterId = "E0989092-07D5-4BE4-A82B-4E03160A36DB";
background = {
shapes = (
{
closed = 0;
nodes = (
(926,0,l),
(926,20,l),
(848,52,l),
(853,40,l)
);
}
);
};
hints = (
{
horizontal = 1;
place = (-53, -34);
place = (-53, -34);
type = Stem;
},
{
horizontal = 1;
place = (417, 1);
place = (417, 1);
type = Stem;
},
{
place = (4, 127);
place = (4, 127);
type = Stem;
},
{
place = (307, 126);
place = (307, 126);
type = Stem;
},
{
place = (609, 127);
place = (609, 127);
type = Stem;
},
{
horizontal = 1;
place = (-53, -22);
place = (-53, -22);
type = Stem;
}
);
layerId = "6A8D61E5-5819-40EC-A61B-707CA1D1ACD0";
name = "12. Jan. 24, 21:12";
shapes = (
{
closed = 1;
nodes = (
(283,435,l),
(281,432,l),
(311,452,o),
(338,462,o),
(352,462,cs),
(389,462,o),
(407,426,o),
(396,368,cs),
(325,0,l),
(501,0,l),
(578,396,ls),
(580,407,o),
(580,419,o),
(577,430,c),
(576,428,l),
(609,451,o),
(639,462,o),
(654,462,cs),
(691,462,o),
(709,426,o),
(698,368,cs),
(641,72,l),
(822,96,l),
(880,396,ls),
(894,467,o),
(824,516,o),
(712,516,cs),
(662,516,o),
(599,494,o),
(561,462,c),
(564,462,l),
(537,496,o),
(483,516,o),
(410,516,cs),
(371,516,o),
(322,504,o),
(292,483,c),
(251,454,l),
(98,398,l),
(23,1,l),
(199,0,l)
);
},
{
closed = 1;
nodes = (
(279,422,l),
(280,427,o),
(280,432,o),
(280,436,cs),
(280,488,o),
(229,510,o),
(185,510,cs),
(118,510,o),
(40,491,o),
(-3,463,c),
(12,437,l),
(32,450,o),
(56,460,o),
(71,460,cs),
(91,460,o),
(101,448,o),
(101,424,cs),
(101,417,o),
(100,408,o),
(98,398,c)
);
},
{
closed = 1;
nodes = (
(802,-16,o),
(880,3,o),
(923,31,c),
(908,57,l),
(888,44,o),
(864,34,o),
(849,34,cs),
(829,34,o),
(819,46,o),
(819,70,cs),
(819,77,o),
(820,86,o),
(822,96,c),
(641,72,l),
(640,67,o),
(640,62,o),
(640,58,cs),
(640,6,o),
(691,-16,o),
(735,-16,cs)
);
}
);
width = 926;
}
);
unicode = 109;
},
{
color = 5;
glyphname = n;
layers = (
{
anchors = (
{
name = top;
pos = (397,500);
}
);
layerId = m01;
shapes = (
{
closed = 1;
nodes = (
(502,-16,o),
(560,3,o),
(604,31,c),
(589,57,l),
(570,44,o),
(546,34,o),
(531,34,cs),
(511,34,o),
(501,46,o),
(501,70,cs),
(501,77,o),
(502,86,o),
(504,96,cs),
(557,366,ls),
(559,376,o),
(560,386,o),
(560,396,cs),
(560,467,o),
(506,515,o),
(421,515,cs),
(371,515,o),
(299,475,o),
(244,432,c),
(245,440,o),
(246,447,o),
(246,454,cs),
(246,493,o),
(228,510,o),
(189,510,cs),
(150,510,o),
(92,491,o),
(48,463,c),
(63,437,l),
(82,450,o),
(106,460,o),
(121,460,cs),
(141,460,o),
(151,448,o),
(151,424,cs),
(151,417,o),
(150,408,o),
(148,398,cs),
(69,0,l),
(159,0,l),
(235,383,l),
(281,424,o),
(340,464,o),
(380,464,cs),
(432,464,o),
(465,429,o),
(465,372,cs),
(465,361,o),
(464,350,o),
(462,338,cs),
(409,72,ls),
(407,60,o),
(406,50,o),
(406,41,cs),
(406,1,o),
(424,-16,o),
(463,-16,cs)
);
}
);
width = 631;
},
{
associatedMasterId = m01;
layerId = "C9AB8D55-AC24-43D7-9F96-D292913457A9";
name = "1. Jan. 24, 11:49";
shapes = (
{
closed = 1;
nodes = (
(621,0,l),
(621,20,l),
(530,50,l),
(530,366,ls),
(530,453,o),
(462,515,o),
(365,515,cs),
(307,515,o),
(233,462,o),
(187,415,c),
(190,368,l),
(230,413,o),
(289,464,o),
(334,464,cs),
(396,464,o),
(440,415,o),
(440,338,cs),
(440,50,l),
(366,20,l),
(366,0,l)
);
},
{
closed = 1;
nodes = (
(280,0,l),
(280,20,l),
(204,50,l),
(204,434,l),
(197,510,l),
(187,516,l),
(10,461,l),
(10,445,l),
(114,433,l),
(114,50,l),
(20,20,l),
(20,0,l)
);
}
);
width = 631;
},
{
anchors = (
{
name = top;
pos = (413,500);
}
);
hints = (
{
horizontal = 1;
place = (-53, -35);
place = (-53, -35);
type = Stem;
},
{
horizontal = 1;
place = (450, -20);
target = down;
type = TopGhost;
},
{
place = (36, 126);
place = (36, 126);
type = Stem;
},
{
place = (362, 126);
place = (362, 126);
type = Stem;
},
{
horizontal = 1;
place = (411, 7);
place = (411, 7);
type = Stem;
}
);
layerId = "E0989092-07D5-4BE4-A82B-4E03160A36DB";
shapes = (
{
closed = 1;
nodes = (
(524,-16,o),
(602,3,o),
(645,31,c),
(630,57,l),
(610,44,o),
(586,34,o),
(571,34,cs),
(551,34,o),
(541,46,o),
(541,70,cs),
(541,77,o),
(542,86,o),
(544,96,cs),
(596,366,ls),
(598,375,o),
(598,383,o),
(598,391,cs),
(598,466,o),
(527,517,o),
(417,517,cs),
(377,517,o),
(318,497,o),
(275,467,c),
(274,469,o),
(273,471,o),
(272,472,cs),
(254,499,o),
(219,510,o),
(187,510,cs),
(120,510,o),
(42,491,o),
(-1,463,c),
(14,437,l),
(34,450,o),
(58,460,o),
(73,460,cs),
(93,460,o),
(103,448,o),
(103,424,cs),
(103,417,o),
(102,408,o),
(100,398,cs),
(23,0,l),
(198,0,l),
(281,420,l),
(314,444,o),
(351,461,o),
(375,461,cs),
(403,461,o),
(419,432,o),
(419,386,cs),
(419,372,o),
(417,355,o),
(414,338,cs),
(363,72,ls),
(362,67,o),
(362,62,o),
(362,58,cs),
(362,6,o),
(413,-16,o),
(457,-16,cs)
);
}
);
width = 648;
},
{
anchors = (
{
name = top;
pos = (413,500);
}
);
associatedMasterId = "E0989092-07D5-4BE4-A82B-4E03160A36DB";
background = {
shapes = (
{
closed = 1;
nodes = (
(270,0,l),
(270,20,l),
(177,57,l),
(194,32,l),
(194,401,l),
(185,374,l),
(225,418,o),
(281,464,o),
(324,464,cs),
(386,464,o),
(430,415,o),
(430,338,cs),
(430,32,l),
(447,57,l),
(356,20,l),
(356,0,l),
(611,0,l),
(611,20,l),
(503,56,l),
(520,32,l),
(520,366,ls),
(520,453,o),
(452,515,o),
(355,515,cs),
(301,515,o),
(232,469,o),
(185,423,c),
(194,413,l),
(196,510,l),
(186,516,l),
(0,461,l),
(0,445,l),
(122,431,l),
(104,451,l),
(104,32,l),
(121,55,l),
(10,20,l),
(10,0,l)
);
}
);
};
hints = (
{
horizontal = 1;
place = (-53, -35);
place = (-53, -35);
type = Stem;
},
{
horizontal = 1;
place = (450, -20);
target = down;
type = TopGhost;
},
{
place = (36, 126);
place = (36, 126);
type = Stem;
},
{
place = (362, 126);
place = (362, 126);
type = Stem;
},
{
horizontal = 1;
place = (411, 7);
place = (411, 7);
type = Stem;
}
);
layerId = "5AED0E3C-5F5D-4B7F-A3A1-B0C3F14D9FC9";
name = "11. Jan. 24, 20:27";
shapes = (
{
closed = 1;
nodes = (
(262,0,l),
(266,20,l),
(199,55,l),
(206,37,l),
(284,437,l),
(266,409,l),
(302,439,o),
(347,461,o),
(375,461,cs),
(412,461,o),
(428,410,o),
(414,338,cs),
(356,37,l),
(373,56,l),
(290,20,l),
(286,0,l),
(598,0,l),
(602,20,l),
(530,52,l),
(533,40,l),
(596,366,ls),
(613,455,o),
(539,517,o),
(417,517,cs),
(377,517,o),
(318,497,o),
(275,467,c),
(290,467,l),
(296,500,l),
(293,516,l),
(40,465,l),
(34,435,l),
(121,410,l),
(105,423,l),
(31,41,l),
(43,54,l),
(-46,20,l),
(-50,0,l)
);
}
);
width = 648;
},
{
anchors = (
{
name = top;
pos = (401,500);
}
);
associatedMasterId = m01;
layerId = "96322A77-1E20-430A-8EE2-CD5E55F0BB2B";
name = "11. Jan. 24, 20:27";
shapes = (
{
closed = 1;
nodes = (
(240,0,l),
(244,20,l),
(158,57,l),
(170,32,l),
(242,401,l),
(228,374,l),
(276,418,o),
(341,464,o),
(384,464,cs),
(446,464,o),
(481,415,o),
(466,338,cs),
(406,32,l),
(428,57,l),
(330,20,l),
(326,0,l),
(581,0,l),
(585,20,l),
(484,56,l),
(496,32,l),
(561,366,ls),
(578,453,o),
(522,515,o),
(425,515,cs),
(371,515,o),
(293,469,o),
(237,423,c),
(244,413,l),
(265,510,l),
(256,516,l),
(59,461,l),
(56,445,l),
(176,431,l),
(162,451,l),
(80,32,l),
(102,55,l),
(-16,20,l),
(-20,0,l)
);
}
);
width = 631;
},
{
anchors = (
{
name = top;
pos = (413,500);
}
);
associatedMasterId = "E0989092-07D5-4BE4-A82B-4E03160A36DB";
hints = (
{
horizontal = 1;
place = (-53, -35);
place = (-53, -35);
type = Stem;
},
{
horizontal = 1;
place = (450, -20);
target = down;
type = TopGhost;
},
{
place = (36, 126);
place = (36, 126);
type = Stem;
},
{
place = (362, 126);
place = (362, 126);
type = Stem;
},
{
horizontal = 1;
place = (411, 7);
place = (411, 7);
type = Stem;
}
);
layerId = "383C5434-3E6D-4519-B460-47AC5C47A054";
name = "12. Jan. 24, 21:17";
shapes = (
{
closed = 1;
nodes = (
(198,0,l),
(284,437,l),
(266,409,l),
(302,439,o),
(347,461,o),
(375,461,cs),
(403,461,o),
(419,432,o),
(419,386,cs),
(419,372,o),
(417,355,o),
(414,338,cs),
(363,72,l),
(544,96,l),
(596,366,ls),
(598,375,o),
(598,383,o),
(598,391,cs),
(598,466,o),
(527,517,o),
(417,517,cs),
(377,517,o),
(318,497,o),
(275,467,c),
(261,458,l),
(100,398,l),
(23,0,l)
);
},
{
closed = 1;
nodes = (
(524,-16,o),
(602,3,o),
(645,31,c),
(630,57,l),
(610,44,o),
(586,34,o),
(571,34,cs),
(551,34,o),
(541,46,o),
(541,70,cs),
(541,77,o),
(542,86,o),
(544,96,c),
(363,72,l),
(362,67,o),
(362,62,o),
(362,58,cs),
(362,6,o),
(413,-16,o),
(457,-16,cs)
);
},
{
closed = 1;
nodes = (
(281,422,l),
(282,427,o),
(282,432,o),
(282,436,cs),
(282,488,o),
(231,510,o),
(187,510,cs),
(120,510,o),
(42,491,o),
(-1,463,c),
(14,437,l),
(34,450,o),
(58,460,o),
(73,460,cs),
(93,460,o),
(103,448,o),
(103,424,cs),
(103,417,o),
(102,408,o),
(100,398,c)
);
}
);
width = 648;
},
{
anchors = (
{
name = top;
pos = (401,500);
}
);
associatedMasterId = m01;
layerId = "2C7BF9EE-8BD6-4C17-9648-D633CE237FF9";
name = "12. Jan. 24, 21:17";
shapes = (
{
closed = 1;
nodes = (
(163,0,l),
(242,401,l),
(228,374,l),
(276,418,o),
(341,464,o),
(384,464,cs),
(436,464,o),
(469,429,o),
(469,372,cs),
(469,361,o),
(468,350,o),
(466,338,cs),
(413,72,l),
(508,96,l),
(561,366,ls),
(563,376,o),
(564,386,o),
(564,396,cs),
(564,467,o),
(510,515,o),
(425,515,cs),
(371,515,o),
(293,469,o),
(237,423,c),
(226,414,l),
(247,422,l),
(152,398,l),
(73,0,l)
);
},
{
closed = 1;
nodes = (
(506,-16,o),
(564,3,o),
(608,31,c),
(593,57,l),
(574,44,o),
(550,34,o),
(535,34,cs),
(509,34,o),
(500,54,o),
(508,96,c),
(413,72,l),
(403,10,o),
(419,-16,o),
(467,-16,cs)
);
},
{
closed = 1;
nodes = (
(247,422,l),
(257,484,o),
(241,510,o),
(193,510,cs),
(154,510,o),
(96,491,o),
(52,463,c),
(67,437,l),
(86,450,o),
(110,460,o),
(125,460,cs),
(151,460,o),
(160,440,o),
(152,398,c)
);
}
);
width = 631;
}
);
locked = 1;
unicode = 110;
},
{
color = 5;
glyphname = eng;
layers = (
{
layerId = m01;
shapes = (
{
closed = 1;
nodes = (
(389,-193,o),
(472,-125,o),
(491,-28,cs),
(568,366,ls),
(585,453,o),
(529,515,o),
(432,515,cs),
(378,515,o),
(301,470,o),
(244,424,c),
(253,414,l),
(263,510,l),
(254,516,l),
(66,461,l),
(63,445,l),
(182,431,l),
(168,451,l),
(87,32,l),
(108,55,l),
(-10,20,l),
(-13,0,l),
(247,0,l),
(250,20,l),
(165,57,l),
(177,32,l),
(249,402,l),
(235,375,l),
(283,418,o),
(348,464,o),
(391,464,cs),
(453,464,o),
(487,415,o),
(472,338,cs),
(394,-64,ls),
(382,-125,o),
(349,-168,o),
(313,-168,cs),
(288,-168,o),
(268,-147,o),
(260,-97,c),
(178,-138,l),
(204,-178,o),
(248,-193,o),
(290,-193,cs)
);
}
);
width = 617;
},
{
anchors = (
{
name = top;
pos = (334,500);
}
);
associatedMasterId = m01;
layerId = "158879E4-AD77-4CEC-A014-8A6182E6557D";
name = "1. Jan. 24, 21:44";
shapes = (
{
closed = 1;
nodes = (
(280,0,l),
(280,20,l),
(187,57,l),
(204,32,l),
(204,401,l),
(195,374,l),
(235,418,o),
(291,464,o),
(334,464,cs),
(396,464,o),
(440,415,o),
(440,338,cs),
(440,32,l),
(530,32,l),
(530,366,ls),
(530,453,o),
(462,515,o),
(365,515,cs),
(311,515,o),
(242,469,o),
(195,423,c),
(204,413,l),
(204,434,l),
(197,510,l),
(187,516,l),
(10,461,l),
(10,445,l),
(114,433,l),
(114,32,l),
(131,55,l),
(20,20,l),
(20,0,l)
);
},
{
closed = 1;
nodes = (
(440,32,l),
(440,-64,l),
(440,-125,o),
(415,-168,o),
(379,-168,cs),
(358,-168,o),
(330,-147,o),
(312,-117,c),
(248,-158,l),
(272,-178,o),
(319,-193,o),
(361,-193,cs),
(460,-193,o),
(530,-125,o),
(530,-28,cs),
(530,32,l)
);
}
);
width = 631;
},
{
hints = (
{
horizontal = 1;
place = (-228, -1);
place = (-228, -1);
type = Stem;
},
{
horizontal = 1;
place = (-35, -17);
place = (-35, -17);
type = Stem;
},
{
horizontal = 1;
place = (429, 25);
place = (429, 25);
type = Stem;
},
{
place = (89, 144);
place = (89, 144);
type = Stem;
},
{
place = (415, 144);
place = (415, 144);
type = Stem;
},
{
place = (248, -21);
place = (248, -21);
type = Stem;
}
);
layerId = "E0989092-07D5-4BE4-A82B-4E03160A36DB";
shapes = (
{
closed = 1;
nodes = (
(395,-196,o),
(496,-127,o),
(515,-28,cs),
(592,366,ls),
(610,456,o),
(531,518,o),
(414,518,cs),
(368,518,o),
(300,489,o),
(279,463,c),
(280,462,l),
(288,517,l),
(280,526,l),
(36,454,l),
(32,430,l),
(102,418,l),
(101,420,l),
(27,41,l),
(29,44,l),
(-73,13,l),
(-76,-3,l),
(254,-3,l),
(257,12,l),
(201,43,l),
(203,40,l),
(272,396,l),
(270,392,l),
(307,436,o),
(350,461,o),
(372,461,cs),
(402,461,o),
(428,425,o),
(411,338,cs),
(332,-64,ls),
(321,-123,o),
(298,-165,o),
(278,-165,cs),
(257,-165,o),
(243,-119,o),
(250,-65,c),
(112,-140,l),
(145,-168,o),
(212,-196,o),
(271,-196,cs)
);
}
);
width = 633;
}
);
unicode = 331;
},
{
color = 5;
glyphname = o;
layers = (
{
anchors = (
{
name = top;
pos = (385,500);
}
);
layerId = m01;
shapes = (
{
closed = 1;
nodes = (
(428,-15,o),
(548,172,o),
(548,325,cs),
(548,440,o),
(474,517,o),
(355,517,cs),
(183,517,o),
(57,360,o),
(57,190,cs),
(57,67,o),
(131,-15,o),
(251,-15,cs)
);
},
{
closed = 1;
nodes = (
(200,20,o),
(161,79,o),
(161,181,cs),
(161,291,o),
(206,482,o),
(335,482,cs),
(405,482,o),
(444,425,o),
(444,329,cs),
(444,229,o),
(394,20,o),
(271,20,cs)
);
}
);
width = 586;
},
{
anchors = (
{
name = top;
pos = (384,500);
}
);
hints = (
{
horizontal = 1;
place = (-67, -8);
place = (-67, -8);
type = Stem;
},
{
horizontal = 1;
place = (430, -8);
place = (430, -8);
type = Stem;
},
{
place = (-47, 140);
place = (-47, 140);
type = Stem;
},
{
place = (327, 140);
place = (327, 140);
type = Stem;
}
);
layerId = "E0989092-07D5-4BE4-A82B-4E03160A36DB";
shapes = (
{
closed = 1;
nodes = (
(456,-16,o),
(593,161,o),
(593,317,cs),
(593,436,o),
(501,516,o),
(357,516,cs),
(165,516,o),
(17,372,o),
(17,199,cs),
(17,70,o),
(108,-16,o),
(253,-16,cs)
);
},
{
closed = 1;
nodes = (
(231,25,o),
(204,71,o),
(204,157,cs),
(204,237,o),
(240,475,o),
(327,475,cs),
(379,475,o),
(406,432,o),
(406,351,cs),
(406,282,o),
(367,25,o),
(284,25,cs)
);
}
);
width = 607;
}
);
unicode = 111;
},
{
color = 5;
glyphname = oslash;
layers = (
{
layerId = m01;
shapes = (
{
closed = 1;
nodes = (
(522,540,l),
(485,566,l),
(88,-39,l),
(125,-64,l)
);
},
{
pos = (3,0);
ref = o;
}
);
width = 612;
},
{
hints = (
{
horizontal = 1;
place = (-18, 41);
place = (-18, 41);
type = Stem;
},
{
horizontal = 1;
place = (479, 20);
place = (479, 20);
type = Stem;
},
{
place = (2, 188);
place = (2, 188);
type = Stem;
},
{
place = (376, 188);
place = (376, 188);
type = Stem;
},
{
horizontal = 1;
place = (479, 41);
place = (479, 41);
type = Stem;
}
);
layerId = "E0989092-07D5-4BE4-A82B-4E03160A36DB";
shapes = (
{
closed = 1;
nodes = (
(515,529,l),
(467,566,l),
(70,-39,l),
(118,-75,l)
);
},
{
ref = o;
}
);
width = 607;
}
);
unicode = 248;
},
{
color = 5;
glyphname = oe;
layers = (
{
layerId = m01;
shapes = (
{
closed = 1;
nodes = (
(668,-13,o),
(753,26,o),
(803,80,c),
(786,108,l),
(741,72,o),
(679,47,o),
(636,47,cs),
(560,47,o),
(516,109,o),
(516,204,cs),
(516,225,o),
(518,248,o),
(523,272,c),
(847,272,l),
(850,282,o),
(852,291,o),
(854,301,cs),
(858,320,o),
(859,339,o),
(859,356,cs),
(859,453,o),
(804,517,o),
(706,517,cs),
(631,517,o),
(561,480,o),
(508,419,c),
(477,480,o),
(417,517,o),
(335,517,cs),
(194,517,o),
(74,409,o),
(44,257,cs),
(39,233,o),
(37,211,o),
(37,190,cs),
(37,67,o),
(111,-15,o),
(231,-15,cs),
(308,-15,o),
(379,21,o),
(433,81,c),
(462,23,o),
(519,-13,o),
(595,-13,cs)
);
},
{
closed = 1;
nodes = (
(141,212,o),
(144,247,o),
(152,285,cs),
(175,407,o),
(238,482,o),
(315,482,cs),
(385,482,o),
(424,425,o),
(424,329,cs),
(424,301,o),
(421,270,o),
(414,236,cs),
(388,102,o),
(325,20,o),
(251,20,cs),
(180,20,o),
(141,79,o),
(141,181,cs)
);
},
{
closed = 1;
nodes = (
(548,412,o),
(605,478,o),
(666,478,cs),
(725,478,o),
(761,428,o),
(761,349,cs),
(761,338,o),
(760,325,o),
(758,313,c),
(528,308,l)
);
}
);
width = 897;
},
{
associatedMasterId = m01;
layerId = "8891401E-2A78-49C5-9FDC-8FEE2301BEB5";
name = "1. Jan. 24, 12:13";
shapes = (
{
closed = 1;
nodes = (
(423,-15,o),
(521,102,o),
(521,267,cs),
(521,413,o),
(423,517,o),
(285,517,cs),
(144,517,o),
(45,409,o),
(45,257,cs),
(45,98,o),
(144,-15,o),
(285,-15,cs)
);
},
{
closed = 1;
nodes = (
(205,20,o),
(147,121,o),
(147,285,cs),
(147,407,o),
(195,482,o),
(272,482,cs),
(362,482,o),
(419,388,o),
(419,236,cs),
(419,102,o),
(372,20,o),
(298,20,cs)
);
},
{
closed = 1;
nodes = (
(721,-13,o),
(799,26,o),
(838,80,c),
(816,108,l),
(778,72,o),
(721,47,o),
(678,47,cs),
(586,47,o),
(521,140,o),
(521,272,c),
(845,272,l),
(857,415,o),
(779,517,o),
(656,517,cs),
(522,517,o),
(427,401,o),
(426,237,cs),
(425,91,o),
(517,-13,o),
(648,-13,cs)
);
},
{
closed = 1;
nodes = (
(519,411,o),
(563,478,o),
(624,478,cs),
(692,478,o),
(743,411,o),
(748,308,c),
(752,312,ls),
(754,314,o),
(702,314,o),
(644,312,cs),
(519,308,l)
);
}
);
width = 891;
},
{
hints = (
{
horizontal = 1;
place = (-65, -6);
place = (-65, -6);
type = Stem;
},
{
horizontal = 1;
place = (221, -3);
place = (221, -3);
type = Stem;
},
{
horizontal = 1;
place = (426, -7);
place = (426, -7);
type = Stem;
},
{
place = (-46, 140);
place = (-46, 140);
type = Stem;
},
{
place = (328, 140);
place = (328, 140);
type = Stem;
},
{
place = (656, 137);
place = (656, 137);
type = Stem;
},
{
horizontal = 1;
place = (-66, 19);
place = (-66, 19);
type = Stem;
},
{
horizontal = 1;
place = (422, -3);
place = (422, -3);
type = Stem;
},
{
place = (328, 138);
place = (328, 138);
type = Stem;
}
);
layerId = "E0989092-07D5-4BE4-A82B-4E03160A36DB";
shapes = (
{
closed = 1;
nodes = (
(689,-18,o),
(796,38,o),
(836,82,c),
(815,116,l),
(744,47,o),
(674,49,o),
(639,49,cs),
(594,49,o),
(560,99,o),
(560,188,cs),
(560,212,o),
(562,240,o),
(568,269,c),
(892,269,l),
(895,279,o),
(897,289,o),
(899,298,cs),
(902,316,o),
(904,333,o),
(904,349,cs),
(904,465,o),
(815,515,o),
(708,515,cs),
(635,515,o),
(571,498,o),
(516,462,c),
(474,500,o),
(412,515,o),
(337,515,cs),
(176,515,o),
(35,417,o),
(4,257,cs),
(0,235,o),
(-2,215,o),
(-2,195,cs),
(-2,64,o),
(91,-17,o),
(233,-17,cs),
(306,-17,o),
(371,3,o),
(428,40,c),
(469,3,o),
(527,-18,o),
(596,-18,cs)
);
},
{
closed = 1;
nodes = (
(184,199,o),
(188,239,o),
(197,285,cs),
(222,415,o),
(274,474,o),
(316,474,cs),
(355,474,o),
(385,431,o),
(385,343,cs),
(385,312,o),
(382,277,o),
(374,236,cs),
(346,94,o),
(292,25,o),
(255,25,cs),
(214,25,o),
(184,72,o),
(184,165,cs)
);
},
{
closed = 1;
nodes = (
(596,420,o),
(640,470,o),
(667,470,cs),
(692,470,o),
(721,464,o),
(721,379,cs),
(721,362,o),
(720,342,o),
(717,317,c),
(575,312,l)
);
}
);
width = 921;
}
);
unicode = 339;
},
{
color = 5;
glyphname = p;
layers = (
{
layerId = m01;
name = Regular;
shapes = (
{
closed = 1;
nodes = (
(109,-236,l),
(158,19,l),
(194,-6,o),
(231,-15,o),
(253,-15,cs),
(396,-15,o),
(521,102,o),
(553,268,cs),
(558,292,o),
(560,316,o),
(560,337,cs),
(560,446,o),
(502,517,o),
(407,517,cs),
(365,517,o),
(300,489,o),
(240,446,c),
(242,491,o),
(224,510,o),
(183,510,cs),
(144,510,o),
(86,491,o),
(42,463,c),
(57,437,l),
(76,450,o),
(100,460,o),
(115,460,cs),
(135,460,o),
(145,448,o),
(145,424,cs),
(145,417,o),
(144,408,o),
(142,398,cs),
(20,-236,l)
);
},
{
closed = 1;
nodes = (
(231,397,l),
(273,435,o),
(322,461,o),
(356,461,cs),
(419,461,o),
(457,404,o),
(457,317,cs),
(457,295,o),
(454,271,o),
(449,245,cs),
(423,113,o),
(351,20,o),
(275,20,cs),
(249,20,o),
(206,32,o),
(168,67,c)
);
}
);
width = 596;
},
{
associatedMasterId = m01;
layerId = "E53A7676-CD7F-45B4-B6FE-B577B2D90D84";
name = "1. Jan. 24, 11:51";
shapes = (
{
closed = 1;
nodes = (
(443,-15,o),
(545,102,o),
(545,268,cs),
(545,414,o),
(464,517,o),
(350,517,cs),
(297,517,o),
(219,474,o),
(161,413,c),
(153,399,l),
(181,378,l),
(185,380,o),
(188,386,o),
(188,386,c),
(223,430,o),
(273,461,o),
(310,461,cs),
(389,461,o),
(445,372,o),
(445,245,cs),
(445,113,o),
(391,20,o),
(315,20,cs),
(284,20,o),
(224,38,o),
(170,92,cs),
(167,95,l),
(138,60,l),
(147,56,l),
(205,3,o),
(269,-15,o),
(300,-15,cs)
);
},
{
closed = 1;
nodes = (
(293,-200,l),
(293,-180,l),
(199,-150,l),
(109,-150,l),
(18,-180,l),
(18,-200,l)
);
},
{
closed = 1;
nodes = (
(199,-150,l),
(199,436,l),
(192,502,l),
(182,508,l),
(5,463,l),
(5,447,l),
(109,435,l),
(109,-150,l)
);
}
);
width = 600;
},
{
hints = (
{
horizontal = 1;
place = (-233, -14);
place = (-233, -14);
type = Stem;
},
{
horizontal = 1;
place = (-48, 11);
place = (-48, 11);
type = Stem;
},
{
horizontal = 1;
place = (486, -20);
target = down;
type = TopGhost;
},
{
place = (36, 147);
place = (36, 147);
type = Stem;
},
{
place = (372, 156);
place = (372, 156);
type = Stem;
},
{
horizontal = 1;
place = (428, 32);
place = (428, 32);
type = Stem;
}
);
layerId = "E0989092-07D5-4BE4-A82B-4E03160A36DB";
shapes = (
{
closed = 1;
nodes = (
(158,-203,l),
(200,3,l),
(213,-9,o),
(238,-16,o),
(262,-16,cs),
(425,-16,o),
(563,102,o),
(596,268,cs),
(600,288,o),
(602,306,o),
(602,324,cs),
(602,439,o),
(526,516,o),
(406,516,cs),
(367,516,o),
(318,497,o),
(278,461,c),
(264,495,o),
(223,510,o),
(187,510,cs),
(120,510,o),
(42,491,o),
(-1,463,c),
(14,437,l),
(34,450,o),
(58,460,o),
(73,460,cs),
(93,460,o),
(103,448,o),
(103,424,cs),
(103,417,o),
(102,408,o),
(100,398,cs),
(-18,-203,l)
);
},
{
closed = 1;
nodes = (
(282,427,l),
(301,447,o),
(331,461,o),
(355,461,cs),
(394,461,o),
(415,415,o),
(415,343,cs),
(415,314,o),
(412,281,o),
(405,245,cs),
(381,121,o),
(328,34,o),
(277,34,cs),
(253,34,o),
(226,44,o),
(210,60,c)
);
}
);
width = 616;
},
{
associatedMasterId = m01;
layerId = "A0857888-B45B-449E-A690-634E95B43C21";
name = "12. Jan. 24, 21:22";
shapes = (
{
closed = 1;
nodes = (
(102,-236,l),
(154,36,l),
(139,27,l),
(179,-4,o),
(222,-15,o),
(246,-15,cs),
(389,-15,o),
(514,102,o),
(546,268,cs),
(575,414,o),
(514,517,o),
(400,517,cs),
(355,517,o),
(284,485,o),
(221,438,c),
(135,398,l),
(13,-236,l)
);
},
{
closed = 1;
nodes = (
(240,20,o),
(191,34,o),
(150,78,c),
(157,49,l),
(228,417,l),
(215,388,l),
(258,431,o),
(313,461,o),
(349,461,cs),
(428,461,o),
(467,372,o),
(442,245,cs),
(416,113,o),
(344,20,o),
(268,20,cs)
);
},
{
closed = 1;
nodes = (
(230,422,l),
(240,484,o),
(224,510,o),
(176,510,cs),
(137,510,o),
(79,491,o),
(35,463,c),
(50,437,l),
(69,450,o),
(93,460,o),
(108,460,cs),
(134,460,o),
(143,440,o),
(135,398,c)
);
}
);
width = 580;
},
{
associatedMasterId = "E0989092-07D5-4BE4-A82B-4E03160A36DB";
hints = (
{
horizontal = 1;
place = (-233, -14);
place = (-233, -14);
type = Stem;
},
{
horizontal = 1;
place = (-48, 11);
place = (-48, 11);
type = Stem;
},
{
horizontal = 1;
place = (486, -20);
target = down;
type = TopGhost;
},
{
place = (36, 147);
place = (36, 147);
type = Stem;
},
{
place = (372, 156);
place = (372, 156);
type = Stem;
},
{
horizontal = 1;
place = (428, 32);
place = (428, 32);
type = Stem;
}
);
layerId = "06EF5352-7EC5-42C7-A368-4E75A232334A";
name = "12. Jan. 24, 21:22";
shapes = (
{
closed = 1;
nodes = (
(138,-203,l),
(180,5,l),
(178,4,l),
(191,-8,o),
(217,-16,o),
(242,-16,cs),
(405,-16,o),
(543,102,o),
(576,268,cs),
(604,413,o),
(525,516,o),
(386,516,cs),
(347,516,o),
(298,497,o),
(269,471,c),
(243,447,l),
(80,398,l),
(-38,-203,l)
);
},
{
closed = 1;
nodes = (
(232,34,o),
(204,45,o),
(189,61,c),
(190,58,l),
(261,422,l),
(262,427,l),
(281,447,o),
(311,461,o),
(335,461,cs),
(389,461,o),
(410,372,o),
(385,245,cs),
(361,121,o),
(308,34,o),
(257,34,cs)
);
},
{
closed = 1;
nodes = (
(261,422,l),
(262,436,l),
(262,488,o),
(211,510,o),
(167,510,cs),
(100,510,o),
(22,491,o),
(-21,463,c),
(-6,437,l),
(14,450,o),
(38,460,o),
(53,460,cs),
(73,460,o),
(83,448,o),
(83,424,cs),
(83,417,o),
(82,408,o),
(80,398,c)
);
}
);
width = 596;
}
);
unicode = 112;
},
{
color = 5;
glyphname = thorn;
layers = (
{
layerId = m01;
shapes = (
{
closed = 1;
nodes = (
(194,-200,l),
(198,-180,l),
(94,-145,l),
(104,-168,l),
(140,16,l),
(128,2,l),
(149,-6,o),
(174,-12,o),
(197,-12,cs),
(361,-12,o),
(503,111,o),
(537,286,cs),
(563,420,o),
(493,515,o),
(370,515,cs),
(327,515,o),
(269,493,o),
(218,458,c),
(224,448,l),
(276,718,l),
(295,794,l),
(286,800,l),
(89,745,l),
(86,729,l),
(206,715,l),
(192,735,l),
(16,-168,l),
(38,-144,l),
(-77,-180,l),
(-81,-200,l)
);
},
{
closed = 1;
nodes = (
(210,28,o),
(174,54,o),
(145,86,c),
(148,59,l),
(222,438,l),
(207,410,l),
(249,443,o),
(292,469,o),
(320,469,cs),
(414,469,o),
(464,382,o),
(440,258,cs),
(414,126,o),
(333,28,o),
(246,28,cs)
);
}
);
width = 576;
},
{
associatedMasterId = m01;
layerId = "687E002A-BF2C-46A0-BB2A-B75EDC1D587C";
name = "1. Jan. 24, 12:12";
shapes = (
{
closed = 1;
nodes = (
(199,-150,l),
(199,718,l),
(201,794,l),
(191,800,l),
(5,745,l),
(5,729,l),
(109,717,l),
(109,-150,l)
);
},
{
closed = 1;
nodes = (
(293,-200,l),
(293,-180,l),
(199,-150,l),
(109,-150,l),
(18,-180,l),
(18,-200,l)
);
},
{
closed = 1;
nodes = (
(424,-12,o),
(542,111,o),
(542,286,c),
(450,258,l),
(450,126,o),
(388,28,o),
(301,28,cs),
(258,28,o),
(208,65,o),
(169,104,cs),
(168,105,l),
(110,44,l),
(157,18,l),
(182,0,o),
(225,-12,o),
(260,-12,cs)
);
},
{
closed = 1;
nodes = (
(542,286,l),
(542,420,o),
(453,515,o),
(330,515,cs),
(277,515,o),
(208,482,o),
(162,435,c),
(165,385,l),
(204,430,o),
(255,469,o),
(289,469,cs),
(383,469,o),
(450,382,o),
(450,258,c)
);
}
);
width = 600;
},
{
hints = (
{
horizontal = 1;
place = (-262, -43);
place = (-262, -43);
type = Stem;
},
{
horizontal = 1;
place = (-74, -13);
place = (-74, -13);
type = Stem;
},
{
horizontal = 1;
place = (447, -20);
target = down;
type = TopGhost;
},
{
place = (7, 119);
place = (7, 119);
type = Stem;
},
{
place = (348, 119);
place = (348, 119);
type = Stem;
},
{
horizontal = 1;
place = (-68, 21);
target = up;
type = BottomGhost;
},
{
horizontal = 1;
place = (407, -7);
place = (407, -7);
type = Stem;
},
{
place = (164, -38);
place = (164, -38);
type = Stem;
}
);
layerId = "E0989092-07D5-4BE4-A82B-4E03160A36DB";
shapes = (
{
closed = 1;
nodes = (
(228,-203,l),
(231,-187,l),
(143,-153,l),
(145,-156,l),
(174,-7,l),
(171,-8,l),
(178,-12,o),
(188,-15,o),
(198,-15,cs),
(382,-15,o),
(537,110,o),
(572,286,cs),
(598,422,o),
(511,518,o),
(362,518,cs),
(330,518,o),
(293,513,o),
(272,506,c),
(273,504,l),
(312,705,l),
(329,784,l),
(289,810,l),
(69,738,l),
(65,714,l),
(135,702,l),
(134,704,l),
(-33,-156,l),
(-31,-153,l),
(-127,-187,l),
(-130,-203,l)
);
},
{
closed = 1;
nodes = (
(219,31,o),
(196,34,o),
(181,38,c),
(182,36,l),
(263,452,l),
(260,448,l),
(275,459,o),
(296,466,o),
(311,466,cs),
(380,466,o),
(412,381,o),
(389,261,cs),
(362,126,o),
(300,31,o),
(238,31,cs)
);
}
);
width = 600;
}
);
unicode = 254;
},
{
color = 5;
glyphname = q;
layers = (
{
layerId = m01;
shapes = (
{
closed = 1;
nodes = (
(318,-160,o),
(317,-170,o),
(317,-179,cs),
(317,-219,o),
(335,-236,o),
(374,-236,cs),
(413,-236,o),
(471,-217,o),
(515,-189,c),
(500,-163,l),
(481,-176,o),
(457,-186,o),
(442,-186,cs),
(422,-186,o),
(412,-174,o),
(412,-150,cs),
(412,-143,o),
(413,-134,o),
(415,-124,cs),
(528,460,l),
(485,486,l),
(465,504,o),
(425,516,o),
(388,516,cs),
(221,516,o),
(82,409,o),
(52,258,cs),
(47,233,o),
(45,209,o),
(45,186,cs),
(45,67,o),
(109,-11,o),
(215,-11,cs),
(255,-11,o),
(308,8,o),
(356,38,c),
(320,-148,ls)
);
},
{
closed = 1;
nodes = (
(174,394,o),
(251,471,o),
(338,471,cs),
(370,471,o),
(404,455,o),
(431,429,c),
(364,77,l),
(327,50,o),
(290,34,o),
(265,34,cs),
(190,34,o),
(144,101,o),
(144,204,cs),
(144,229,o),
(147,257,o),
(153,286,cs)
);
}
);
width = 571;
},
{
associatedMasterId = m01;
layerId = "26E9DDFE-E1DA-49A8-A371-9EAED660B458";
name = "1. Jan. 24, 11:52";
shapes = (
{
closed = 1;
nodes = (
(323,-11,o),
(392,22,o),
(438,69,c),
(435,110,l),
(396,65,o),
(345,34,o),
(311,34,cs),
(217,34,o),
(150,138,o),
(150,286,c),
(55,258,l),
(55,100,o),
(144,-11,o),
(270,-11,cs)
);
},
{
closed = 1;
nodes = (
(585,-200,l),
(585,-180,l),
(491,-150,l),
(401,-150,l),
(310,-180,l),
(310,-200,l)
);
},
{
closed = 1;
nodes = (
(491,-150,l),
(491,460,l),
(401,460,l),
(401,-150,l)
);
},
{
closed = 1;
nodes = (
(150,286,l),
(150,394,o),
(212,471,o),
(299,471,cs),
(342,471,o),
(396,442,o),
(431,400,cs),
(432,399,l),
(490,460,l),
(443,486,l),
(420,504,o),
(377,516,o),
(340,516,cs),
(173,516,o),
(55,409,o),
(55,258,c)
);
}
);
width = 585;
},
{
hints = (
{
horizontal = 1;
place = (-234, -15);
place = (-234, -15);
type = Stem;
},
{
horizontal = 1;
place = (-45, 16);
place = (-45, 16);
type = Stem;
},
{
horizontal = 1;
place = (437, 20);
place = (437, 20);
type = Stem;
},
{
place = (-19, 150);
place = (-19, 150);
type = Stem;
},
{
place = (327, 145);
place = (327, 145);
type = Stem;
},
{
horizontal = 1;
place = (-45, 20);
place = (-45, 20);
type = Stem;
}
);
layerId = "E0989092-07D5-4BE4-A82B-4E03160A36DB";
shapes = (
{
closed = 1;
nodes = (
(288,-137,o),
(288,-142,o),
(288,-146,cs),
(288,-198,o),
(339,-220,o),
(383,-220,cs),
(450,-220,o),
(528,-201,o),
(571,-173,c),
(556,-147,l),
(536,-160,o),
(512,-170,o),
(497,-170,cs),
(477,-170,o),
(467,-158,o),
(467,-134,cs),
(467,-127,o),
(468,-118,o),
(470,-108,cs),
(581,464,l),
(534,483,ls),
(486,504,o),
(430,519,o),
(398,519,cs),
(194,519,o),
(36,403,o),
(16,238,cs),
(14,222,o),
(12,207,o),
(12,192,cs),
(12,69,o),
(96,-14,o),
(225,-14,cs),
(248,-14,o),
(286,-9,o),
(315,-2,c),
(289,-132,ls)
);
},
{
closed = 1;
nodes = (
(228,391,o),
(286,461,o),
(346,461,cs),
(362,461,o),
(385,449,o),
(400,434,c),
(326,52,l),
(310,43,o),
(287,37,o),
(275,37,cs),
(224,37,o),
(195,94,o),
(195,183,cs),
(195,216,o),
(199,253,o),
(207,293,cs)
);
}
);
width = 595;
},
{
associatedMasterId = m01;
layerId = "A947B2D4-BDBC-46C4-B40D-4F203E9B829E";
name = "13. Jan. 24, 13:25";
shapes = (
{
closed = 1;
nodes = (
(437,-124,l),
(550,460,l),
(507,486,l),
(487,504,o),
(447,516,o),
(410,516,cs),
(243,516,o),
(104,409,o),
(74,258,cs),
(44,100,o),
(111,-11,o),
(237,-11,cs),
(280,-11,o),
(338,11,o),
(389,46,c),
(381,56,l),
(342,-148,l)
);
},
{
closed = 1;
nodes = (
(435,-236,o),
(493,-217,o),
(537,-189,c),
(522,-163,l),
(503,-176,o),
(479,-186,o),
(464,-186,cs),
(438,-186,o),
(429,-166,o),
(437,-124,c),
(342,-148,l),
(332,-210,o),
(348,-236,o),
(396,-236,cs)
);
},
{
closed = 1;
nodes = (
(193,34,o),
(146,138,o),
(175,286,cs),
(196,394,o),
(273,471,o),
(360,471,cs),
(395,471,o),
(434,451,o),
(462,420,c),
(457,447,l),
(382,59,l),
(398,87,l),
(357,54,o),
(315,34,o),
(287,34,cs)
);
}
);
width = 585;
},
{
associatedMasterId = "E0989092-07D5-4BE4-A82B-4E03160A36DB";
hints = (
{
horizontal = 1;
place = (-234, -15);
place = (-234, -15);
type = Stem;
},
{
horizontal = 1;
place = (-45, 16);
place = (-45, 16);
type = Stem;
},
{
horizontal = 1;
place = (437, 20);
place = (437, 20);
type = Stem;
},
{
place = (-19, 150);
place = (-19, 150);
type = Stem;
},
{
place = (327, 145);
place = (327, 145);
type = Stem;
},
{
horizontal = 1;
place = (-45, 20);
place = (-45, 20);
type = Stem;
}
);
layerId = "507B6618-162A-4D58-A23C-4BBB7237DFF3";
name = "13. Jan. 24, 13:25";
shapes = (
{
closed = 1;
nodes = (
(472,-108,l),
(583,464,l),
(536,483,l),
(488,504,o),
(432,519,o),
(400,519,cs),
(196,519,o),
(38,403,o),
(18,238,cs),
(-5,90,o),
(82,-14,o),
(227,-14,cs),
(250,-14,o),
(289,-9,o),
(318,-2,c),
(317,0,l),
(291,-132,l)
);
},
{
closed = 1;
nodes = (
(452,-220,o),
(530,-201,o),
(573,-173,c),
(558,-147,l),
(538,-160,o),
(514,-170,o),
(499,-170,cs),
(479,-170,o),
(469,-158,o),
(469,-134,cs),
(469,-127,o),
(470,-118,o),
(472,-108,c),
(291,-132,l),
(290,-137,o),
(290,-142,o),
(290,-146,cs),
(290,-198,o),
(341,-220,o),
(385,-220,cs)
);
},
{
closed = 1;
nodes = (
(207,37,o),
(179,143,o),
(209,293,cs),
(230,391,o),
(288,461,o),
(348,461,cs),
(364,461,o),
(388,449,o),
(402,433,c),
(402,436,l),
(327,49,l),
(328,52,l),
(312,43,o),
(289,37,o),
(277,37,cs)
);
}
);
width = 585;
}
);
unicode = 113;
},
{
color = 5;
glyphname = r;
layers = (
{
anchors = (
{
name = com;
pos = (115,0);
},
{
name = top;
pos = (280,500);
}
);
layerId = m01;
shapes = (
{
closed = 1;
nodes = (
(156,0,l),
(223,338,l),
(272,401,o),
(294,429,o),
(321,429,cs),
(345,429,o),
(372,420,o),
(396,403,c),
(453,485,l),
(427,504,o),
(391,517,o),
(347,517,cs),
(341,517,o),
(335,517,o),
(328,517,c),
(236,401,l),
(241,427,o),
(244,427,o),
(244,453,cs),
(244,493,o),
(226,510,o),
(187,510,cs),
(148,510,o),
(90,491,o),
(46,463,c),
(61,437,l),
(80,450,o),
(104,460,o),
(119,460,cs),
(139,460,o),
(149,448,o),
(149,424,cs),
(149,417,o),
(148,408,o),
(146,398,cs),
(68,0,l)
);
}
);
width = 430;
},
{
associatedMasterId = m01;
background = {
shapes = (
{
closed = 1;
nodes = (
(187,516,l),
(192,513,ls),
(195,511,o),
(199,496,o),
(202,460,cs),
(204,434,l),
(204,108,ls),
(204,69,o),
(223,45,o),
(261,35,cs),
(274,32,o),
(280,25,o),
(280,15,cs),
(280,6,o),
(257,0,o),
(214,0,cs),
(20,0,l),
(20,10,ls),
(20,16,o),
(35,25,o),
(67,35,cs),
(99,45,o),
(114,69,o),
(114,107,cs),
(114,370,ls),
(114,411,o),
(92,435,o),
(52,440,cs),
(10,445,l),
(10,453,ls),
(10,458,o),
(28,466,o),
(65,478,cs)
);
},
{
closed = 1;
nodes = (
(244,464,o),
(270,517,o),
(302,517,cs),
(316,517,o),
(335,515,o),
(353,512,cs),
(386,506,o),
(398,481,o),
(390,447,cs),
(382,415,o),
(371,398,o),
(363,403,cs),
(336,416,o),
(307,419,o),
(283,419,cs),
(257,419,o),
(240,404,o),
(221,378,cs),
(192,338,o),
(173,316,o),
(168,323,cs),
(162,332,o),
(170,350,o),
(191,384,cs)
);
}
);
};
layerId = "66529081-EDE8-422A-B9FF-C7E6FD61FFB3";
name = "1. Jan. 24, 11:55";
shapes = (
{
closed = 1;
nodes = (
(202,50,l),
(202,434,l),
(198,509,l),
(187,516,l),
(10,461,l),
(10,445,l),
(114,433,l),
(114,50,l)
);
},
{
closed = 1;
nodes = (
(308,0,l),
(308,20,l),
(202,50,l),
(114,50,l),
(20,20,l),
(20,0,l)
);
},
{
closed = 1;
nodes = (
(223,361,o),
(241,429,o),
(283,429,cs),
(307,429,o),
(336,420,o),
(363,403,c),
(404,485,l),
(370,507,o),
(325,520,o),
(273,517,c),
(157,326,l),
(174,294,l)
);
}
);
width = 424;
},
{
anchors = (
{
name = com;
pos = (102,0);
},
{
name = top;
pos = (317,500);
}
);
hints = (
{
horizontal = 1;
place = (-54, -35);
place = (-54, -35);
type = Stem;
},
{
horizontal = 1;
place = (448, -20);
target = down;
type = TopGhost;
},
{
place = (20, 123);
place = (20, 123);
type = Stem;
},
{
horizontal = 1;
place = (351, 69);
place = (351, 69);
type = Stem;
},
{
place = (20, 113);
place = (20, 113);
type = Stem;
}
);
layerId = "E0989092-07D5-4BE4-A82B-4E03160A36DB";
shapes = (
{
closed = 1;
nodes = (
(205,0,l),
(280,387,l),
(299,399,o),
(322,412,o),
(332,412,cs),
(364,412,o),
(383,388,o),
(415,358,c),
(493,478,l),
(461,513,o),
(416,522,o),
(383,522,cs),
(366,522,o),
(353,520,o),
(345,517,c),
(287,443,l),
(287,444,o),
(287,444,o),
(287,445,cs),
(287,489,o),
(235,510,o),
(192,510,cs),
(125,510,o),
(47,491,o),
(4,463,c),
(19,437,l),
(39,450,o),
(63,460,o),
(78,460,cs),
(98,460,o),
(108,448,o),
(108,424,cs),
(108,417,o),
(107,408,o),
(105,398,cs),
(29,0,l)
);
}
);
width = 455;
},
{
anchors = (
{
name = com;
pos = (110,0);
},
{
name = top;
pos = (275,500);
}
);
associatedMasterId = m01;
layerId = "EA7DD244-4F7D-41F5-944A-F0E0328EE6EB";
name = "13. Jan. 24, 13:26";
shapes = (
{
closed = 1;
nodes = (
(151,0,l),
(221,355,l),
(203,319,l),
(209,328,o),
(216,336,o),
(222,344,cs),
(267,401,o),
(289,429,o),
(316,429,cs),
(340,429,o),
(367,420,o),
(391,403,c),
(448,485,l),
(418,507,o),
(376,520,o),
(323,517,c),
(218,385,l),
(226,382,l),
(236,422,l),
(141,398,l),
(63,0,l)
);
},
{
closed = 1;
nodes = (
(236,422,l),
(246,484,o),
(230,510,o),
(182,510,cs),
(143,510,o),
(85,491,o),
(41,463,c),
(56,437,l),
(75,450,o),
(99,460,o),
(114,460,cs),
(140,460,o),
(149,440,o),
(141,398,c)
);
}
);
width = 424;
},
{
anchors = (
{
name = com;
pos = (86,0);
},
{
name = top;
pos = (301,500);
}
);
associatedMasterId = "E0989092-07D5-4BE4-A82B-4E03160A36DB";
hints = (
{
horizontal = 1;
place = (-54, -35);
place = (-54, -35);
type = Stem;
},
{
horizontal = 1;
place = (448, -20);
target = down;
type = TopGhost;
},
{
place = (20, 123);
place = (20, 123);
type = Stem;
},
{
horizontal = 1;
place = (351, 69);
place = (351, 69);
type = Stem;
},
{
place = (20, 113);
place = (20, 113);
type = Stem;
}
);
layerId = "E027E3E0-9F71-4951-98D4-5C9C8E6C3871";
name = "13. Jan. 24, 13:26";
shapes = (
{
closed = 1;
nodes = (
(189,0,l),
(264,389,l),
(246,376,l),
(253,381,o),
(259,385,o),
(265,388,cs),
(283,399,o),
(306,412,o),
(316,412,cs),
(348,412,o),
(367,388,o),
(399,358,c),
(477,478,l),
(429,530,o),
(352,525,o),
(329,517,c),
(271,443,l),
(270,422,l),
(89,398,l),
(13,0,l)
);
},
{
closed = 1;
nodes = (
(270,422,l),
(271,427,o),
(271,432,o),
(271,436,cs),
(271,488,o),
(220,510,o),
(176,510,cs),
(109,510,o),
(31,491,o),
(-12,463,c),
(3,437,l),
(23,450,o),
(47,460,o),
(62,460,cs),
(82,460,o),
(92,448,o),
(92,424,cs),
(92,417,o),
(91,408,o),
(89,398,c)
);
}
);
width = 425;
}
);
unicode = 114;
},
{
color = 5;
glyphname = s;
layers = (
{
anchors = (
{
name = ced;
pos = (174,-1);
},
{
name = com;
pos = (174,0);
},
{
name = top;
pos = (292,500);
}
);
background = {
shapes = (
{
closed = 1;
nodes = (
(106,516,o),
(36,460,o),
(36,380,cs),
(36,180,o),
(317,210,o),
(317,110,cs),
(317,54,o),
(271,14,o),
(205,14,cs),
(160,14,o),
(120,45,o),
(97,94,cs),
(59,182,o),
(48,165,o),
(43,34,c),
(79,4,o),
(147,-16,o),
(205,-16,cs),
(306,-16,o),
(377,44,o),
(377,130,cs),
(377,330,o),
(106,300,o),
(106,400,cs),
(106,450,o),
(147,486,o),
(205,486,cs),
(245,486,o),
(280,459,o),
(301,416,cs),
(318,379,o),
(323,360,o),
(333,360,cs),
(346,360,o),
(352,403,o),
(348,481,c),
(318,499,o),
(261,516,o),
(205,516,cs)
);
}
);
};
layerId = m01;
shapes = (
{
closed = 1;
nodes = (
(284,-16,o),
(376,60,o),
(376,165,cs),
(376,252,o),
(301,287,o),
(239,315,cs),
(192,336,o),
(152,355,o),
(152,390,cs),
(152,436,o),
(204,486,o),
(269,486,cs),
(309,486,o),
(340,460,o),
(351,416,cs),
(365,360,l),
(388,360,l),
(412,481,l),
(383,499,o),
(331,516,o),
(275,516,cs),
(165,516,o),
(76,448,o),
(76,346,cs),
(76,258,o),
(153,224,o),
(218,195,cs),
(267,174,o),
(309,155,o),
(309,119,cs),
(309,70,o),
(253,14,o),
(177,14,cs),
(132,14,o),
(98,44,o),
(85,94,cs),
(71,149,l),
(49,149,l),
(19,34,l),
(49,4,o),
(113,-16,o),
(171,-16,cs)
);
}
);
width = 447;
},
{
associatedMasterId = m01;
background = {
shapes = (
{
closed = 1;
nodes = (
(125,516,o),
(55,460,o),
(55,380,cs),
(55,180,o),
(336,210,o),
(336,110,cs),
(336,54,o),
(290,14,o),
(224,14,cs),
(179,14,o),
(139,45,o),
(116,94,cs),
(78,182,o),
(67,165,o),
(62,34,c),
(98,4,o),
(166,-16,o),
(224,-16,cs),
(325,-16,o),
(396,44,o),
(396,130,cs),
(396,330,o),
(125,300,o),
(125,400,cs),
(125,450,o),
(166,486,o),
(224,486,cs),
(264,486,o),
(299,459,o),
(320,416,cs),
(337,379,o),
(342,360,o),
(352,360,cs),
(365,360,o),
(371,403,o),
(367,481,c),
(337,499,o),
(280,516,o),
(224,516,cs)
);
}
);
};
layerId = "DBBBEA9A-309E-401A-8CD2-D99DFACDCE64";
name = "1. Jan. 24, 11:59";
shapes = (
{
closed = 1;
nodes = (
(325,-16,o),
(396,44,o),
(396,130,cs),
(396,325,o),
(125,300,o),
(125,400,cs),
(125,450,o),
(166,486,o),
(224,486,cs),
(264,486,o),
(299,459,o),
(320,416,cs),
(345,360,l),
(368,360,l),
(368,481,l),
(336,499,o),
(280,516,o),
(224,516,cs),
(125,516,o),
(55,460,o),
(55,380,cs),
(55,185,o),
(336,210,o),
(336,110,cs),
(336,54,o),
(290,14,o),
(224,14,cs),
(179,14,o),
(139,45,o),
(116,94,cs),
(92,149,l),
(70,149,l),
(62,34,l),
(98,4,o),
(166,-16,o),
(224,-16,cs)
);
}
);
width = 441;
},
{
anchors = (
{
name = ced;
pos = (183,-1);
},
{
name = com;
pos = (183,0);
},
{
name = top;
pos = (311,500);
}
);
hints = (
{
horizontal = 1;
place = (-68, -13);
place = (-68, -13);
type = Stem;
},
{
horizontal = 1;
place = (434, -13);
place = (434, -13);
type = Stem;
},
{
place = (-9, 30);
place = (-9, 30);
type = Stem;
},
{
place = (244, 97);
place = (244, 97);
type = Stem;
},
{
place = (-37, 107);
place = (-37, 107);
type = Stem;
},
{
place = (274, 23);
place = (274, 23);
type = Stem;
}
);
layerId = "E0989092-07D5-4BE4-A82B-4E03160A36DB";
shapes = (
{
closed = 1;
nodes = (
(298,-19,o),
(428,42,o),
(428,172,cs),
(428,263,o),
(361,305,o),
(299,333,cs),
(254,353,o),
(206,362,o),
(206,400,cs),
(206,438,o),
(248,483,o),
(297,483,cs),
(349,483,o),
(386,454,o),
(385,414,cs),
(384,357,l),
(434,357,l),
(456,471,l),
(411,499,o),
(344,519,o),
(294,519,cs),
(170,519,o),
(41,466,o),
(41,340,cs),
(41,247,o),
(111,205,o),
(177,177,cs),
(223,157,o),
(273,148,o),
(273,110,cs),
(273,69,o),
(224,17,o),
(167,17,cs),
(108,17,o),
(68,50,o),
(70,96,cs),
(72,152,l),
(22,152,l),
(-4,47,l),
(2,8,o),
(74,-19,o),
(170,-19,cs)
);
}
);
width = 476;
}
);
unicode = 115;
},
{
color = 5;
glyphname = saltillo;
layers = (
{
layerId = m01;
shapes = (
{
closed = 1;
nodes = (
(146,515,l),
(202,700,l),
(130,700,l),
(104,515,l)
);
}
);
width = 246;
},
{
layerId = "E0989092-07D5-4BE4-A82B-4E03160A36DB";
shapes = (
{
closed = 1;
nodes = (
(116,495,l),
(176,700,l),
(84,700,l),
(54,495,l)
);
}
);
width = 220;
}
);
unicode = 42892;
},
{
color = 5;
glyphname = germandbls;
layers = (
{
layerId = m01;
shapes = (
{
closed = 1;
nodes = (
(477,-16,o),
(550,70,o),
(550,171,cs),
(550,257,o),
(490,292,o),
(441,321,cs),
(405,342,o),
(375,360,o),
(375,390,cs),
(375,434,o),
(430,479,o),
(469,510,cs),
(552,576,o),
(577,608,o),
(577,686,cs),
(577,769,o),
(530,814,o),
(442,814,cs),
(317,814,o),
(201,711,o),
(174,566,cs),
(162,502,l),
(55,502,l),
(45,462,l),
(155,462,l),
(65,0,l),
(154,0,l),
(271,598,ls),
(293,709,o),
(352,787,o),
(407,787,cs),
(446,787,o),
(495,708,o),
(495,637,cs),
(495,580,o),
(458,551,o),
(414,512,cs),
(341,448,o),
(310,410,o),
(310,340,cs),
(310,254,o),
(373,218,o),
(425,189,cs),
(462,168,o),
(494,150,o),
(494,119,cs),
(494,84,o),
(458,19,o),
(383,19,cs),
(346,19,o),
(316,45,o),
(306,94,cs),
(297,139,l),
(279,139,l),
(253,34,l),
(276,4,o),
(328,-16,o),
(376,-16,cs)
);
}
);
width = 596;
},
{
associatedMasterId = m01;
layerId = "F985E475-2F89-4C60-B7AF-543DFCCDA5B4";
name = "1. Jan. 24, 12:14";
shapes = (
{
closed = 1;
nodes = (
(507,-16,o),
(565,44,o),
(565,130,cs),
(565,325,o),
(343,310,o),
(343,400,cs),
(343,489,o),
(491,534,o),
(491,634,cs),
(491,750,o),
(433,814,o),
(328,814,cs),
(203,814,o),
(109,711,o),
(109,566,c),
(199,598,l),
(199,709,o),
(244,787,o),
(299,787,cs),
(343,787,o),
(419,687,o),
(419,611,cs),
(419,536,o),
(285,479,o),
(285,380,cs),
(285,185,o),
(516,200,o),
(516,110,cs),
(516,54,o),
(478,19,o),
(424,19,cs),
(387,19,o),
(350,45,o),
(332,94,cs),
(315,139,l),
(297,139,l),
(291,34,l),
(320,4,o),
(376,-16,o),
(424,-16,cs)
);
},
{
closed = 1;
nodes = (
(199,0,l),
(199,50,l),
(109,50,l),
(18,20,l),
(18,0,l)
);
},
{
closed = 1;
nodes = (
(199,50,l),
(199,598,l),
(109,566,l),
(109,50,l)
);
},
{
closed = 1;
nodes = (
(161,462,l),
(161,502,l),
(2,502,l),
(0,462,l)
);
}
);
width = 590;
},
{
hints = (
{
horizontal = 1;
place = (-97, -37);
place = (-97, -37);
type = Stem;
},
{
horizontal = 1;
place = (374, -31);
place = (374, -31);
type = Stem;
},
{
horizontal = 1;
place = (706, -45);
place = (706, -45);
type = Stem;
},
{
place = (-12, 98);
place = (-12, 98);
type = Stem;
},
{
place = (206, -33);
place = (206, -33);
type = Stem;
},
{
place = (395, 57);
place = (395, 57);
type = Stem;
},
{
horizontal = 1;
place = (-78, -61);
place = (-78, -61);
type = Stem;
},
{
place = (205, 42);
place = (205, 42);
type = Stem;
},
{
place = (298, 79);
place = (298, 79);
type = Stem;
}
);
layerId = "E0989092-07D5-4BE4-A82B-4E03160A36DB";
shapes = (
{
closed = 1;
nodes = (
(481,-19,o),
(581,51,o),
(581,177,cs),
(581,263,o),
(523,292,o),
(474,318,cs),
(440,336,o),
(421,351,o),
(421,382,cs),
(421,432,o),
(474,487,o),
(514,518,cs),
(568,559,o),
(602,608,o),
(602,669,cs),
(602,757,o),
(535,817,o),
(429,817,cs),
(276,817,o),
(145,703,o),
(114,543,cs),
(105,499,l),
(38,499,l),
(30,452,l),
(97,452,l),
(7,0,l),
(184,0,l),
(302,605,ls),
(322,710,o),
(361,784,o),
(394,784,cs),
(432,784,o),
(454,743,o),
(454,680,cs),
(454,636,o),
(439,545,o),
(405,517,cs),
(341,461,o),
(295,412,o),
(295,335,cs),
(295,275,o),
(318,216,o),
(366,192,cs),
(405,173,o),
(438,157,o),
(438,122,cs),
(438,84,o),
(413,22,o),
(371,22,cs),
(357,22,o),
(318,31,o),
(310,96,cs),
(304,142,l),
(254,142,l),
(236,47,ls),
(231,21,o),
(290,-19,o),
(363,-19,cs)
);
}
);
width = 600;
},
{
associatedMasterId = m01;
layerId = "B34D3532-1AC3-4B4B-BC63-59782900381F";
name = "13. Jan. 24, 13:31";
shapes = (
{
closed = 1;
nodes = (
(456,-16,o),
(526,44,o),
(543,130,cs),
(565,246,o),
(494,288,o),
(438,321,cs),
(398,344,o),
(366,364,o),
(373,400,cs),
(382,443,o),
(423,476,o),
(466,510,cs),
(511,546,o),
(559,583,o),
(569,634,cs),
(591,750,o),
(544,814,o),
(439,814,cs),
(314,814,o),
(198,711,o),
(171,566,cs),
(156,484,l),
(177,502,l),
(52,502,l),
(42,462,l),
(169,462,l),
(155,480,l),
(62,0,l),
(151,0,l),
(268,598,ls),
(290,709,o),
(349,787,o),
(404,787,cs),
(448,787,o),
(505,687,o),
(490,611,cs),
(483,576,o),
(448,545,o),
(411,512,cs),
(368,474,o),
(322,433,o),
(311,380,cs),
(289,264,o),
(363,222,o),
(422,189,cs),
(463,166,o),
(497,146,o),
(490,110,cs),
(479,54,o),
(434,19,o),
(380,19,cs),
(343,19,o),
(313,45,o),
(303,94,cs),
(294,139,l),
(276,139,l),
(250,34,l),
(273,4,o),
(325,-16,o),
(373,-16,cs)
);
}
);
width = 590;
},
{
associatedMasterId = "E0989092-07D5-4BE4-A82B-4E03160A36DB";
hints = (
{
horizontal = 1;
place = (-97, -37);
place = (-97, -37);
type = Stem;
},
{
horizontal = 1;
place = (374, -31);
place = (374, -31);
type = Stem;
},
{
horizontal = 1;
place = (706, -45);
place = (706, -45);
type = Stem;
},
{
place = (-12, 98);
place = (-12, 98);
type = Stem;
},
{
place = (206, -33);
place = (206, -33);
type = Stem;
},
{
place = (395, 57);
place = (395, 57);
type = Stem;
},
{
horizontal = 1;
place = (-78, -61);
place = (-78, -61);
type = Stem;
},
{
place = (205, 42);
place = (205, 42);
type = Stem;
},
{
place = (298, 79);
place = (298, 79);
type = Stem;
}
);
layerId = "1CD39E0F-F353-4655-A534-185F0B8950F4";
name = "13. Jan. 24, 13:31";
shapes = (
{
closed = 1;
nodes = (
(434,-19,o),
(527,36,o),
(546,130,cs),
(570,254,o),
(501,288,o),
(444,318,cs),
(404,339,o),
(385,356,o),
(393,400,cs),
(400,433,o),
(437,482,o),
(484,518,cs),
(527,551,o),
(562,599,o),
(569,634,cs),
(589,741,o),
(519,817,o),
(399,817,cs),
(246,817,o),
(115,703,o),
(84,543,cs),
(75,497,l),
(77,499,l),
(8,499,l),
(0,452,l),
(68,452,l),
(67,454,l),
(-13,44,l),
(-19,17,l),
(-23,0,l),
(154,0,l),
(272,605,ls),
(292,710,o),
(331,784,o),
(364,784,cs),
(415,784,o),
(437,712,o),
(417,611,cs),
(409,569,o),
(391,530,o),
(375,517,cs),
(320,469,o),
(276,413,o),
(269,380,cs),
(255,306,o),
(276,222,o),
(336,192,cs),
(379,171,o),
(415,154,o),
(407,110,cs),
(394,44,o),
(367,22,o),
(341,22,cs),
(327,22,o),
(288,31,o),
(280,96,cs),
(274,142,l),
(224,142,l),
(206,47,l),
(201,21,o),
(260,-19,o),
(333,-19,cs)
);
}
);
width = 590;
}
);
unicode = 223;
},
